<?xml version="1.0" standalone="no"?>
<!DOCTYPE svg PUBLIC "-//W3C//DTD SVG 1.1//EN" "http://www.w3.org/Graphics/SVG/1.1/DTD/svg11.dtd" >
<svg xmlns="http://www.w3.org/2000/svg">
<metadata>
This is a custom SVG webfont generated by Font Squirrel.
Copyright   :  1992 1994 1997 2000 2004 Adobe Systems Incorporated All rights reserved
Designer    : Robert Slimbach and Carol Twombly
Foundry     : Adobe Systems Incorporated
Foundry URL : httpwwwadobecomtype
</metadata>
<defs>
<font id="MyriadProBoldItalic" horiz-adv-x="856" >
<font-face units-per-em="2048" ascent="1536" descent="-512" />
<missing-glyph horiz-adv-x="399" />
<glyph unicode="ffj" horiz-adv-x="1863" d="M63 0l154 825h-137l45 238h137l8 39q45 199 156 309q119 123 324 123q102 0 184 -43l-103 -229q-39 20 -83 20q-61 0 -99 -37q-47 -47 -69 -151l-7 -31h349l10 43q43 219 199.5 338t392.5 119q188 0 293 -60l-82 -241q-115 47 -232 47q-229 0 -264 -203l-6 -43h614 l-192 -1026q-49 -264 -150 -377q-98 -115 -288 -115q-84 0 -152 19l35 233q49 -4 71 -4q61 0 101.5 48t66.5 182l152 802h-301l-156 -825h-313l156 825h-347l-155 -825h-312z" />
<glyph unicode="fj" horiz-adv-x="1208" d="M68 0l153 825h-137l47 238h135l10 43q43 219 199 338t393 119q188 0 293 -60l-82 -241q-111 47 -233 47q-223 0 -262 -203l-6 -43h614l-193 -1026q-49 -264 -151 -377q-96 -115 -289 -115q-84 0 -147 19l34 233q45 -4 70 -4q61 0 102 48t66 182l152 802h-301l-154 -825 h-313z" />
<glyph unicode="&#xfb00;" horiz-adv-x="1370" d="M66 0l155 825h-137l45 238h137l8 33q47 213 154 319q119 119 315 119q86 0 158 -27l-84 -237q-45 12 -72 12q-123 0 -163 -184l-7 -35h347l12 55q41 229 178 348q117 98 301 99q109 0 166 -25l-55 -250q-41 16 -101 17q-74 0 -120 -53.5t-62 -137.5l-10 -53h211l-45 -238 h-209l-152 -825h-315l156 825h-345l-155 -825h-311z" />
<glyph unicode="&#xfb03;" horiz-adv-x="1875" d="M63 0l154 825h-137l45 238h137l8 39q45 199 156 309q119 123 324 123q109 0 184 -43l-103 -229q-39 20 -83 20q-61 0 -99 -37q-47 -47 -69 -151l-7 -31h349l10 43q43 219 199.5 338t392.5 119q188 0 293 -60l-82 -241q-115 47 -232 47q-229 0 -264 -203l-6 -43h614 l-202 -1063h-312l154 825h-297l-154 -825h-315l156 825h-347l-155 -825h-312z" />
<glyph unicode="&#xfb04;" horiz-adv-x="1875" d="M63 0l154 825h-137l45 238h137l6 31q41 205 156 319q121 121 321 121q102 0 187 -41l-96 -229q-49 18 -88 18q-61 0 -101 -39q-49 -49 -67 -149l-7 -31h349l8 47q39 219 213 344q147 111 397 111q96 0 205.5 -23.5t177.5 -64.5l-278 -1477h-312l246 1298q-45 20 -121 21 q-88 0 -145.5 -60.5t-73.5 -156.5l-6 -39h182l-45 -238h-180l-156 -825h-313l156 825h-347l-155 -825h-312z" />
<glyph unicode="fi" horiz-adv-x="1222" d="M68 0l153 825h-137l47 238h135l10 43q41 219 197 338t395 119q188 0 293 -60l-82 -241q-115 47 -233 47q-227 0 -262 -203l-6 -43h614l-203 -1063h-311l153 825h-296l-158 -825h-309z" />
<glyph unicode="fl" horiz-adv-x="1222" d="M66 0l155 825h-139l47 238h135l10 47q43 223 211 344q150 111 398 111q98 0 207.5 -23.5t177.5 -64.5l-279 -1477h-311l244 1298q-43 20 -119 21q-88 0 -145.5 -60.5t-73.5 -156.5l-6 -39h182l-45 -238h-180l-158 -825h-311z" />
<glyph unicode=" "  horiz-adv-x="399" />
<glyph unicode="&#x09;" horiz-adv-x="399" />
<glyph unicode="&#xa0;" horiz-adv-x="399" />
<glyph unicode="!" horiz-adv-x="583" d="M31 154q0 90 59.5 153.5t151.5 63.5q78 0 128 -51.5t50 -131.5q0 -92 -61.5 -152.5t-153.5 -60.5q-80 0 -127 50.5t-47 128.5zM158 479l141 983h338l-236 -983h-243z" />
<glyph unicode="&#x22;" horiz-adv-x="839" d="M182 899l68 604h291l-160 -604h-199zM600 899l66 604h290l-159 -604h-197z" />
<glyph unicode="#" horiz-adv-x="1173" d="M47 389l33 195h209l82 250h-185l31 194h213l121 383h188l-121 -383h191l123 383h190l-121 -383h177l-33 -194h-205l-78 -250h180l-32 -195h-213l-119 -389h-195l123 389h-188l-121 -389h-193l121 389h-178zM481 584h191l78 250h-191z" />
<glyph unicode="$" horiz-adv-x="1173" d="M37 133l100 236q147 -109 342 -109q100 0 161.5 41t61.5 111q0 57 -42 99t-142 91q-147 76 -230 164t-83 209q0 162 119.5 277.5t318.5 136.5l39 194h203l-37 -192q174 -8 282 -80l-98 -232q-131 78 -297 78q-88 0 -140 -39t-52 -98q0 -49 48 -89t169 -102 q285 -141 284 -370q0 -190 -131 -304t-331 -135l-39 -208h-207l39 204q-92 6 -187.5 41t-150.5 76z" />
<glyph unicode="%" horiz-adv-x="1886" d="M135 899q0 219 130 378t335 159q143 0 226 -90.5t83 -233.5q0 -233 -130 -390t-322 -157q-143 0 -232.5 90t-89.5 244zM352 -25l1049 1459h184l-1046 -1459h-187zM373 893q0 -147 106 -148q88 0 140.5 126t52.5 245q0 139 -107 139q-86 0 -139 -122.5t-53 -239.5z M1036 315q0 219 130 378t333 159q143 0 227 -90t84 -234q0 -233 -130 -390.5t-324 -157.5q-141 0 -230.5 89.5t-89.5 245.5zM1274 309q0 -66 27.5 -107.5t78.5 -41.5q88 0 139.5 126t51.5 246q0 139 -105 140q-86 0 -139 -123t-53 -240z" />
<glyph unicode="&#x26;" horiz-adv-x="1443" d="M31 362q0 285 354 453l2 6q-82 133 -82 248q0 180 129 299t330 119q166 0 268.5 -90t102.5 -236q0 -236 -363 -403v-6q68 -104 197 -281q121 139 198 371h289q-125 -360 -344 -568q88 -131 213 -274h-371q-16 16 -77 100q-166 -125 -394 -125q-205 0 -328.5 105.5 t-123.5 281.5zM350 418q0 -90 58.5 -148.5t164.5 -58.5q100 0 179 70q-137 178 -258 366q-144 -104 -144 -229zM586 1100q0 -96 65 -182q207 96 207 241q0 55 -30.5 91t-92 36t-105.5 -53t-44 -133z" />
<glyph unicode="'" horiz-adv-x="428" d="M186 901l68 602h291l-160 -602h-199z" />
<glyph unicode="(" horiz-adv-x="679" d="M133 330q0 358 119 658t315 509h232q-182 -227 -298 -526t-116 -630t88 -593h-221q-119 267 -119 582z" />
<glyph unicode=")" horiz-adv-x="679" d="M-80 -252q182 227 298 529.5t116 630t-88 589.5h223q117 -260 117 -579q0 -358 -118 -657.5t-314 -512.5h-234z" />
<glyph unicode="*" horiz-adv-x="980" d="M137 944l43 223l320 -71v4l-199 278l207 109l84 -334h6l156 334l182 -111l-268 -276l4 -4l356 71l-43 -223l-330 62l-2 -5l207 -268l-207 -110l-86 333l-4 -2l-162 -333l-176 114l267 269l-5 4z" />
<glyph unicode="+" horiz-adv-x="1292" d="M94 479v203h449v475h211v-475h448v-203h-448v-479h-211v479h-449z" />
<glyph unicode="," horiz-adv-x="563" d="M-125 -258q168 340 246 616l340 23q-160 -352 -361 -621z" />
<glyph unicode="-" horiz-adv-x="698" d="M51 461l45 219h561l-43 -219h-563z" />
<glyph unicode="." horiz-adv-x="563" d="M39 158q0 92 59.5 157.5t151.5 65.5q80 0 130 -52.5t50 -135.5q0 -94 -60.5 -155t-156.5 -61q-78 0 -126 51.5t-48 129.5z" />
<glyph unicode="/" horiz-adv-x="706" d="M-86 -86l754 1573h223l-756 -1573h-221z" />
<glyph unicode="0" horiz-adv-x="1173" d="M84 483q0 172 44 338t124 304.5t209 224.5t287 86q209 0 307 -137.5t98 -348.5q0 -170 -41 -339t-120 -313t-208 -233.5t-288 -89.5q-211 0 -311.5 139.5t-100.5 368.5zM393 473q0 -250 139 -250q76 0 138.5 86t98.5 209t55.5 237.5t19.5 192.5q0 240 -133 240 q-74 0 -137.5 -82t-101.5 -198.5t-58.5 -234.5t-20.5 -200z" />
<glyph unicode="1" horiz-adv-x="1173" d="M317 1239l392 172h256l-269 -1411h-299l211 1118h-4l-276 -121z" />
<glyph unicode="2" horiz-adv-x="1173" d="M-6 0l39 203l303 233q244 199 353.5 323t109.5 242q0 76 -51.5 123t-141.5 47q-166 0 -301 -81l-61 223q197 123 438 123q207 0 322.5 -107.5t115.5 -277.5q0 -104 -36.5 -198.5t-111.5 -181.5t-146.5 -150.5t-182.5 -149.5l-141 -101v-4h506l-47 -266h-967z" />
<glyph unicode="3" horiz-adv-x="1173" d="M16 72l97 245q145 -78 309 -77q127 0 202.5 56t75.5 142q0 188 -288 189h-54l45 239h52q121 0 216 49.5t95 137.5q0 55 -43 88t-131 33q-168 0 -291 -68l-43 233q176 96 397 97q188 0 314.5 -86t126.5 -244q0 -129 -89 -222t-223 -128l-2 -4q111 -25 177.5 -107 t66.5 -205q0 -211 -182 -338t-426 -127q-131 0 -241 28t-161 69z" />
<glyph unicode="4" horiz-adv-x="1173" d="M23 340l38 211l672 860h385l-155 -829h163l-43 -242h-168l-63 -340h-295l66 340h-600zM373 582h295l65 307q10 39 20.5 85t26 102.5t21.5 86.5h-8l-185 -278l-233 -299z" />
<glyph unicode="5" horiz-adv-x="1173" d="M29 59l80 250q113 -70 288 -69q125 0 224.5 63.5t99.5 169.5q0 217 -350 217q-59 0 -174 -8l202 729h758l-55 -266h-496l-67 -219q47 4 61 4q170 0 291 -88q156 -106 156 -312q0 -256 -187.5 -405.5t-466.5 -149.5q-123 0 -222 24.5t-142 59.5z" />
<glyph unicode="6" horiz-adv-x="1173" d="M70 471q0 231 97 431t253 323q236 188 577 207q27 2 56 2t61 -2l-49 -254h-18q-38 0 -99 -7q-184 -16 -313 -107t-186 -224l6 -2q121 109 290 108q156 0 258.5 -109.5t102.5 -285.5q0 -231 -161 -403.5t-404 -172.5q-227 0 -349 138.5t-122 357.5zM375 436 q0 -96 47 -157.5t129 -61.5q104 0 167.5 95.5t63.5 205.5q0 92 -48 144.5t-126 52.5q-131 0 -205 -131q-18 -33 -22 -72q-6 -29 -6 -76z" />
<glyph unicode="7" horiz-adv-x="1173" d="M59 0l766 1139v6h-614l51 266h959l-39 -209l-776 -1202h-347z" />
<glyph unicode="8" horiz-adv-x="1173" d="M39 338q0 141 85 244.5t216 154.5l2 8q-139 106 -139 265q0 190 153.5 308t368.5 118q178 0 298 -91.5t120 -252.5q0 -217 -254 -336v-4q92 -53 142 -137.5t50 -176.5q0 -147 -87 -254.5t-213 -158t-269 -50.5q-219 2 -346 102.5t-127 260.5zM367 381q0 -78 48 -127 t130 -49h4q80 0 142.5 56t62.5 147q0 150 -183 215q-88 -20 -146 -86t-58 -156zM502 1026q0 -119 164 -178q72 25 123 81t51 128q0 66 -41 107.5t-113 41.5q-76 0 -130 -54t-54 -126z" />
<glyph unicode="9" horiz-adv-x="1173" d="M104 -20l37 258q16 -3 49.5 -3.5t83.5 3.5q158 14 277 88q154 94 231 258l-6 4q-100 -102 -268 -102.5t-271.5 105t-103.5 277.5q0 229 168 398.5t404 169.5q227 0 342.5 -136.5t115.5 -357.5q-2 -238 -105.5 -443.5t-254.5 -328.5q-221 -174 -537 -190q-42 -2 -82.5 -2 t-79.5 2zM451 907q0 -84 46 -136t119 -52q123 0 189 92q23 25 31 68q12 41 12 112q0 90 -43 146.5t-127 56.5q-92 0 -159.5 -89t-67.5 -198z" />
<glyph unicode=":" horiz-adv-x="563" d="M39 154q0 90 59.5 154.5t151.5 64.5q78 0 128 -52.5t50 -132.5q0 -92 -61.5 -152.5t-153.5 -60.5q-78 0 -126 50.5t-48 128.5zM172 856q0 88 59.5 153.5t151.5 65.5q78 0 127 -52t49 -132q0 -94 -60.5 -153.5t-152.5 -59.5q-80 0 -127 49t-47 129z" />
<glyph unicode=";" horiz-adv-x="563" d="M-125 -258q164 324 246 616l338 23q-156 -348 -359 -621zM182 856q0 88 59.5 153.5t151.5 65.5q78 0 128 -52t50 -132q0 -94 -61 -153.5t-154 -59.5q-78 0 -126 49t-48 129z" />
<glyph unicode="&#x3c;" horiz-adv-x="1292" d="M113 483v189l1034 483v-229l-780 -346v-5l780 -346v-229z" />
<glyph unicode="=" horiz-adv-x="1292" d="M92 254v203h1108v-203h-1108zM92 705v202h1108v-202h-1108z" />
<glyph unicode="&#x3e;" horiz-adv-x="1292" d="M166 0v227l797 348v5l-797 348v227l1032 -477v-201z" />
<glyph unicode="?" horiz-adv-x="948" d="M186 154q0 90 59.5 153.5t151.5 63.5q78 0 128 -51.5t50 -131.5q0 -92 -60 -152.5t-157 -60.5q-76 0 -124 50.5t-48 128.5zM254 1397q156 92 367 92q160 0 259 -81t99 -214q0 -63 -16.5 -116.5t-60.5 -112t-68 -84.5l-91 -97q-123 -121 -149 -256q-2 -10 -5 -28.5 t-5 -24.5h-303l6 57q27 180 196 361l51 50q34 34 50 52.5l36.5 44t28.5 49t8 44.5q0 102 -125 104q-137 0 -237 -59z" />
<glyph unicode="@" horiz-adv-x="1624" d="M84 459q0 221 100.5 408.5t287.5 303t425 115.5q287 0 471 -177t184 -452q0 -233 -116.5 -375.5t-296.5 -142.5q-78 0 -126 42t-59 124h-6q-104 -166 -280 -166q-104 0 -173 77t-69 208q0 207 141.5 356.5t366.5 149.5q158 0 258 -53l-66 -404q-8 -52 -7 -89q0 -32 5 -52 q12 -45 60 -47h6q74 0 136 93q65 97 65 273q0 221 -136.5 361.5t-380.5 140.5q-260 0 -442 -185.5t-182 -490.5q0 -268 152.5 -418.5t404.5 -150.5q178 0 313 67l39 -122q-168 -78 -395 -78q-285 0 -482.5 187.5t-197.5 496.5zM645 449q0 -133 107 -134q59 0 113.5 67 t70.5 161l33 207q-39 8 -68 8q-106 0 -181 -91t-75 -218z" />
<glyph unicode="A" horiz-adv-x="1341" d="M-61 0l712 1462h402l172 -1462h-330l-29 381h-422l-170 -381h-335zM537 618h317l-31 316q-4 74 -20 287h-4q-6 -18 -50 -128t-67 -159z" />
<glyph unicode="B" horiz-adv-x="1261" d="M43 14l270 1426q166 35 383 35q231 0 363 -76q76 -39 123 -109.5t47 -161.5q0 -129 -83 -219t-212 -127v-8q106 -31 167.5 -115t61.5 -202q0 -215 -198 -348q-174 -119 -553 -119q-244 -1 -369 24zM391 240q37 -6 119 -7q139 0 231.5 58.5t92.5 173.5q0 188 -267 188h-98 zM516 881h105q131 0 209.5 53t78.5 147q0 150 -204 150q-76 0 -123 -8z" />
<glyph unicode="C" horiz-adv-x="1263" d="M106 600q0 238 98.5 427.5t270.5 303.5q225 154 537 154q211 0 321 -62l-88 -254q-98 49 -264 50q-197 0 -334 -113q-203 -170 -203 -471q0 -178 100.5 -283.5t289.5 -105.5q166 0 278 47l25 -252q-139 -63 -383 -64q-293 0 -470.5 168t-177.5 455z" />
<glyph unicode="D" horiz-adv-x="1476" d="M43 16l272 1426q188 33 406 33q348 0 532 -160q193 -158 193 -457q0 -209 -80 -386t-219 -288q-242 -195 -703 -194q-239 -1 -401 26zM403 250q57 -6 138 -6q268 0 413 168q154 172 154 444q0 176 -98.5 272.5t-288.5 96.5q-78 0 -133 -11z" />
<glyph unicode="E" horiz-adv-x="1122" d="M41 0l278 1462h867l-53 -266h-551l-62 -313h524l-53 -262h-518l-67 -355h583l-49 -266h-899z" />
<glyph unicode="F" horiz-adv-x="1107" d="M41 0l278 1462h859l-54 -266h-542l-68 -342h510l-51 -264h-508l-111 -590h-313z" />
<glyph unicode="G" horiz-adv-x="1460" d="M104 598q0 201 78 375t219 293q256 213 648 213q256 0 387 -66l-95 -262q-125 57 -309 57q-223 0 -373 -116q-96 -76 -154.5 -201t-58.5 -273q0 -180 100.5 -274t276.5 -94q96 0 160 26l59 308h-227l49 250h533l-148 -766q-248 -82 -475 -82q-309 0 -485 159 q-185 160 -185 453z" />
<glyph unicode="H" horiz-adv-x="1443" d="M41 0l278 1462h312l-109 -569h531l108 569h316l-279 -1462h-313l116 614h-532l-115 -614h-313z" />
<glyph unicode="I" horiz-adv-x="593" d="M35 0l278 1462h312l-277 -1462h-313z" />
<glyph unicode="J" horiz-adv-x="864" d="M-78 10l62 269q78 -27 172 -27q109 0 172 64.5t94 220.5l176 925h311l-184 -964q-53 -281 -184 -402t-377 -121q-158 0 -242 35z" />
<glyph unicode="K" horiz-adv-x="1280" d="M41 0l278 1462h308l-123 -653h6q12 20 131 168l406 485h391l-594 -631l340 -831h-340l-244 637l-158 -150l-92 -487h-309z" />
<glyph unicode="L" horiz-adv-x="1056" d="M41 0l278 1462h312l-225 -1188h563l-54 -274h-874z" />
<glyph unicode="M" horiz-adv-x="1781" d="M6 0l367 1462h420l45 -555q27 -395 26 -467h8q66 188 199 467l270 555h424l-198 -1462h-303l88 604q49 311 98 570h-6q-137 -317 -252 -551l-299 -598h-244l-51 591q-18 213 -33 558h-6l-39 -188l-44 -217q-19 -95 -38 -165l-145 -604h-287z" />
<glyph unicode="N" horiz-adv-x="1443" d="M41 0l278 1462h367l193 -557q78 -250 133 -499h6q8 205 67 526l101 530h293l-279 -1462h-323l-203 584q-94 285 -144 510h-8q-20 -199 -92 -582l-98 -512h-291z" />
<glyph unicode="O" horiz-adv-x="1529" d="M104 586q0 201 71 386t198 306q219 209 534 209q283 0 436.5 -169t153.5 -441q0 -201 -67.5 -384.5t-192.5 -306.5q-217 -211 -541 -211q-274 0 -433 173.5t-159 437.5zM436 598q0 -164 77 -262t230 -98q137 0 244 104q84 84 131 236.5t47 289.5q0 156 -68.5 257.5 t-226.5 101.5q-145 0 -252 -111q-84 -82 -133 -231.5t-49 -286.5z" />
<glyph unicode="P" horiz-adv-x="1212" d="M41 0l272 1438q147 37 381 37q252 0 389 -97q158 -106 158 -313q0 -258 -197 -410q-176 -137 -469 -137q-25 0 -47 1t-45.5 5t-36.5 4l-98 -528h-307zM496 784q53 -12 120 -12q137 0 224.5 78t87.5 190q0 184 -223 185q-76 0 -127 -8z" />
<glyph unicode="Q" horiz-adv-x="1529" d="M104 590q0 190 67 369.5t187 304.5q223 223 551 223q283 0 435.5 -175t152.5 -435q0 -188 -64.5 -370.5t-179.5 -299.5q-100 -96 -215 -141v-7q162 -45 334 -73l-108 -248q-307 88 -547 205q-86 37 -105 37q-221 16 -364.5 179t-143.5 431zM436 590q0 -162 77 -259.5 t226 -97.5q135 0 246 107q80 84 130 239.5t50 294.5q0 68 -14 126.5t-45 111.5t-91.5 84t-142.5 31q-143 0 -251 -109q-84 -84 -134.5 -237.5t-50.5 -290.5z" />
<glyph unicode="R" horiz-adv-x="1263" d="M43 0l274 1438q152 37 392 37q252 0 383 -86q164 -94 163 -283q0 -158 -91 -263.5t-242 -152.5v-6q119 -53 139 -266q4 -45 16.5 -158t21.5 -172t19 -88h-321q-23 63 -41 346q-10 129 -57.5 180.5t-143.5 51.5h-94l-109 -578h-309zM508 811h129q127 0 210 69.5t83 176.5 q0 86 -62.5 129t-162.5 43q-78 0 -121 -10z" />
<glyph unicode="S" horiz-adv-x="1105" d="M0 80l104 258q156 -92 345 -92q98 0 165.5 44t67.5 124q0 61 -46 107t-153 102q-301 162 -301 387q0 217 164 346t412 129q207 0 344 -72l-96 -260q-121 66 -273 64q-106 0 -164.5 -45.5t-58.5 -108.5q0 -57 51 -101t162 -106q291 -152 291 -387.5t-169 -364.5t-425 -129 q-279 3 -420 105z" />
<glyph unicode="T" horiz-adv-x="1142" d="M145 1190l56 272h1087l-53 -272h-391l-226 -1190h-313l227 1190h-387z" />
<glyph unicode="U" horiz-adv-x="1421" d="M137 442q0 90 21 205l155 815h312l-158 -841q-18 -80 -18 -172.5t55 -150.5t158 -58q127 0 205.5 90t117.5 288l162 844h311l-158 -831q-66 -338 -224 -497t-453 -159h-8q-224 0 -350 118q-128 120 -128 349z" />
<glyph unicode="V" horiz-adv-x="1325" d="M174 1462h324l65 -696q20 -225 35 -449h4q72 188 195 451l327 694h351l-756 -1462h-363z" />
<glyph unicode="W" horiz-adv-x="1873" d="M201 1462h315v-651q0 -211 -8 -473h4l174 469l260 655h344l-4 -653q0 -178 -14 -463h4l162 465l254 651h327l-645 -1462h-338l-12 602v53q0 213 14 430h-4q-133 -383 -178 -493l-252 -592h-348z" />
<glyph unicode="X" horiz-adv-x="1234" d="M-88 0l547 748l-256 714h329l89 -278q53 -182 67 -244h6l140 248l170 274h372l-534 -717l280 -745h-331l-101 295q-70 217 -78 250h-4l-147 -260l-174 -285h-375z" />
<glyph unicode="Y" horiz-adv-x="1236" d="M154 1462h333l95 -370q41 -174 57 -265h4l150 267l219 368h372l-630 -858l-113 -604h-313l112 598z" />
<glyph unicode="Z" horiz-adv-x="1200" d="M-53 0l30 180l850 1008v6h-596l56 268h1013l-36 -192l-834 -994v-8h655l-51 -268h-1087z" />
<glyph unicode="[" horiz-adv-x="679" d="M0 -244l330 1733h436l-35 -180h-201l-264 -1372h203l-33 -181h-436z" />
<glyph unicode="\" horiz-adv-x="731" d="M113 1487h215l352 -1573h-217z" />
<glyph unicode="]" horiz-adv-x="679" d="M-57 -244l34 181h203l260 1372h-200l34 180h437l-330 -1733h-438z" />
<glyph unicode="^" horiz-adv-x="1292" d="M78 385l452 1026h199l453 -1026h-236l-315 772h-6l-316 -772h-231z" />
<glyph unicode="_" horiz-adv-x="1085" d="M-139 -270l22 106h1086l-23 -106h-1085z" />
<glyph unicode="`" d="M258 1520h301l164 -330h-223z" />
<glyph unicode="a" horiz-adv-x="1202" d="M53 346q0 137 47 267t137.5 235.5t240 171t336.5 65.5t351 -51l-110 -557q-44 -235 -44 -429q0 -24 1 -48h-287l6 112q4 75 6 99h-4q-129 -236 -358 -236q-143 0 -232.5 102.5t-89.5 268.5zM381 403q0 -80 31.5 -128t95.5 -48q78 0 150.5 92.5t107.5 274.5l49 246 q-49 8 -86 8q-143 0 -245.5 -142.5t-102.5 -302.5z" />
<glyph unicode="b" horiz-adv-x="1214" d="M78 274q0 78 24 193l215 1075h314l-125 -608h4q129 152 328 151q156 0 238.5 -108.5t82.5 -261.5q0 -133 -44 -261t-127 -236.5t-222 -175.5t-309 -67q-188 0 -283.5 78t-95.5 221zM401 330q4 -117 119 -117q129 0 220 142.5t91 293.5q0 82 -34.5 132t-104.5 50 q-86 0 -159.5 -81.5t-100.5 -214.5l-20 -89q-11 -60 -11 -102v-14z" />
<glyph unicode="c" horiz-adv-x="944" d="M63 412q0 287 197 480t496 193q121 0 217 -34l-78 -242q-63 27 -143 27q-162 0 -261.5 -116t-99.5 -274q0 -104 58.5 -161.5t150.5 -57.5q100 0 209 43l2 -235q-117 -57 -301 -58q-199 0 -323 117t-124 318z" />
<glyph unicode="d" horiz-adv-x="1214" d="M57 377q0 287 187.5 498.5t480.5 211.5q78 0 145 -26l95 481h309l-215 -1130q-43 -223 -49 -412h-287l14 172h-4q-129 -197 -348 -197q-141 0 -234.5 108t-93.5 294zM383 428q0 -96 39 -148.5t106 -52.5q74 0 144.5 79t97.5 222l57 283q-43 37 -125 37q-135 0 -227 -130 t-92 -290z" />
<glyph unicode="e" horiz-adv-x="1087" d="M61 426q0 164 73 313.5t217.5 247.5t328.5 98q162 0 265.5 -87t103.5 -232q0 -357 -634 -357q-28 0 -57 1q4 -68 35 -109q63 -82 205 -82q158 0 297 68l20 -226q-166 -86 -397 -86q-223 0 -340 119t-117 332zM389 639h25q170 0 253 27q89 29 89 102q0 39 -32 64.5 t-83 25.5q-100 0 -167 -67.5t-85 -151.5z" />
<glyph unicode="f" horiz-adv-x="712" d="M66 0l155 825h-139l47 238h137l10 55q39 231 179 348q117 98 301 99q109 0 164 -25l-54 -248q-41 16 -100 17q-74 0 -120 -54.5t-62 -138.5l-11 -53h211l-47 -238h-207l-155 -825h-309z" />
<glyph unicode="g" horiz-adv-x="1210" d="M25 -387l73 240q98 -59 277 -60q256 0 317 283l19 92h-6q-119 -160 -304 -160q-154 0 -246 109.5t-94 271.5q0 131 46.5 255t134.5 223.5t226 158.5t304 59q211 0 393 -73l-159 -875q-66 -344 -224 -471q-152 -121 -411 -121q-227 0 -346 68zM391 436q0 -84 37 -135 t107 -51q78 0 145.5 81t91.5 212l55 284q-43 18 -112 19q-137 0 -230.5 -127t-93.5 -283z" />
<glyph unicode="h" horiz-adv-x="1220" d="M29 0l293 1542h313l-121 -616h4q145 160 340 159q123 0 194.5 -74.5t71.5 -211.5q0 -82 -18 -191l-117 -608h-311l110 582q12 61 13 131q0 121 -107 121q-84 0 -157.5 -95.5t-102.5 -253.5l-94 -485h-311z" />
<glyph unicode="i" horiz-adv-x="573" d="M29 0l200 1061h314l-203 -1061h-311zM274 1346q0 78 53.5 128t127.5 50q68 0 112.5 -42t44.5 -112q0 -80 -53 -128t-131 -48h-4q-66 0 -108 42t-42 110z" />
<glyph unicode="j" horiz-adv-x="595" d="M-207 -436l35 233q43 -4 70 -4q61 0 102 48t66 182l196 1038h311l-192 -1026q-49 -262 -148.5 -376t-291.5 -114q-85 1 -148 19zM295 1346q0 78 53 128t127 50q70 0 113 -42t43 -112q0 -80 -52.5 -128t-134.5 -48q-63 0 -106 42t-43 110z" />
<glyph unicode="k" horiz-adv-x="1148" d="M29 0l293 1542h309l-174 -924h4l94 119l272 324h387l-452 -438l295 -623h-348l-189 455l-117 -115l-65 -340h-309z" />
<glyph unicode="l" horiz-adv-x="573" d="M29 0l295 1542h313l-297 -1542h-311z" />
<glyph unicode="m" horiz-adv-x="1802" d="M29 0l131 717q31 176 55 344h266l-18 -170h4q141 197 364 196q117 0 181.5 -60t70.5 -142q141 203 367 202q121 0 189.5 -75.5t68.5 -210.5q0 -74 -16 -183l-115 -618h-305l106 582q16 72 17 129q0 125 -105 125q-82 0 -150.5 -97.5t-99.5 -257.5l-90 -481h-301l111 584 q12 88 12 121q0 131 -98 131q-82 0 -156 -100.5t-100 -258.5l-88 -477h-301z" />
<glyph unicode="n" horiz-adv-x="1220" d="M27 0l133 717q16 74 59 344h277l-21 -176h4q145 201 373 200q129 0 200.5 -75.5t71.5 -214.5q0 -74 -16 -179l-119 -616h-313l112 588q10 61 11 117q0 129 -107 129q-80 0 -156.5 -97.5t-107.5 -265.5l-90 -471h-311z" />
<glyph unicode="o" horiz-adv-x="1212" d="M66 418q0 279 178 474t454 195q207 0 329 -124.5t122 -313.5q0 -291 -179 -482.5t-456 -191.5q-201 0 -324.5 122t-123.5 321zM389 422q0 -96 44 -151.5t126 -55.5q119 0 192.5 140.5t73.5 291.5q0 82 -41 141.5t-126 59.5t-149.5 -74t-92 -169t-27.5 -183z" />
<glyph unicode="p" horiz-adv-x="1218" d="M-59 -430l206 1081q29 150 62 420h278l-18 -164h4q135 178 342 178q164 0 253 -114.5t89 -288.5q0 -287 -174 -497t-442 -210q-121 0 -195 45h-8l-84 -450h-313zM389 262q55 -49 143 -49q121 0 209 141.5t88 302.5q0 72 -33.5 123t-103.5 51q-88 0 -161.5 -92 t-102.5 -245z" />
<glyph unicode="q" horiz-adv-x="1214" d="M57 377q0 131 45 255t131 227.5t228.5 164.5t318.5 61q160 0 391 -63l-270 -1452h-313l129 584h-4q-59 -86 -146.5 -132.5t-181.5 -46.5q-147 0 -237.5 111t-90.5 291zM383 418q0 -92 36 -141.5t95 -49.5q86 0 160 85t98 225l55 288q-47 20 -122 21q-135 0 -228.5 -135 t-93.5 -293z" />
<glyph unicode="r" horiz-adv-x="802" d="M29 0l118 631q8 45 56 430h270q0 -6 -7 -89l-11 -128h6q129 242 338 241q39 0 59 -2l-61 -303q-14 2 -49 2q-262 0 -334 -387l-74 -395h-311z" />
<glyph unicode="s" horiz-adv-x="901" d="M-8 61l76 220q147 -74 274 -74q66 0 100.5 26.5t34.5 67.5q0 39 -28.5 70.5t-102.5 66.5q-225 113 -225 283q0 164 131 265t336 101q174 0 274 -53l-76 -223q-102 47 -211 47q-63 0 -101 -25.5t-38 -68.5q0 -59 129 -121q238 -121 238 -291q0 -178 -135.5 -277.5 t-352.5 -97.5q-214 6 -323 84z" />
<glyph unicode="t" horiz-adv-x="753" d="M86 825l45 238h135l39 201l322 86l-54 -287h228l-47 -238h-226l-71 -360q-18 -82 -19 -135q0 -88 92 -88q57 0 84 4l-34 -246q-66 -25 -185 -25q-137 0 -207.5 63.5t-70.5 168.5q0 84 24 196l80 422h-135z" />
<glyph unicode="u" horiz-adv-x="1214" d="M88 274q0 88 23 195l112 592h314l-109 -567q-16 -88 -16 -142q0 -123 106 -123q84 0 155.5 92.5t100.5 247.5l94 492h312l-136 -715q-33 -166 -57 -346h-274l18 172l-4 2q-155 -199 -365 -199q-131 0 -202.5 74.5t-71.5 224.5z" />
<glyph unicode="v" horiz-adv-x="1110" d="M100 1061h322l49 -463q6 -72 16.5 -165t12.5 -124h6q45 121 119 285l213 467h350l-590 -1061h-319z" />
<glyph unicode="w" horiz-adv-x="1589" d="M111 1061h317l2 -449q0 -143 -10 -338h4q25 80 129 328l209 459h256l26 -445q8 -236 3 -342h6q37 125 114 347l183 440h315l-516 -1061h-293l-31 369q-8 113 -8 342h-6q-102 -279 -125 -326l-180 -385h-295z" />
<glyph unicode="x" horiz-adv-x="1079" d="M-104 0l460 549l-250 512h343l63 -158l68 -178h6l112 170l119 166h357l-447 -516l248 -545h-344l-66 170q-33 82 -67 192h-6q-8 -10 -45 -72l-62 -106l-129 -184h-360z" />
<glyph unicode="y" horiz-adv-x="1077" d="M-53 -221q104 33 178 82q115 78 174 184q12 23 4 53l-207 963h328l63 -461l35 -254h6l93 246l194 469h330l-381 -764q-211 -418 -408 -606q-82 -78 -179 -124t-163 -59z" />
<glyph unicode="z" horiz-adv-x="976" d="M-57 0l34 188l347 369q127 135 258 246l2 4h-453l49 254h830l-37 -197l-336 -360q-152 -156 -260 -246l-2 -4h499l-49 -254h-882z" />
<glyph unicode="{" horiz-adv-x="679" d="M68 541l30 168q98 4 138 44t53 103q10 53 21.5 170t19.5 170q57 293 372 293h82l-34 -182h-39q-127 0 -160 -154q-8 -41 -16.5 -133t-18.5 -141q-16 -119 -69.5 -176.5t-153.5 -77.5v-4q143 -33 143 -160q0 -70 -45 -219q-45 -160 -45 -203q0 -100 103 -100h38l-30 -183 h-66q-285 0 -285 232q0 59 50 239q51 168 51 207q0 105 -139 107z" />
<glyph unicode="|" horiz-adv-x="520" d="M188 -543v2171h213v-2171h-213z" />
<glyph unicode="}" horiz-adv-x="679" d="M-74 -244l35 183h39q129 0 158 157q10 41 18 132t17 139q18 119 71 177t154 77v4q-143 33 -144 161q0 47 48 220q45 158 45 200q0 100 -105 101h-39l33 182h66q285 0 284 -229q0 -88 -51 -242q-51 -156 -51 -207q0 -102 139 -106l-31 -166q-100 -4 -139 -44t-51 -104 q-12 -55 -22.5 -171t-18.5 -171q-57 -293 -375 -293h-80z" />
<glyph unicode="~" horiz-adv-x="1292" d="M104 420q-2 205 79 303t223 98q123 0 299 -102q152 -88 204 -88q82 0 90 176h205q1 -24 1 -47q0 -179 -71 -263q-81 -95 -219 -96q-127 0 -315 115q-139 78 -190 78q-88 0 -99 -174h-207z" />
<glyph unicode="&#xa1;" horiz-adv-x="583" d="M-59 -414l237 981h242l-141 -981h-338zM158 860q0 92 61.5 152.5t153.5 60.5q78 0 126 -50t48 -128q0 -90 -59.5 -153.5t-151.5 -63.5q-78 0 -128 51t-50 131z" />
<glyph unicode="&#xa2;" horiz-adv-x="1173" d="M182 618q0 248 157 422t390 215l39 205h205l-37 -196q117 -4 186 -41l-90 -238q-80 37 -186 37q-137 0 -233.5 -102.5t-96.5 -260.5q0 -111 66.5 -172t171.5 -61q90 0 196 41l15 -234q-100 -47 -238 -51l-37 -209h-207l43 215q-164 29 -258 146q-86 110 -86 284z" />
<glyph unicode="&#xa3;" horiz-adv-x="1173" d="M31 0l30 176q84 35 161 112t110 161q21 47 21 112q0 11 -1 23h-205l43 223h160q4 139 27 237q49 182 180 287t334 105q152 0 233 -56l-82 -237q-63 35 -163 35q-178 0 -220 -193q-11 -62 -11 -135q0 -21 1 -43h297l-43 -223h-262q-6 -66 -31 -127q-39 -121 -139 -189v-4 h567l-41 -264h-966z" />
<glyph unicode="&#xa4;" horiz-adv-x="1173" d="M49 1149l146 149l165 -182q98 78 250 78q154 0 246 -78l168 182l143 -149l-188 -172q72 -109 72 -248q0 -152 -78 -260l186 -176l-141 -146l-162 189q-98 -84 -249.5 -84t-246.5 82l-157 -187l-144 146l185 174q-80 106 -80 256q0 147 76 254zM395 725 q0 -123 65.5 -191.5t147.5 -68.5t146.5 68.5t64.5 193.5q0 109 -61.5 181.5t-153.5 72.5q-88 0 -148.5 -71.5t-60.5 -184.5z" />
<glyph unicode="&#xa5;" horiz-adv-x="1173" d="M66 348l30 154h324l24 139h-325l31 154h249l-229 616h326l79 -348q39 -174 50 -236h6q96 176 135 238l215 346h346l-479 -616h248l-31 -154h-330l-22 -139h329l-30 -154h-328l-68 -348h-290l65 348h-325z" />
<glyph unicode="&#xa6;" horiz-adv-x="520" d="M188 377h213v-760h-213v760zM188 702v760h213v-760h-213z" />
<glyph unicode="&#xa7;" horiz-adv-x="1206" d="M76 -61l84 196q141 -98 317 -98q94 0 149.5 33.5t55.5 87.5q0 47 -46 84t-159 80q-158 61 -255 138t-97 191q0 102 65.5 186.5t176.5 135.5q-55 66 -56 147q0 174 149.5 270.5t350.5 96.5q209 0 338 -78l-76 -190q-127 68 -285 67q-88 0 -142 -33.5t-54 -89.5 q0 -43 46 -74.5t159 -72.5q158 -61 244.5 -137t86.5 -199q0 -195 -210 -318q61 -61 61 -155q0 -184 -148.5 -279.5t-351.5 -95.5q-256 1 -403 107zM393 727q0 -100 160 -162q168 -68 213 -96q94 57 94 139q0 94 -123 156l-111 48q-93 40 -126 56q-43 -16 -75 -55t-32 -86z " />
<glyph unicode="&#xa8;" d="M209 1346q0 72 47 117.5t117 45.5q63 0 102 -42t39 -101q0 -74 -46 -119t-116 -45q-59 0 -101 39t-42 105zM653 1346q0 72 48.5 117.5t117.5 45.5q61 0 101.5 -42t40.5 -101q0 -74 -47.5 -119t-116.5 -45q-61 0 -102.5 39t-41.5 105z" />
<glyph unicode="&#xa9;" horiz-adv-x="1460" d="M113 737.5q0 278.5 194.5 474t472.5 195.5q274 0 467 -195.5t193 -474t-193.5 -475t-469 -196.5t-470 196.5t-194.5 475zM254 734.5q0 -230.5 151.5 -389.5t370.5 -159h6q214 0 364 159q153 161 152.5 391.5t-153 390t-371.5 159.5t-369.5 -160.5t-150.5 -391zM408 725 q0 180 124.5 291.5t296.5 111.5q78 0 149 -18t93 -41l-33 -119q-82 51 -209 51t-196.5 -71.5t-69.5 -198.5q0 -119 73 -194.5t191 -75.5q139 0 222 53l32 -113q-106 -70 -272 -69q-186 0 -293.5 110.5t-107.5 282.5z" />
<glyph unicode="&#xaa;" horiz-adv-x="868" d="M133 823q0 190 126 324.5t366 134.5q147 0 268 -47l-76 -436q-16 -96 -16 -217h-209q0 74 2 110h-2q-90 -125 -240 -125q-96 0 -157.5 67.5t-61.5 188.5zM365 866q0 -123 98 -123q47 0 88 41t59 99l37 225q-35 12 -76 12q-90 0 -148 -79t-58 -175z" />
<glyph unicode="&#xab;" horiz-adv-x="999" d="M47 547l293 416h240l-314 -420l209 -408h-217zM467 547l293 416h239l-313 -420l209 -408h-217z" />
<glyph unicode="&#xac;" horiz-adv-x="1292" d="M74 715v200h1110v-686h-211v486h-899z" />
<glyph unicode="&#xad;" horiz-adv-x="698" d="M51 461l45 219h561l-43 -219h-563z" />
<glyph unicode="&#xae;" horiz-adv-x="886" d="M178 1114q0 154 114 263.5t274.5 109.5t271 -108.5t110.5 -265.5t-110.5 -266.5t-272.5 -109.5t-274.5 109.5t-112.5 267.5zM293 1111q0 -118 78 -199t194 -81h6q111 0 187 80q78 82 78 203q0 117 -78 199t-195 82t-193.5 -83t-76.5 -201zM410 938v340q72 14 153 14 q96 0 137 -28q37 -23 37 -74q0 -57 -78 -78v-4q55 -16 70 -88q16 -68 25 -82h-117q-10 10 -27 74q-8 49 -59 49h-35v-123h-106zM520 1133h31q66 0 65 41q0 45 -61 45q-6 0 -17.5 -1t-17.5 -1v-84z" />
<glyph unicode="&#xaf;" d="M299 1268l35 170h534l-34 -170h-535z" />
<glyph unicode="&#xb0;" horiz-adv-x="772" d="M176 1165q0 132 98 226q100 96 240 96q141 0 230.5 -89t89.5 -218q0 -137 -101.5 -232.5t-236.5 -95.5q-141 0 -230.5 87.5t-89.5 225.5zM350 1161q0 -70 43 -113.5t110.5 -43.5t111.5 51t44 123q0 66 -38.5 111.5t-112.5 45.5q-66 0 -112 -53t-46 -121z" />
<glyph unicode="&#xb1;" horiz-adv-x="1292" d="M76 0v203h1110v-203h-1110zM76 680v201h450v376h209v-376h451v-201h-451v-383h-209v383h-450z" />
<glyph unicode="&#xb2;" horiz-adv-x="739" d="M98 881l23 125l164 124q158 115 231.5 190t73.5 138q0 88 -109 88q-98 0 -192 -63l-37 157q135 98 315 99q125 0 208 -59.5t83 -172.5q0 -82 -53 -159.5t-103.5 -117.5t-154.5 -116l-60 -41v-4h306l-35 -188h-660z" />
<glyph unicode="&#xb3;" horiz-adv-x="727" d="M106 942l76 164q88 -63 207 -64q70 0 114 30t44 79t-50.5 76.5t-131.5 27.5h-39l30 148h35q76 0 134.5 24.5t58.5 71.5q0 68 -103 68q-109 0 -198 -60l-23 154q121 78 299 78q121 0 205 -54.5t84 -140.5q0 -78 -58.5 -130t-152.5 -77v-4q72 -16 122 -63t50 -121 q0 -131 -115.5 -205t-287.5 -74q-196 0 -300 72z" />
<glyph unicode="&#xb4;" d="M389 1190l203 330h309l-283 -330h-229z" />
<glyph unicode="&#xb5;" horiz-adv-x="1212" d="M-23 -430q-6 25 -6 68q0 107 41 323l207 1100h313l-112 -596q-11 -53 -11 -94q0 -142 128 -142q55 0 104 49.5t82 116.5q23 41 29 80l112 586h314l-136 -713q-7 -33 -6 -57q0 -27 8 -42q16 -28 64 -30l-59 -225q-41 -18 -105 -19q-172 0 -192 199h-7q-106 -188 -268 -188 q-109 0 -155 63l-19 -94q-47 -279 -45 -385h-281z" />
<glyph unicode="&#xb6;" horiz-adv-x="1167" d="M154 928q0 254 193.5 394t520.5 140q225 0 314 -20l-299 -1553h-203l264 1381h-156l-266 -1381l-200 -2l129 676q-6 2 -27 8q-119 35 -194.5 127.5t-75.5 229.5z" />
<glyph unicode="&#xb7;" horiz-adv-x="563" d="M86 541q0 90 60.5 155.5t150.5 65.5q80 0 130 -52.5t50 -134.5q0 -96 -60.5 -155.5t-156.5 -59.5q-78 0 -126 51.5t-48 129.5z" />
<glyph unicode="&#xb8;" d="M51 -403l55 122q57 -35 115 -34q80 0 80 61q0 68 -156 78l119 184h172l-74 -104q59 -14 96.5 -52t37.5 -90q0 -109 -83 -160t-192 -50.5t-170 45.5z" />
<glyph unicode="&#xb9;" horiz-adv-x="593" d="M223 1626l264 103h222l-162 -848h-254l125 641h-6l-168 -70z" />
<glyph unicode="&#xba;" horiz-adv-x="829" d="M117 864q0 186 118.5 302t301.5 116q145 0 234 -82t89 -219q0 -186 -119.5 -300t-306.5 -114q-139 0 -228 84t-89 213zM352 860q0 -59 30 -96t79 -37q72 0 118 83t46 183q0 129 -109 129q-74 0 -119 -84t-45 -178z" />
<glyph unicode="&#xbb;" horiz-adv-x="997" d="M10 135l314 420l-209 408h217l211 -416l-293 -412h-240zM430 135l313 420l-208 408h217l211 -416l-295 -412h-238z" />
<glyph unicode="&#xbc;" horiz-adv-x="1792" d="M215 1319l264 104h219l-161 -845h-252l121 641h-3l-170 -70zM262 -25l1057 1461h194l-1054 -1461h-197zM881 195l28 139l461 522h293l-94 -500h114l-30 -161h-113l-41 -195h-233l37 195h-422zM1143 358l4 -2h188l31 160q2 12 39 162h-6q-76 -106 -107 -143z" />
<glyph unicode="&#xbd;" horiz-adv-x="1792" d="M201 1319l264 104h219l-162 -845h-254l123 641h-2l-170 -70zM219 -25l1067 1461h184l-1064 -1461h-187zM946 0l25 123l159 127q164 121 236 191.5t72 136.5q0 86 -109 86q-96 0 -192 -62l-37 158q135 98 317 98q125 0 206 -60.5t81 -172.5q0 -59 -23.5 -114.5t-77 -107 t-94.5 -84l-114 -86.5l-60 -43v-4h301l-34 -186h-656z" />
<glyph unicode="&#xbe;" horiz-adv-x="1792" d="M66 639l75 164q86 -66 207 -66q70 0 114 31t44 78q0 51 -50 77.5t-132 26.5h-39l30 148h35q76 0 134.5 25.5t58.5 72.5q0 68 -103 68q-109 0 -198 -62l-23 154q119 80 299 80q121 0 205 -54.5t84 -142.5q0 -78 -57.5 -130t-151.5 -75l-4 -6q72 -14 123 -62t51 -122 q0 -129 -116.5 -203t-286.5 -74q-195 0 -299 72zM330 -25l1054 1461h197l-1059 -1461h-192zM905 195l27 139l463 522h293l-95 -500h113l-33 -161h-112l-37 -195h-234l37 195h-422zM1165 358l4 -2h187l30 160l24 92q15 59 17 70h-6q-76 -106 -106 -143z" />
<glyph unicode="&#xbf;" horiz-adv-x="948" d="M-25 -143q0 111 58.5 199.5t177.5 209.5q121 121 149 254l11 55h305q-4 -39 -8 -57q-25 -172 -195 -362l-50 -51q-36 -36 -50 -53l-36 -45q-22 -28 -31 -49t-9 -42q0 -102 129 -104q141 0 236 59l40 -219q-150 -92 -366 -92q-158 0 -259.5 82t-101.5 215zM383 860 q0 92 60.5 152.5t156.5 60.5q76 0 123 -50t47 -128q0 -90 -59.5 -153.5t-151.5 -63.5q-78 0 -127 51t-49 131z" />
<glyph unicode="&#xc0;" horiz-adv-x="1341" d="M-61 0l712 1462h402l172 -1462h-330l-29 381h-422l-170 -381h-335zM485 1817h344l168 -271h-260zM537 618h317l-31 316q-4 74 -20 287h-4q-6 -18 -50 -128t-67 -159z" />
<glyph unicode="&#xc1;" horiz-adv-x="1341" d="M-61 0l712 1462h402l172 -1462h-330l-29 381h-422l-170 -381h-335zM537 618h317l-31 316q-4 74 -20 287h-4q-6 -18 -50 -128t-67 -159zM700 1542l205 273h348l-286 -273h-267z" />
<glyph unicode="&#xc2;" horiz-adv-x="1341" d="M-63 0l714 1462h402l170 -1462h-328l-31 381h-422l-172 -381h-333zM518 1542l270 273h236l174 -273h-219l-86 131h-4l-129 -131h-242zM537 618h315l-29 316q-4 43 -11 146.5t-9 140.5h-4l-57 -141q-40 -101 -60 -146z" />
<glyph unicode="&#xc3;" horiz-adv-x="1341" d="M-61 0l712 1462h402l170 -1462h-326l-31 381h-422l-170 -381h-335zM537 618h317l-31 316q-4 74 -20 287h-4q-6 -18 -50 -128t-67 -159zM543 1548q20 135 77.5 204t137.5 69q70 0 137 -43q59 -41 88 -41q49 0 74 94h149q-43 -268 -217 -268q-74 0 -137 41q-63 39 -88 38 q-45 0 -68 -94h-153z" />
<glyph unicode="&#xc4;" horiz-adv-x="1341" d="M-61 0l712 1462h404l170 -1462h-328l-31 381h-422l-170 -381h-335zM496 1683q0 68 45 113t112 45q61 0 100.5 -40t39.5 -99q0 -70 -47.5 -114t-110.5 -44q-57 0 -98 39t-41 100zM537 618h317l-29 316q-2 20 -10 127l-12 160h-4q-6 -18 -50 -128t-67 -159zM944 1683 q0 68 46 113t112 45q61 0 100 -40t39 -99q0 -70 -46 -114t-112 -44q-57 0 -98 39t-41 100z" />
<glyph unicode="&#xc5;" horiz-adv-x="1341" d="M-61 0l712 1462h402l170 -1462h-328l-29 381h-422l-170 -381h-335zM537 618h317l-31 316q-4 74 -20 287h-4q-6 -18 -50 -128t-67 -159zM637 1707q0 99 73 160q75 62 193 62q102 0 168 -52t66 -144q-2 -102 -78 -161t-191 -59q-96 0 -162 53q-69 53 -69 141zM791 1712 q0 -41 23.5 -66.5t64.5 -25.5q47 0 75.5 29.5t28.5 73.5t-24.5 72t-67.5 28q-47 0 -73.5 -31t-26.5 -80z" />
<glyph unicode="&#xc6;" horiz-adv-x="1832" d="M-104 0l897 1462h1050l-49 -266h-557l-27 -319h529l-49 -263h-490l-26 -348h552l-51 -266h-819l29 401h-420l-236 -401h-333zM612 659h287l31 359q4 74 16 213h-8q-78 -154 -115 -215z" />
<glyph unicode="&#xc7;" horiz-adv-x="1267" d="M106 600q0 238 98.5 427.5t270.5 303.5q227 154 539 154q215 0 319 -62l-84 -254q-106 49 -266 50q-197 0 -334 -113q-205 -166 -205 -471q0 -178 101.5 -283.5t290.5 -105.5q154 0 278 53l25 -252q-150 -68 -334 -70l-51 -73q57 -12 93 -51t36 -95q0 -100 -83 -149 t-190 -49q-111 0 -170 45l54 114q51 -33 116 -32q80 0 80 59q0 68 -155 78l108 162q-254 27 -395.5 193.5t-141.5 420.5z" />
<glyph unicode="&#xc8;" horiz-adv-x="1122" d="M41 0l278 1462h867l-53 -266h-551l-62 -313h524l-53 -262h-518l-67 -355h583l-49 -266h-899zM424 1817h340l170 -271h-260z" />
<glyph unicode="&#xc9;" horiz-adv-x="1122" d="M41 0l278 1462h867l-53 -266h-551l-62 -313h524l-53 -262h-518l-67 -355h583l-51 -266h-897zM602 1542l203 273h348l-287 -273h-264z" />
<glyph unicode="&#xca;" horiz-adv-x="1122" d="M41 0l278 1462h867l-53 -266h-551l-62 -313h524l-53 -262h-518l-67 -355h583l-49 -266h-899zM424 1542l268 273h238l172 -273h-219l-86 131h-4l-129 -131h-240z" />
<glyph unicode="&#xcb;" horiz-adv-x="1122" d="M41 0l278 1462h865l-54 -266h-548l-62 -313h522l-51 -262h-518l-70 -355h584l-49 -266h-897zM414 1683q0 68 46 113t113 45q61 0 100.5 -40t39.5 -99q0 -70 -47.5 -114t-112.5 -44q-55 0 -97 39t-42 100zM864 1683q0 68 45 113t113 45q61 0 100 -40t39 -99 q0 -70 -46 -114t-111 -44q-57 0 -98.5 39t-41.5 100z" />
<glyph unicode="&#xcc;" horiz-adv-x="593" d="M35 0l278 1462h312l-277 -1462h-313zM133 1817h342l168 -271h-260z" />
<glyph unicode="&#xcd;" horiz-adv-x="593" d="M35 0l278 1462h310l-275 -1462h-313zM326 1542l204 273h347l-287 -273h-264z" />
<glyph unicode="&#xce;" horiz-adv-x="593" d="M35 0l278 1462h312l-277 -1462h-313zM133 1542l268 273h238l172 -273h-219l-88 131h-4l-127 -131h-240z" />
<glyph unicode="&#xcf;" horiz-adv-x="593" d="M35 0l276 1462h314l-277 -1462h-313zM123 1683q0 68 46 113t114 45q59 0 99 -40t40 -99q0 -70 -47 -114t-113 -44q-55 0 -97 39t-42 100zM573 1683q0 68 45.5 113t112.5 45q61 0 100 -40t39 -99q0 -70 -47 -114t-110 -44q-57 0 -98.5 39t-41.5 100z" />
<glyph unicode="&#xd0;" horiz-adv-x="1503" d="M23 623l51 258h166l102 561q193 33 401 33q358 0 535 -150q197 -158 197 -465q0 -211 -82 -387t-222 -287q-244 -195 -698 -194q-242 0 -401 28l116 603h-165zM432 254q49 -8 139 -8q260 0 410 168q154 174 154 434q0 180 -96.5 278.5t-282.5 98.5q-80 0 -140 -11 l-65 -333h283l-50 -258h-280z" />
<glyph unicode="&#xd1;" horiz-adv-x="1443" d="M41 0l278 1462h367l193 -557q82 -244 135 -499h4q8 205 67 526l101 530h293l-279 -1462h-323l-203 584q-94 285 -144 510h-8q-20 -199 -92 -582l-98 -512h-291zM614 1552q20 135 78 204t137 69q70 0 138 -43q61 -41 88 -41q47 0 73 94h150q-43 -268 -217 -268 q-74 0 -139 41q-61 41 -86 41q-45 0 -68 -97h-154z" />
<glyph unicode="&#xd2;" horiz-adv-x="1529" d="M104 586q0 201 71 386t198 306q219 209 534 209q283 0 436.5 -169t153.5 -441q0 -201 -67.5 -384.5t-192.5 -306.5q-217 -211 -541 -211q-274 0 -433 173.5t-159 437.5zM436 598q0 -164 77 -262t230 -98q137 0 244 104q84 84 131 236.5t47 289.5q0 156 -68.5 257.5 t-226.5 101.5q-145 0 -252 -111q-84 -82 -133 -231.5t-49 -286.5zM575 1817h340l170 -271h-260z" />
<glyph unicode="&#xd3;" horiz-adv-x="1529" d="M104 586q0 201 71 386t198 306q219 209 534 209q283 0 436.5 -169t153.5 -441q0 -201 -67.5 -384.5t-192.5 -306.5q-217 -211 -541 -211q-274 0 -433 173.5t-159 437.5zM436 598q0 -164 77 -262t230 -98q137 0 244 104q84 84 131 236.5t47 289.5q0 156 -68.5 257.5 t-226.5 101.5q-145 0 -252 -111q-84 -82 -133 -231.5t-49 -286.5zM780 1548l203 273h348l-287 -273h-264z" />
<glyph unicode="&#xd4;" horiz-adv-x="1529" d="M104 586q0 201 71 386t198 306q219 209 534 209q283 0 436.5 -169t153.5 -441q0 -201 -67.5 -384.5t-192.5 -306.5q-217 -211 -541 -211q-274 0 -433 173.5t-159 437.5zM436 598q0 -164 77 -262t230 -98q137 0 244 104q84 84 131 236.5t47 289.5q0 156 -68.5 257.5 t-226.5 101.5q-145 0 -252 -111q-84 -82 -133 -231.5t-49 -286.5zM588 1542l268 273h236l174 -273h-219l-86 131h-7l-125 -131h-241z" />
<glyph unicode="&#xd5;" horiz-adv-x="1529" d="M104 586q0 201 71 386t198 306q219 209 534 209q283 0 436.5 -169t153.5 -441q0 -201 -67.5 -384.5t-192.5 -306.5q-217 -211 -541 -211q-274 0 -433 173.5t-159 437.5zM436 598q0 -164 77 -262t232 -98q135 0 242 104q84 84 131 236.5t47 289.5q0 156 -68.5 257.5 t-226.5 101.5q-141 0 -252 -111q-82 -82 -132 -231.5t-50 -286.5zM627 1552q20 135 77.5 204t137.5 69q70 0 137 -43q63 -41 90 -41q47 0 74 94h149q-43 -268 -217 -268q-74 0 -139 41q-63 41 -88 41q-47 0 -66 -97h-155z" />
<glyph unicode="&#xd6;" horiz-adv-x="1529" d="M104 586q0 201 71 386t198 306q219 209 534 209q283 0 436.5 -169t153.5 -441q0 -201 -67.5 -384.5t-192.5 -306.5q-217 -211 -541 -211q-274 0 -433 173.5t-159 437.5zM436 598q0 -164 77 -262t230 -98q137 0 244 104q84 84 131 236.5t47 289.5q0 156 -68.5 257.5 t-226.5 101.5q-141 0 -252 -111q-82 -82 -132 -231.5t-50 -286.5zM588 1683q0 68 46 113t114 45q59 0 98 -40t39 -99q0 -70 -46 -114t-112 -44q-55 0 -97 39t-42 100zM1038 1683q0 68 45 113t113 45q61 0 100 -40t39 -99q0 -70 -47 -114t-110 -44q-57 0 -98.5 39t-41.5 100z " />
<glyph unicode="&#xd7;" horiz-adv-x="1292" d="M76 999l141 144l418 -432l414 432l143 -144l-422 -428l422 -426l-143 -145l-418 432l-414 -432l-139 145l418 426z" />
<glyph unicode="&#xd8;" horiz-adv-x="1523" d="M72 -4l155 186q-127 164 -127 420q0 195 70 371t195 299q219 215 526 215q209 0 342 -90l158 190l159 -127l-168 -200q111 -150 111 -396v-11q0 -187 -68 -359q-70 -178 -188 -304q-219 -215 -526 -215q-193 0 -320 84l-172 -202zM442 449h7l598 722q-63 57 -175 58 q-141 0 -252.5 -104.5t-162.5 -262.5q-40 -118 -40 -233q0 -91 25 -180zM573 283q61 -49 162 -50q135 0 240.5 97.5t157.5 251.5q42 121 42 247q0 76 -16 154h-6z" />
<glyph unicode="&#xd9;" horiz-adv-x="1421" d="M137 442q0 90 21 205l155 815h312l-158 -841q-18 -80 -18 -172.5t55 -150.5t158 -58q127 0 205.5 90t117.5 288l162 844h311l-158 -831q-66 -338 -224 -497t-453 -159h-8q-224 0 -350 118q-128 120 -128 349zM551 1817h344l166 -271h-260z" />
<glyph unicode="&#xda;" horiz-adv-x="1421" d="M137 442q0 90 21 205l155 815h312l-158 -841q-18 -80 -18 -172.5t55 -150.5t158 -58q127 0 205.5 90t117.5 288l162 844h311l-158 -831q-66 -338 -224 -497t-453 -159h-8q-224 0 -350 118q-128 120 -128 349zM735 1542l205 273h348l-287 -273h-266z" />
<glyph unicode="&#xdb;" horiz-adv-x="1421" d="M137 442q0 90 21 205l155 815h312l-158 -841q-18 -80 -18 -172.5t55 -150.5t158 -58q127 0 205.5 90t117.5 288l162 844h311l-158 -831q-66 -338 -224 -497t-453 -159h-8q-224 0 -350 118q-128 120 -128 349zM563 1542l268 273h238l172 -273h-219l-86 131h-4l-129 -131 h-240z" />
<glyph unicode="&#xdc;" horiz-adv-x="1421" d="M137 442q0 90 21 205l155 815h312l-158 -841q-18 -80 -18 -172.5t55 -150.5t158 -58q127 0 205.5 90t117.5 288l162 844h309l-156 -831q-66 -338 -225.5 -497t-451.5 -159h-8q-224 0 -350 118q-128 120 -128 349zM547 1683q0 68 46 113t112 45q63 0 101 -40t38 -99 q0 -70 -45 -114t-113 -44q-57 0 -98 39t-41 100zM997 1683q0 68 45 113t113 45q61 0 100 -40t39 -99q0 -70 -47 -114t-112 -44q-55 0 -96.5 39t-41.5 100z" />
<glyph unicode="&#xdd;" horiz-adv-x="1236" d="M154 1462h333l95 -370q41 -174 57 -265h4l150 267l219 368h372l-630 -858l-113 -604h-313l112 598zM616 1542l205 273h346l-286 -273h-265z" />
<glyph unicode="&#xde;" horiz-adv-x="1210" d="M41 0l278 1462h304l-48 -262q66 8 146 8q221 0 344 -100q129 -109 129 -283q0 -270 -185.5 -408t-459.5 -138q-82 0 -148 8l-53 -287h-307zM449 541q51 -10 124 -11q129 0 217.5 71t88.5 181q0 180 -230 181q-78 0 -121 -13z" />
<glyph unicode="&#xdf;" horiz-adv-x="1257" d="M29 0l184 975q111 590 616 590q176 0 291 -96.5t115 -251.5q0 -137 -88 -220q-150 -78 -150 -178q0 -66 60 -160q96 -147 96 -274q0 -205 -129 -307.5t-334 -102.5q-152 0 -239 52l75 227q66 -37 156 -37q72 0 113 34t41 95q0 63 -62 158q-98 156 -98 254q0 100 61.5 179 t155.5 128q37 51 37 115q0 57 -37 96t-105 39q-92 0 -161.5 -80t-98.5 -248l-188 -987h-311z" />
<glyph unicode="&#xe0;" horiz-adv-x="1202" d="M53 346q0 137 47 267t137.5 235.5t240 171t336.5 65.5t351 -51l-110 -557q-44 -235 -44 -429q0 -24 1 -48h-287l6 112q4 75 6 99h-4q-129 -236 -358 -236q-143 0 -232.5 102.5t-89.5 268.5zM381 403q0 -80 31.5 -128t95.5 -48q78 0 150.5 92.5t107.5 274.5l49 246 q-49 8 -86 8q-143 0 -245.5 -142.5t-102.5 -302.5zM436 1520h303l162 -330h-223z" />
<glyph unicode="&#xe1;" horiz-adv-x="1202" d="M53 346q0 137 47 267t137.5 235.5t240 171t336.5 65.5t351 -51l-110 -557q-44 -235 -44 -429q0 -24 1 -48h-287l6 112q4 75 6 99h-4q-129 -236 -358 -236q-143 0 -232.5 102.5t-89.5 268.5zM381 403q0 -80 31.5 -128t95.5 -48q78 0 150.5 92.5t107.5 274.5l49 246 q-49 8 -86 8q-143 0 -245.5 -142.5t-102.5 -302.5zM645 1190l203 330h309l-283 -330h-229z" />
<glyph unicode="&#xe2;" horiz-adv-x="1202" d="M53 346q0 137 47 267t137.5 235.5t240 171t336.5 65.5t351 -51l-110 -557q-44 -235 -44 -429q0 -24 1 -48h-287l6 112q4 75 6 99h-4q-129 -236 -358 -236q-143 0 -232.5 102.5t-89.5 268.5zM381 403q0 -80 31.5 -128t95.5 -48q78 0 150.5 92.5t107.5 274.5l49 246 q-49 8 -86 8q-143 0 -245.5 -142.5t-102.5 -302.5zM455 1190l262 330h215l162 -330h-201l-88 172h-4l-127 -172h-219z" />
<glyph unicode="&#xe3;" horiz-adv-x="1202" d="M53 346q0 137 47 267t137.5 235.5t240 171t336.5 65.5t351 -51l-110 -557q-44 -235 -44 -429q0 -24 1 -48h-287l6 112q4 75 6 99h-4q-129 -236 -358 -236q-143 0 -232.5 102.5t-89.5 268.5zM381 403q0 -80 31.5 -128t95.5 -48q78 0 150.5 92.5t107.5 274.5l49 246 q-49 8 -86 8q-143 0 -245.5 -142.5t-102.5 -302.5zM444 1210q18 131 72.5 203t136.5 72q61 0 135 -43q63 -41 84 -41q27 0 41.5 19.5t28.5 74.5h150q-39 -266 -213 -266q-74 0 -140 41q-45 39 -82 39q-41 0 -59 -99h-154z" />
<glyph unicode="&#xe4;" horiz-adv-x="1202" d="M53 346q0 137 47 267t137.5 235.5t240 171t336.5 65.5t351 -51l-110 -557q-44 -235 -44 -429q0 -24 1 -48h-287l6 112q4 75 6 99h-4q-129 -236 -358 -236q-143 0 -232.5 102.5t-89.5 268.5zM381 403q0 -80 31.5 -128t95.5 -48q78 0 150.5 92.5t107.5 274.5l49 246 q-49 8 -86 8q-143 0 -245.5 -142.5t-102.5 -302.5zM385 1346q0 72 47 117.5t117 45.5q63 0 102 -42t39 -101q0 -74 -46 -119t-116 -45q-59 0 -101 39t-42 105zM829 1346q0 72 48.5 117.5t115.5 45.5q63 0 102.5 -42t39.5 -101q0 -74 -46.5 -119t-115.5 -45q-61 0 -102.5 39 t-41.5 105z" />
<glyph unicode="&#xe5;" horiz-adv-x="1202" d="M53 346q0 137 47 267t137.5 235.5t240 171t336.5 65.5t351 -51l-110 -557q-44 -235 -44 -429q0 -24 1 -48h-287l6 112q4 75 6 99h-4q-129 -236 -358 -236q-143 0 -232.5 102.5t-89.5 268.5zM381 403q0 -80 31.5 -128t95.5 -48q78 0 150.5 92.5t107.5 274.5l49 246 q-49 8 -86 8q-143 0 -245.5 -142.5t-102.5 -302.5zM516 1370q0 101 73 162q75 63 195 63q98 0 165 -53t67 -151q-2 -102 -79 -163t-189 -61q-96 0 -163 54q-69 55 -69 149zM666 1372q0 -39 25.5 -67.5t68.5 -28.5q47 0 76.5 31.5t29.5 79.5q0 45 -24.5 72.5t-73.5 27.5 q-45 0 -73.5 -33t-28.5 -82z" />
<glyph unicode="&#xe6;" horiz-adv-x="1654" d="M8 268q0 152 106.5 254.5t255.5 142.5q141 38 303 38q8 0 17 -1l4 25q1 8 2 15q0 39 -36 78q-42 46 -138 46q-158 0 -295 -94l-49 201q174 115 385 114q242 0 311 -172h7q137 172 376 172q174 0 268.5 -88t94.5 -204q0 -111 -53.5 -185.5t-152.5 -111.5t-217 -49 q-79 -8 -172 -9q-47 0 -97 2q-3 -22 -3 -41q0 -51 19 -86q61 -94 219 -94q152 0 305 66l11 -221q-160 -90 -389 -91q-119 0 -213.5 50.5t-139.5 140.5h-8q-150 -190 -395 -191q-145 0 -235.5 84t-90.5 209zM322 319q0 -49 31.5 -76.5t84.5 -27.5q72 0 129.5 50t75.5 138 l16 97h-19q-40 0 -84 -6q-54 -8 -109.5 -26.5t-90 -57t-34.5 -91.5zM963 657q49 -3 90 -2q264 0 264 111q0 37 -31 65.5t-90 28.5q-94 0 -157.5 -65.5t-75.5 -137.5z" />
<glyph unicode="&#xe7;" horiz-adv-x="942" d="M59 412q0 287 196 480t497 193q121 0 217 -34l-78 -242q-63 27 -143 27q-162 0 -261.5 -116t-99.5 -274q0 -104 58.5 -161.5t148.5 -57.5q102 0 211 43l2 -235q-96 -47 -207 -55l-55 -76q59 -12 96 -52t37 -98q0 -102 -82 -152.5t-182 -50.5q-119 0 -181 46l56 122 q59 -35 119 -34q76 0 75 61q0 68 -155 78l106 160q-180 18 -277.5 136t-97.5 292z" />
<glyph unicode="&#xe8;" horiz-adv-x="1087" d="M61 426q0 164 73 313.5t217.5 247.5t328.5 98q162 0 265.5 -87t103.5 -232q0 -357 -634 -357q-28 0 -57 1q4 -68 35 -109q63 -82 205 -82q158 0 297 68l20 -226q-166 -86 -397 -86q-223 0 -340 119t-117 332zM362 1520h304l163 -330h-223zM389 639h25q170 0 253 27 q89 29 89 102q0 39 -32 64.5t-83 25.5q-100 0 -167 -67.5t-85 -151.5z" />
<glyph unicode="&#xe9;" horiz-adv-x="1087" d="M61 426q0 164 73 313.5t217.5 247.5t328.5 98q162 0 265.5 -87t103.5 -232q0 -357 -634 -357q-28 0 -57 1q4 -68 35 -109q63 -82 205 -82q158 0 297 68l20 -226q-166 -86 -397 -86q-223 0 -340 119t-117 332zM389 639h25q170 0 253 27q89 29 89 102q0 39 -32 64.5 t-83 25.5q-100 0 -167 -67.5t-85 -151.5zM557 1190l207 330h309l-282 -330h-234z" />
<glyph unicode="&#xea;" horiz-adv-x="1087" d="M61 426q0 164 73 313.5t217.5 247.5t328.5 98q162 0 265.5 -87t103.5 -232q0 -357 -634 -357q-28 0 -57 1q4 -68 35 -109q63 -82 205 -82q158 0 297 68l20 -226q-166 -86 -397 -86q-223 0 -340 119t-117 332zM365 1190l262 330h215l164 -330h-203l-86 172h-4l-127 -172 h-221zM389 639h25q170 0 253 27q89 29 89 102q0 39 -32 64.5t-83 25.5q-100 0 -167 -67.5t-85 -151.5z" />
<glyph unicode="&#xeb;" horiz-adv-x="1087" d="M61 426q0 164 73 313.5t217.5 247.5t328.5 98q162 0 265.5 -87t103.5 -232q0 -357 -634 -357q-28 0 -57 1q4 -68 35 -109q63 -82 205 -82q158 0 297 68l20 -226q-166 -86 -397 -86q-223 0 -340 119t-117 332zM340 1346q0 72 48 117.5t118 45.5q63 0 102 -42t39 -101 q0 -74 -47 -119t-117 -45q-57 0 -100 39t-43 105zM389 639h25q170 0 253 27q89 29 89 102q0 39 -32 64.5t-83 25.5q-100 0 -167 -67.5t-85 -151.5zM788 1346q0 72 47.5 117.5t116.5 45.5q63 0 102.5 -42t39.5 -101q0 -74 -46.5 -119t-115.5 -45q-61 0 -102.5 39t-41.5 105z " />
<glyph unicode="&#xec;" horiz-adv-x="573" d="M29 0l200 1061h314l-203 -1061h-311zM72 1520h301l164 -330h-224z" />
<glyph unicode="&#xed;" horiz-adv-x="573" d="M29 0l200 1061h314l-203 -1061h-311zM276 1190l203 330h309l-282 -330h-230z" />
<glyph unicode="&#xee;" horiz-adv-x="573" d="M29 0l200 1061h314l-203 -1061h-311zM88 1190l264 330h215l162 -330h-201l-88 172h-4l-125 -172h-223z" />
<glyph unicode="&#xef;" horiz-adv-x="573" d="M29 0l198 1061h316l-205 -1061h-309zM63 1346q0 72 47.5 117.5t116.5 45.5q63 0 102.5 -42t39.5 -101q0 -74 -46.5 -119t-115.5 -45q-59 0 -101.5 39t-42.5 105zM510 1346q0 72 48 117.5t118 45.5q61 0 101 -42t40 -101q0 -74 -47 -119t-117 -45q-61 0 -102 39t-41 105z " />
<glyph unicode="&#xf0;" horiz-adv-x="1210" d="M57 422q0 244 163 420t398 184q11 1 21 1q92 0 154 -50l2 4q-43 121 -131 201l-338 -144l-43 127l264 113q-82 61 -182 106l143 172q164 -59 311 -172l305 127l45 -129l-239 -96q98 -100 156.5 -248.5t58.5 -322.5q0 -324 -174 -532t-453 -208q-215 0 -338 125t-123 322z M381 414q0 -86 43 -143.5t123 -57.5q117 0 187.5 111.5t74.5 259.5q2 26 2 48q0 61 -16 95q-41 74 -146 74q-115 0 -191.5 -122t-76.5 -265z" />
<glyph unicode="&#xf1;" horiz-adv-x="1220" d="M27 0l133 717q16 74 59 344h277l-21 -176h4q145 201 373 200q129 0 200.5 -75.5t71.5 -214.5q0 -74 -16 -179l-119 -616h-313l112 588q10 61 11 117q0 129 -107 129q-80 0 -156.5 -97.5t-107.5 -265.5l-90 -471h-311zM432 1210q16 131 70.5 203t138.5 72q59 0 133 -43 q63 -41 86 -41q25 0 39 19.5t31 74.5h149q-39 -266 -213 -266q-76 0 -139 41q-49 39 -82 39q-41 0 -61 -99h-152z" />
<glyph unicode="&#xf2;" horiz-adv-x="1212" d="M66 418q0 279 178 474t454 195q207 0 329 -124.5t122 -313.5q0 -291 -179 -482.5t-456 -191.5q-201 0 -324.5 122t-123.5 321zM385 1520h301l162 -330h-223zM389 422q0 -96 44 -151.5t126 -55.5q119 0 192.5 140.5t73.5 291.5q0 82 -41 141.5t-126 59.5t-149.5 -74 t-92 -169t-27.5 -183z" />
<glyph unicode="&#xf3;" horiz-adv-x="1212" d="M66 418q0 279 178 474t454 195q207 0 329 -124.5t122 -313.5q0 -291 -179 -482.5t-456 -191.5q-201 0 -324.5 122t-123.5 321zM389 422q0 -96 44 -151.5t126 -55.5q119 0 192.5 140.5t73.5 291.5q0 82 -41 141.5t-126 59.5t-149.5 -74t-92 -169t-27.5 -183zM578 1190 l202 330h307l-282 -330h-227z" />
<glyph unicode="&#xf4;" horiz-adv-x="1212" d="M66 418q0 279 178 474t454 195q207 0 329 -124.5t122 -313.5q0 -291 -179 -482.5t-456 -191.5q-201 0 -324.5 122t-123.5 321zM389 422q0 -96 44 -151.5t126 -55.5q119 0 192.5 140.5t73.5 291.5q0 82 -41 141.5t-126 59.5t-149.5 -74t-92 -169t-27.5 -183zM401 1190 l263 330h213l163 -330h-202l-86 172h-2l-129 -172h-220z" />
<glyph unicode="&#xf5;" horiz-adv-x="1212" d="M66 418q0 279 178 474t454 195q207 0 329 -124.5t122 -313.5q0 -291 -179 -482.5t-456 -191.5q-201 0 -324.5 122t-123.5 321zM389 422q0 -96 44 -151.5t126 -55.5q119 0 192.5 140.5t73.5 291.5q0 82 -41 141.5t-126 59.5t-149.5 -74t-92 -169t-27.5 -183zM406 1210 q18 131 72 203t136 72q59 0 134 -43q59 -41 83 -41q27 0 40.5 19.5t29.5 74.5h150q-39 -266 -213 -266q-78 0 -138 43q-51 37 -82 37q-41 0 -61 -99h-151z" />
<glyph unicode="&#xf6;" horiz-adv-x="1212" d="M66 418q0 279 178 474t454 195q207 0 329 -124.5t122 -313.5q0 -291 -179 -482.5t-456 -191.5q-201 0 -324.5 122t-123.5 321zM369 1346q0 72 48 117.5t118 45.5q63 0 102 -42t39 -101q0 -74 -47 -119t-117 -45q-57 0 -100 39t-43 105zM389 422q0 -96 44 -151.5 t126 -55.5q119 0 192.5 140.5t73.5 291.5q0 82 -41 141.5t-126 59.5t-149.5 -74t-92 -169t-27.5 -183zM815 1346q0 72 47 117.5t117 45.5q63 0 102 -42t39 -101q0 -74 -47 -119t-117 -45q-59 0 -100 39t-41 105z" />
<glyph unicode="&#xf7;" horiz-adv-x="1292" d="M94 477v203h1108v-203h-1108zM492 196.5q0 71.5 43 116.5t114.5 45t113.5 -44t44 -117q0 -72 -43 -116t-117 -44q-70 0 -112.5 44t-42.5 115.5zM492 961q0 74 43 116.5t114.5 42.5t113.5 -43t44 -116q0 -72 -43 -117t-117 -45q-70 0 -112.5 45t-42.5 117z" />
<glyph unicode="&#xf8;" horiz-adv-x="1214" d="M37 -33l133 154q-106 119 -107 303q0 276 178.5 469.5t452.5 193.5q141 0 244 -61l135 154l94 -86l-127 -150q109 -121 109 -295q0 -299 -179 -486.5t-435 -187.5q-164 0 -269 68l-143 -164zM383 473q-2 -17 -2 -32q0 -36 10 -64l6 -2l365 446q-39 39 -109 39 q-121 0 -194.5 -130t-75.5 -257zM444 248q41 -43 115 -43q117 0 191.5 122t78.5 259q0 55 -8 100h-6z" />
<glyph unicode="&#xf9;" horiz-adv-x="1214" d="M88 274q0 88 23 195l112 592h314l-109 -567q-16 -88 -16 -142q0 -123 106 -123q84 0 155.5 92.5t100.5 247.5l94 492h312l-136 -715q-33 -166 -57 -346h-274l18 172l-4 2q-155 -199 -365 -199q-131 0 -202.5 74.5t-71.5 224.5zM389 1520h303l162 -330h-225z" />
<glyph unicode="&#xfa;" horiz-adv-x="1214" d="M88 274q0 88 23 195l112 592h314l-109 -567q-16 -88 -16 -142q0 -123 106 -123q84 0 155.5 92.5t100.5 247.5l94 492h312l-136 -715q-33 -166 -57 -346h-274l18 172l-4 2q-155 -199 -365 -199q-131 0 -202.5 74.5t-71.5 224.5zM580 1190l204 330h308l-283 -330h-229z" />
<glyph unicode="&#xfb;" horiz-adv-x="1214" d="M88 274q0 88 23 195l112 592h314l-109 -567q-16 -88 -16 -142q0 -123 106 -123q84 0 155.5 92.5t100.5 247.5l94 492h312l-136 -715q-33 -166 -57 -346h-274l18 172l-4 2q-155 -199 -365 -199q-131 0 -202.5 74.5t-71.5 224.5zM414 1190l264 330h213l162 -330h-201 l-86 172h-4l-127 -172h-221z" />
<glyph unicode="&#xfc;" horiz-adv-x="1214" d="M88 274q0 88 23 195l112 592h314l-109 -567q-16 -88 -16 -142q0 -123 106 -123q84 0 155.5 92.5t100.5 247.5l94 492h312l-136 -715q-33 -166 -57 -346h-274l18 172l-4 2q-155 -199 -365 -199q-131 0 -202.5 74.5t-71.5 224.5zM371 1346q0 72 48 117.5t118 45.5 q63 0 102 -42t39 -101q0 -74 -47 -119t-117 -45q-57 0 -100 39t-43 105zM817 1346q0 72 47 117.5t117 45.5q63 0 102 -42t39 -101q0 -74 -47 -119t-114 -45q-61 0 -102.5 39t-41.5 105z" />
<glyph unicode="&#xfd;" horiz-adv-x="1077" d="M-53 -221q104 33 178 82q115 78 174 184q12 23 4 53l-207 963h328l63 -461l35 -254h6l93 246l194 469h330l-381 -764q-211 -418 -408 -606q-82 -78 -179 -124t-163 -59zM512 1190l205 330h307l-281 -330h-231z" />
<glyph unicode="&#xfe;" horiz-adv-x="1222" d="M-59 -430l358 1900h313l-102 -538h4q45 68 125 110.5t178 42.5q162 0 252 -112.5t90 -288.5q-2 -297 -177 -503t-437 -206q-123 0 -199 45h-8l-84 -450h-313zM385 260q61 -47 145 -47q123 0 211 137t88 305q0 74 -33.5 125t-103.5 51q-88 0 -160.5 -93t-105.5 -261z" />
<glyph unicode="&#xff;" horiz-adv-x="1077" d="M-53 -221q104 33 178 82q115 78 174 184q12 23 4 53l-207 963h328l63 -461l35 -254h6l93 246l194 469h328l-379 -764q-211 -418 -408 -606q-82 -78 -179 -124t-163 -59zM287 1346q0 72 48 117.5t116 45.5q63 0 102 -42t39 -101q0 -74 -46 -119t-116 -45q-59 0 -101 39 t-42 105zM731 1346q0 72 48 117.5t118 45.5q63 0 102 -42t39 -101q0 -74 -47 -119t-117 -45q-59 0 -101 39t-42 105z" />
<glyph unicode="&#x100;" horiz-adv-x="1341" d="M-61 0l712 1462h402l172 -1462h-330l-29 381h-422l-170 -381h-335zM537 618h317l-31 316q-4 74 -20 287h-4q-6 -18 -50 -128t-67 -159zM594 1593l33 172h553l-33 -172h-553z" />
<glyph unicode="&#x101;" horiz-adv-x="1202" d="M53 346q0 137 47 267t137.5 235.5t240 171t336.5 65.5t351 -51l-110 -557q-44 -235 -44 -429q0 -24 1 -48h-287l6 112q4 75 6 99h-4q-129 -236 -358 -236q-143 0 -232.5 102.5t-89.5 268.5zM381 403q0 -80 31.5 -128t95.5 -48q78 0 150.5 92.5t107.5 274.5l49 246 q-49 8 -86 8q-143 0 -245.5 -142.5t-102.5 -302.5zM494 1268l34 170h533l-33 -170h-534z" />
<glyph unicode="&#x102;" horiz-adv-x="1341" d="M-61 0l712 1462h402l172 -1462h-330l-29 381h-422l-170 -381h-335zM537 618h317l-31 316q-4 74 -20 287h-4q-6 -18 -50 -128t-67 -159zM602 1835h172q0 -47 28.5 -76.5t88.5 -29.5q119 0 143 106h176q-20 -121 -103 -193.5t-234.5 -72.5t-218.5 73q-55 61 -54 152 q-1 20 2 41z" />
<glyph unicode="&#x103;" horiz-adv-x="1202" d="M53 346q0 137 47 267t137.5 235.5t240 171t336.5 65.5t351 -51l-110 -557q-44 -235 -44 -429q0 -24 1 -48h-287l6 112q4 75 6 99h-4q-129 -236 -358 -236q-143 0 -232.5 102.5t-89.5 268.5zM381 403q0 -80 31.5 -128t95.5 -48q78 0 150.5 92.5t107.5 274.5l49 246 q-49 8 -86 8q-143 0 -245.5 -142.5t-102.5 -302.5zM504 1497h158q4 -121 102 -121q111 0 141 121h164q-23 -131 -103.5 -205.5t-215.5 -74.5q-143 0 -203 76q-47 60 -47 152q0 25 4 52z" />
<glyph unicode="&#x104;" horiz-adv-x="1341" d="M-61 0l712 1462h402l170 -1462h-154q-80 -106 -80 -184q0 -39 24.5 -62.5t67.5 -23.5q47 0 103 18l18 -151q-86 -72 -227 -72q-102 0 -157.5 50t-55.5 142q0 125 133 287l-29 377h-422l-170 -381h-335zM537 618h317l-31 316q-4 74 -20 287h-4q-6 -18 -50 -128t-67 -159z " />
<glyph unicode="&#x105;" horiz-adv-x="1202" d="M57 346q0 137 46.5 267t136.5 235.5t239.5 171t339 65.5t348.5 -51l-106 -557q-44 -235 -44 -429q0 -24 1 -48h-88q-104 -104 -105 -197q0 -33 21.5 -53t60.5 -20q57 0 111 18l20 -151q-88 -72 -229 -72q-100 0 -155.5 50t-55.5 142q0 129 133 287q2 35 7 108.5t7 98.5 h-6q-135 -236 -362 -236q-143 0 -231.5 102.5t-88.5 268.5zM383 403q0 -80 31.5 -128t95.5 -48q78 0 152.5 92.5t107.5 274.5l45 246q-49 8 -84 8q-143 0 -245.5 -142.5t-102.5 -302.5z" />
<glyph unicode="&#x106;" horiz-adv-x="1263" d="M106 600q0 238 98.5 427.5t270.5 303.5q225 154 537 154q211 0 321 -62l-88 -254q-98 49 -264 50q-197 0 -334 -113q-203 -170 -203 -471q0 -178 100.5 -283.5t289.5 -105.5q166 0 278 47l25 -252q-139 -63 -383 -64q-293 0 -470.5 168t-177.5 455zM760 1550l205 273h346 l-287 -273h-264z" />
<glyph unicode="&#x107;" horiz-adv-x="944" d="M63 412q0 287 197 480t496 193q121 0 217 -34l-78 -242q-63 27 -143 27q-162 0 -261.5 -116t-99.5 -274q0 -104 58.5 -161.5t150.5 -57.5q100 0 209 43l2 -235q-117 -57 -301 -58q-199 0 -323 117t-124 318zM522 1190l205 330h309l-282 -330h-232z" />
<glyph unicode="&#x108;" horiz-adv-x="1263" d="M106 600q0 238 98.5 427.5t270.5 303.5q225 154 537 154q211 0 321 -62l-88 -254q-98 49 -264 50q-197 0 -334 -113q-203 -170 -203 -471q0 -178 100.5 -283.5t289.5 -105.5q166 0 278 47l25 -252q-139 -63 -383 -64q-293 0 -470.5 168t-177.5 455zM575 1548l267 273h237 l174 -273h-219l-88 131h-4l-125 -131h-242z" />
<glyph unicode="&#x109;" horiz-adv-x="944" d="M63 412q0 287 197 480t496 193q121 0 217 -34l-78 -242q-63 27 -143 27q-162 0 -261.5 -116t-99.5 -274q0 -104 58.5 -161.5t150.5 -57.5q100 0 209 43l2 -235q-117 -57 -301 -58q-199 0 -323 117t-124 318zM322 1190l264 330h213l164 -330h-203l-86 172h-6l-125 -172 h-221z" />
<glyph unicode="&#x10a;" horiz-adv-x="1263" d="M106 600q0 238 98.5 427.5t270.5 303.5q225 154 539 154q211 0 321 -62l-86 -254q-106 49 -266 50q-199 0 -336 -113q-203 -170 -203 -471q0 -178 101.5 -283.5t290.5 -105.5q164 0 278 47l25 -252q-139 -63 -385 -64q-293 0 -470.5 168t-177.5 455zM809 1692 q0 70 48 114.5t116 44.5q63 0 102 -39.5t39 -101.5q0 -70 -47 -114t-115 -44q-57 0 -100 39.5t-43 100.5z" />
<glyph unicode="&#x10b;" horiz-adv-x="944" d="M63 412q0 287 197 480t496 193q119 0 215 -34l-76 -242q-68 27 -145 27q-162 0 -260.5 -116t-98.5 -274q0 -104 57.5 -161.5t149.5 -57.5q100 0 209 43l2 -235q-117 -57 -299 -58q-199 0 -323 117t-124 318zM543 1343q0 74 48 121t118 47q63 0 104 -39.5t41 -105.5 q0 -74 -48 -120t-118 -46q-61 0 -103 40t-42 103z" />
<glyph unicode="&#x10c;" horiz-adv-x="1263" d="M106 600q0 238 98.5 427.5t270.5 303.5q225 154 537 154q211 0 321 -62l-88 -254q-98 49 -264 50q-197 0 -334 -113q-203 -170 -203 -471q0 -178 100.5 -283.5t289.5 -105.5q166 0 278 47l25 -252q-139 -63 -383 -64q-293 0 -470.5 168t-177.5 455zM618 1823h222l86 -137 h4l127 137h241l-270 -273h-235z" />
<glyph unicode="&#x10d;" horiz-adv-x="944" d="M63 412q0 287 197 480t496 193q121 0 217 -34l-78 -242q-63 27 -143 27q-162 0 -261.5 -116t-99.5 -274q0 -104 58.5 -161.5t150.5 -57.5q100 0 209 43l2 -235q-117 -57 -301 -58q-199 0 -323 117t-124 318zM391 1520h201l88 -172h4l127 172h221l-264 -330h-215z" />
<glyph unicode="&#x10e;" horiz-adv-x="1476" d="M43 16l272 1426q188 33 406 33q348 0 532 -160q193 -158 193 -457q0 -209 -80 -386t-219 -288q-242 -195 -703 -194q-239 -1 -401 26zM403 250q57 -6 138 -6q268 0 413 168q154 172 154 444q0 176 -98.5 272.5t-288.5 96.5q-78 0 -133 -11zM528 1815h222l84 -140h4 l129 140h239l-268 -273h-238z" />
<glyph unicode="&#x10f;" horiz-adv-x="1232" d="M57 377q0 287 187.5 498.5t480.5 211.5q78 0 145 -26l95 481h309l-215 -1130q-43 -223 -49 -412h-287l14 172h-4q-129 -197 -348 -197q-141 0 -234.5 108t-93.5 294zM383 428q0 -96 39 -148.5t106 -52.5q74 0 144.5 79t97.5 222l57 283q-43 37 -125 37q-135 0 -227 -130 t-92 -290zM1266 1208q115 90 114 232q0 53 -20 90l209 37q49 -47 49 -133q0 -104 -70.5 -197.5t-167.5 -144.5z" />
<glyph unicode="&#x110;" horiz-adv-x="1503" d="M23 623l51 258h166l102 561q193 33 401 33q358 0 535 -150q197 -158 197 -465q0 -211 -82 -387t-222 -287q-244 -195 -698 -194q-242 0 -401 28l116 603h-165zM432 254q49 -8 139 -8q260 0 410 168q154 174 154 434q0 180 -96.5 278.5t-282.5 98.5q-80 0 -140 -11 l-65 -333h283l-50 -258h-280z" />
<glyph unicode="&#x111;" horiz-adv-x="1214" d="M57 377q0 287 187.5 498.5t480.5 211.5q78 0 145 -26l25 123h-408l35 170h406l37 188h309l-35 -188h168l-35 -170h-168l-145 -772q-43 -223 -49 -412h-287l14 172h-4q-129 -197 -348 -197q-141 0 -234.5 108t-93.5 294zM383 428q0 -96 39 -148.5t106 -52.5q74 0 142.5 78 t99.5 223l57 283q-43 37 -125 37q-135 0 -227 -130t-92 -290z" />
<glyph unicode="&#x112;" horiz-adv-x="1122" d="M41 0l278 1462h867l-53 -266h-551l-62 -313h524l-53 -262h-518l-67 -355h583l-49 -266h-899zM492 1593l34 172h551l-35 -172h-550z" />
<glyph unicode="&#x113;" horiz-adv-x="1087" d="M61 426q0 164 73 313.5t217.5 247.5t328.5 98q162 0 265.5 -87t103.5 -232q0 -357 -634 -357q-28 0 -57 1q4 -68 35 -109q63 -82 205 -82q158 0 297 68l20 -226q-166 -86 -397 -86q-223 0 -340 119t-117 332zM389 639h25q170 0 253 27q89 29 89 102q0 39 -32 64.5 t-83 25.5q-100 0 -167 -67.5t-85 -151.5zM414 1268l32 170h537l-33 -170h-536z" />
<glyph unicode="&#x114;" horiz-adv-x="1122" d="M41 0l278 1462h865l-54 -266h-548l-62 -313h522l-51 -262h-520l-68 -355h584l-49 -266h-897zM494 1821h172q-2 -47 26 -78q27 -29 83 -29h7q117 0 140 107h178q-20 -121 -104 -194q-81 -71 -224 -71h-8q-152 0 -218 74q-55 61 -55 151q0 19 3 40z" />
<glyph unicode="&#x115;" horiz-adv-x="1087" d="M61 426q0 164 73 313.5t217.5 247.5t328.5 98q162 0 265.5 -87t103.5 -232q0 -357 -634 -357q-28 0 -57 1q4 -68 35 -109q63 -82 205 -82q158 0 297 68l20 -226q-166 -86 -397 -86q-223 0 -340 119t-117 332zM389 639h25q170 0 253 27q89 29 89 102q0 39 -32 64.5 t-83 25.5q-100 0 -167 -67.5t-85 -151.5zM442 1497h160q8 -121 100 -121q115 0 144 121h162q-20 -129 -101.5 -204.5t-216.5 -75.5q-143 0 -203 76q-48 62 -47 157q-1 22 2 47z" />
<glyph unicode="&#x116;" horiz-adv-x="1122" d="M41 0l276 1462h869l-53 -266h-551l-62 -313h522l-51 -262h-520l-68 -355h586l-51 -266h-897zM631 1686q0 68 48 113.5t116 45.5q63 0 102 -40t39 -101q0 -70 -47 -114t-115 -44q-57 0 -100 39.5t-43 100.5z" />
<glyph unicode="&#x117;" horiz-adv-x="1087" d="M61 426q0 164 73 313.5t217.5 247.5t328.5 98q162 0 265.5 -87t103.5 -232q0 -357 -634 -357q-28 0 -57 1q4 -68 35 -109q63 -82 205 -82q158 0 297 68l20 -226q-166 -86 -397 -86q-223 0 -340 119t-117 332zM389 639h25q170 0 253 27q89 29 89 102q0 39 -32 64.5 t-83 25.5q-100 0 -167 -67.5t-85 -151.5zM549 1343q0 74 48 121t118 47q66 0 105.5 -39.5t39.5 -105.5q0 -74 -48 -120t-118 -46q-59 0 -102 40t-43 103z" />
<glyph unicode="&#x118;" horiz-adv-x="1122" d="M41 0l278 1462h867l-53 -266h-551l-62 -313h524l-53 -262h-518l-67 -355h583l-51 -266h-41q-164 -113 -164 -211q0 -63 62 -63q45 0 100 22l39 -154q-96 -70 -234 -69q-94 0 -147 49t-53 129t54 159t134 138h-647z" />
<glyph unicode="&#x119;" horiz-adv-x="1087" d="M61 426q0 164 73 313.5t217.5 247.5t328.5 98q162 0 265.5 -87t103.5 -232q0 -357 -632 -357q-28 0 -57 1q0 -61 33 -109q63 -82 205 -82q158 0 297 68l20 -226q-10 -8 -124 -55q-197 -115 -197 -215q0 -29 17.5 -44t43.5 -15q45 0 101 20l37 -153q-102 -70 -240 -70 q-90 0 -141.5 48t-51.5 130q0 150 168 268v2h-51q-203 12 -309.5 129t-106.5 320zM391 639h25q168 0 251 27q89 29 89 102q0 39 -32 64.5t-83 25.5q-100 0 -167 -67.5t-83 -151.5z" />
<glyph unicode="&#x11a;" horiz-adv-x="1122" d="M41 0l278 1462h867l-53 -266h-551l-62 -313h524l-53 -262h-518l-67 -355h583l-51 -266h-897zM471 1815h221l84 -140h6l127 140h242l-270 -273h-236z" />
<glyph unicode="&#x11b;" horiz-adv-x="1087" d="M61 426q0 164 73 313.5t217.5 247.5t328.5 98q162 0 265.5 -87t103.5 -232q0 -357 -634 -357q-28 0 -57 1q4 -68 35 -109q63 -82 205 -82q158 0 297 68l20 -226q-166 -86 -397 -86q-223 0 -340 119t-117 332zM389 639h25q170 0 253 27q89 29 89 102q0 39 -32 64.5 t-83 25.5q-100 0 -167 -67.5t-85 -151.5zM410 1520h202l86 -172h4l129 172h220l-263 -330h-215z" />
<glyph unicode="&#x11c;" horiz-adv-x="1460" d="M104 598q0 201 78 375t219 293q256 213 648 213q256 0 387 -66l-95 -262q-125 57 -309 57q-223 0 -373 -116q-96 -76 -154.5 -201t-58.5 -273q0 -180 100.5 -274t276.5 -94q96 0 160 26l59 308h-227l49 250h533l-148 -766q-248 -82 -475 -82q-309 0 -485 159 q-185 160 -185 453zM645 1542l268 273h238l174 -273h-219l-88 131h-4l-129 -131h-240z" />
<glyph unicode="&#x11d;" horiz-adv-x="1210" d="M25 -387l73 240q98 -59 277 -60q256 0 317 283l19 92h-6q-119 -160 -304 -160q-154 0 -246 109.5t-94 271.5q0 131 46.5 255t134.5 223.5t226 158.5t304 59q211 0 393 -73l-159 -875q-66 -344 -224 -471q-152 -121 -411 -121q-227 0 -346 68zM391 436q0 -84 37 -135 t107 -51q78 0 145.5 81t91.5 212l55 284q-43 18 -112 19q-137 0 -230.5 -127t-93.5 -283zM412 1190l264 330h215l162 -330h-201l-88 172h-4l-129 -172h-219z" />
<glyph unicode="&#x11e;" horiz-adv-x="1460" d="M104 598q0 201 78 375t219 293q256 213 648 213q256 0 387 -66l-95 -262q-125 57 -309 57q-223 0 -373 -116q-96 -76 -154.5 -201t-58.5 -273q0 -180 100.5 -274t276.5 -94q96 0 160 26l59 308h-227l49 250h533l-148 -766q-248 -82 -475 -82q-309 0 -485 159 q-185 160 -185 453zM694 1825h174q-2 -45 26 -75t89 -30q119 0 143 105h177q-20 -119 -102.5 -191.5t-234 -72.5t-217.5 73q-56 62 -57 155q0 18 2 36z" />
<glyph unicode="&#x11f;" horiz-adv-x="1210" d="M25 -387l73 240q98 -59 277 -60q256 0 317 283l19 92h-6q-119 -160 -304 -160q-154 0 -246 109.5t-94 271.5q0 131 46.5 255t134.5 223.5t226 158.5t304 59q211 0 393 -73l-159 -875q-66 -344 -224 -471q-152 -121 -411 -121q-227 0 -346 68zM391 436q0 -84 37 -135 t107 -51q78 0 145.5 81t91.5 212l55 284q-43 18 -112 19q-137 0 -230.5 -127t-93.5 -283zM506 1497h158q10 -121 102 -121q115 0 141 121h164q-20 -129 -101 -204.5t-216 -75.5q-143 0 -203 76q-48 62 -48 157q0 22 3 47z" />
<glyph unicode="&#x120;" horiz-adv-x="1460" d="M104 598q0 201 78 375t219 293q260 213 648 213q258 0 389 -66l-95 -262q-125 57 -309 57q-225 0 -375 -116q-96 -76 -154.5 -201t-58.5 -273q0 -180 100.5 -274t278.5 -94q100 0 158 26l59 308h-227l49 250h533l-146 -766q-252 -82 -477 -82q-309 0 -485 159 q-185 160 -185 453zM864 1686q0 68 48.5 113.5t113.5 45.5q63 0 102 -40t39 -101q0 -70 -46 -114t-113 -44q-59 0 -101.5 39.5t-42.5 100.5z" />
<glyph unicode="&#x121;" horiz-adv-x="1210" d="M25 -387l73 240q98 -59 277 -60q260 0 317 283l21 92h-8q-119 -160 -304 -160q-154 0 -246 109.5t-94 271.5q0 131 46.5 255t134.5 223.5t226 158.5t304 59q213 0 393 -73l-159 -875q-66 -346 -224 -471q-152 -121 -411 -121q-227 0 -346 68zM391 436q0 -84 37 -135 t107 -51q78 0 146.5 81t90.5 212l55 284q-43 18 -112 19q-137 0 -230.5 -127t-93.5 -283zM623 1343q0 74 48 121t117 47q66 0 106 -39.5t40 -105.5q0 -74 -48 -120t-118 -46q-59 0 -102 40t-43 103z" />
<glyph unicode="&#x122;" horiz-adv-x="1460" d="M104 598q0 201 78 375t219 293q256 213 648 213q256 0 387 -66l-95 -262q-125 57 -309 57q-223 0 -373 -116q-96 -76 -154.5 -201t-58.5 -273q0 -180 100.5 -274t276.5 -94q96 0 160 26l59 308h-227l49 250h533l-148 -766q-248 -82 -475 -82q-309 0 -485 159 q-185 160 -185 453zM467 -377q68 10 118 48t50 99.5t-45 100.5l233 41q55 -49 56 -137q0 -139 -115 -214t-266 -81z" />
<glyph unicode="&#x123;" horiz-adv-x="1210" d="M25 -387l73 240q98 -59 277 -60q260 0 317 283l21 92h-8q-119 -160 -304 -160q-154 0 -246 109.5t-94 271.5q0 131 46.5 255t134.5 223.5t226 158.5t304 59q213 0 393 -73l-159 -875q-61 -342 -224 -471q-152 -121 -411 -121q-227 0 -346 68zM391 436q0 -84 37 -135 t107 -51q78 0 145.5 81t91.5 212l55 284q-43 18 -112 19q-137 0 -230.5 -127t-93.5 -283zM625 1292q0 139 114.5 214t259.5 81l29 -143q-68 -10 -119 -49t-51 -99.5t43 -103.5l-219 -39q-57 51 -57 139z" />
<glyph unicode="&#x124;" horiz-adv-x="1443" d="M41 0l278 1462h312l-109 -569h531l108 569h316l-279 -1462h-313l116 614h-532l-115 -614h-313zM573 1542l269 273h237l174 -273h-219l-88 131h-4l-127 -131h-242z" />
<glyph unicode="&#x125;" horiz-adv-x="1220" d="M29 0l293 1542h313l-121 -616h4q145 160 340 159q123 0 194.5 -74.5t71.5 -211.5q0 -82 -18 -191l-117 -608h-311l110 582q12 61 13 131q0 121 -107 121q-84 0 -157.5 -95.5t-102.5 -253.5l-94 -485h-311zM156 1608l268 274h235l175 -274h-220l-86 133h-6l-125 -133h-241 z" />
<glyph unicode="&#x126;" horiz-adv-x="1443" d="M43 0l195 1024h-175l39 195h172l48 243h313l-49 -243h530l47 243h314l-45 -243h155l-39 -195h-153l-195 -1024h-315l106 563h-528l-107 -563h-313zM514 840h530l35 184h-530z" />
<glyph unicode="&#x127;" horiz-adv-x="1220" d="M29 0l223 1180h-193l33 170h193l37 192h313l-37 -192h356l-32 -170h-357l-51 -254h4q145 160 340 159q123 0 194.5 -74.5t71.5 -211.5q0 -82 -18 -191l-117 -608h-311l110 582q12 61 13 131q0 121 -107 121q-84 0 -157.5 -95.5t-102.5 -253.5l-94 -485h-311z" />
<glyph unicode="&#x128;" horiz-adv-x="593" d="M33 0l278 1462h312l-277 -1462h-313zM176 1548q18 135 76.5 204t138.5 69q70 0 137 -43q61 -41 88 -41q47 0 74 94h150q-43 -268 -217 -268q-74 0 -140 41q-61 39 -86 38q-45 0 -67 -94h-154z" />
<glyph unicode="&#x129;" horiz-adv-x="573" d="M29 0l198 1061h314l-203 -1061h-309zM129 1210q16 131 70.5 203t136.5 72q61 0 135 -43q63 -41 84 -41q27 0 41 19.5t29 74.5h149q-39 -266 -211 -266q-78 0 -139 41q-51 39 -84 39q-41 0 -59 -99h-152z" />
<glyph unicode="&#x12a;" horiz-adv-x="593" d="M35 0l278 1462h310l-275 -1462h-313zM221 1593l33 172h551l-35 -172h-549z" />
<glyph unicode="&#x12b;" horiz-adv-x="573" d="M29 0l200 1061h314l-203 -1061h-311zM158 1268l35 170h534l-35 -170h-534z" />
<glyph unicode="&#x12c;" horiz-adv-x="593" d="M35 0l278 1462h312l-277 -1462h-313zM227 1829h174q0 -47 29 -77t86 -30q121 0 143 107h179q-20 -121 -103.5 -193.5t-235 -72.5t-217.5 73q-56 62 -57 157q0 17 2 36z" />
<glyph unicode="&#x12d;" horiz-adv-x="573" d="M29 0l200 1061h314l-203 -1061h-311zM188 1497h160q4 -121 101 -121q111 0 141 121h164q-23 -129 -104 -204.5t-216 -75.5q-143 0 -202 76q-47 62 -46 156q-1 23 2 48z" />
<glyph unicode="&#x12e;" horiz-adv-x="593" d="M-96 -283q0 125 133 287l276 1458h312l-277 -1462h-137q-78 -102 -78 -184q0 -39 23.5 -62.5t66.5 -23.5q47 0 103 18l20 -151q-88 -72 -229 -72q-102 0 -157.5 50t-55.5 142z" />
<glyph unicode="&#x12f;" horiz-adv-x="573" d="M-102 -283q0 125 133 287l198 1057h314l-203 -1061h-135q-80 -102 -80 -184q0 -39 24.5 -62.5t67.5 -23.5q45 0 100 18l19 -151q-86 -72 -225 -72q-102 0 -157.5 50t-55.5 142zM264 1364q0 82 56.5 135t136.5 53q74 0 120 -45t46 -118q0 -86 -57.5 -137.5t-141.5 -51.5 q-70 0 -115 46t-45 118z" />
<glyph unicode="&#x130;" horiz-adv-x="593" d="M33 0l278 1462h312l-277 -1462h-313zM367 1686q0 68 48 113.5t115 45.5q61 0 101.5 -40t40.5 -101q0 -70 -47 -114t-115 -44q-59 0 -101 39.5t-42 100.5z" />
<glyph unicode="&#x131;" horiz-adv-x="573" d="M29 0l200 1061h314l-203 -1061h-311z" />
<glyph unicode="&#x132;" horiz-adv-x="1460" d="M35 0l278 1462h312l-277 -1462h-313zM518 10l60 269q82 -27 176 -27q106 0 168.5 64.5t93.5 220.5l176 925h313l-186 -964q-51 -279 -181 -401t-380 -122q-158 0 -240 35z" />
<glyph unicode="&#x133;" horiz-adv-x="1171" d="M29 0l200 1061h314l-203 -1061h-311zM274 1346q0 78 53.5 128t127.5 50q68 0 111.5 -42t43.5 -112q0 -80 -53 -128t-129 -48h-4q-66 0 -108 42t-42 110zM369 -436l32 233q43 -4 70 -4q61 0 102 48t66 182l197 1038h313l-195 -1024q-47 -264 -149 -377q-96 -115 -289 -115 q-86 1 -147 19zM870 1346q0 78 53.5 128t127.5 50q70 0 112.5 -42t42.5 -112q0 -80 -53 -128t-133 -48q-66 0 -108 42t-42 110z" />
<glyph unicode="&#x134;" horiz-adv-x="864" d="M-78 10l62 269q78 -27 172 -27q109 0 172 64.5t94 220.5l176 925h311l-184 -964q-53 -281 -184 -402t-377 -121q-158 0 -242 35zM424 1542l268 273h238l172 -273h-219l-88 131h-4l-127 -131h-240z" />
<glyph unicode="&#x135;" horiz-adv-x="595" d="M-209 -436l35 233q43 -4 70 -4q63 0 103 48t67 182l194 1038h311l-190 -1026q-51 -266 -152 -375q-96 -115 -288 -115q-87 1 -150 19zM96 1190l264 330h207l162 -330h-199l-86 186h-4l-127 -186h-217z" />
<glyph unicode="&#x136;" horiz-adv-x="1280" d="M41 0l276 1462h308l-123 -653h6q45 63 133 168l406 485h391l-594 -631l340 -831h-342l-244 637l-156 -150l-92 -487h-309zM293 -377q68 10 118 48t50 98.5t-43 105.5l231 37q55 -49 56 -137q0 -139 -115 -214t-264 -81z" />
<glyph unicode="&#x137;" horiz-adv-x="1148" d="M29 0l290 1542h310l-172 -924h4l94 119l272 324h387l-454 -438l295 -623h-346l-189 455l-117 -115l-65 -340h-309zM227 -377q68 10 118 48t50 98.5t-43 105.5l232 37q57 -49 57 -137q0 -139 -115.5 -214t-265.5 -81z" />
<glyph unicode="&#x138;" horiz-adv-x="1148" d="M29 0l200 1061h312l-84 -443h4l94 119l272 324h387l-452 -438l295 -623h-348l-189 455l-117 -115l-65 -340h-309z" />
<glyph unicode="&#x139;" horiz-adv-x="1056" d="M41 0l278 1462h312l-225 -1188h563l-51 -274h-877zM383 1542l205 273h348l-287 -273h-266z" />
<glyph unicode="&#x13a;" horiz-adv-x="573" d="M29 0l295 1542h313l-297 -1542h-311zM334 1624l205 272h346l-285 -272h-266z" />
<glyph unicode="&#x13b;" horiz-adv-x="1056" d="M39 0l278 1462h312l-226 -1188h564l-52 -274h-876zM195 -377q68 10 117.5 48t49.5 98.5t-43 105.5l232 37q57 -49 57 -137q0 -139 -115.5 -214t-265.5 -81z" />
<glyph unicode="&#x13c;" horiz-adv-x="573" d="M-72 -377q68 10 118 48t50 98.5t-45 105.5l234 37q55 -49 55 -137q0 -139 -114.5 -214t-264.5 -81zM31 0l293 1542h313l-295 -1542h-311z" />
<glyph unicode="&#x13d;" horiz-adv-x="1056" d="M41 0l278 1462h312l-225 -1188h563l-51 -274h-877zM686 1186q68 10 118 48t50 99q0 57 -45 103l233 39q55 -53 56 -138q0 -139 -115 -213.5t-264 -81.5z" />
<glyph unicode="&#x13e;" horiz-adv-x="591" d="M29 0l295 1542h313l-297 -1542h-311zM637 1200q47 39 81 104.5t34 135.5q0 53 -23 90l211 37q47 -47 47 -133q0 -121 -71.5 -213.5t-157.5 -130.5z" />
<glyph unicode="&#x13f;" horiz-adv-x="1062" d="M41 0l278 1462h312l-225 -1188h563l-54 -274h-874zM696 807q0 70 48.5 116t115.5 46q61 0 101 -42t40 -100q0 -70 -47 -114.5t-114 -44.5q-57 0 -100.5 40t-43.5 99z" />
<glyph unicode="&#x140;" horiz-adv-x="772" d="M29 0l295 1542h313l-297 -1542h-311zM573 766q0 70 44.5 116t109.5 46q61 0 98 -40t37 -102q0 -72 -45 -115.5t-108 -43.5q-57 0 -96.5 39t-39.5 100z" />
<glyph unicode="&#x141;" horiz-adv-x="1081" d="M-23 399l48 228l182 112l135 723h313l-98 -506l301 187l-41 -234l-303 -182l-84 -453h561l-51 -274h-874l98 510z" />
<glyph unicode="&#x142;" horiz-adv-x="602" d="M-23 387l48 234l157 108l156 813h311l-108 -567l176 119l-45 -236l-176 -121l-140 -737h-313l96 496z" />
<glyph unicode="&#x143;" horiz-adv-x="1443" d="M41 0l278 1462h367l193 -557q78 -250 133 -499h6q8 205 67 526l101 530h293l-279 -1462h-323l-203 584q-94 285 -144 510h-8q-20 -199 -92 -582l-98 -512h-291zM739 1542l205 273h348l-286 -273h-267z" />
<glyph unicode="&#x144;" horiz-adv-x="1220" d="M27 0l133 717q16 74 59 344h277l-21 -176h4q145 201 373 200q129 0 200.5 -75.5t71.5 -214.5q0 -74 -16 -179l-119 -616h-313l112 588q10 61 11 117q0 129 -107 129q-80 0 -156.5 -97.5t-107.5 -265.5l-90 -471h-311zM594 1190l205 330h309l-283 -330h-231z" />
<glyph unicode="&#x145;" horiz-adv-x="1443" d="M41 0l276 1462h367l193 -557q80 -244 135 -499h4q8 205 67 526l103 530h291l-277 -1462h-323l-203 584q-102 307 -144 510h-10q-20 -199 -92 -582l-96 -512h-291zM383 -377q66 10 116 48t50 98.5t-43 105.5l231 37q57 -49 58 -137q0 -139 -115 -214t-266 -81z" />
<glyph unicode="&#x146;" horiz-adv-x="1220" d="M27 0l133 717q16 74 59 344h277l-21 -176h4q145 201 373 200q129 0 200.5 -75.5t71.5 -214.5q0 -74 -16 -179l-119 -616h-313l112 588q10 61 11 117q0 129 -107 129q-80 0 -156.5 -97.5t-107.5 -265.5l-90 -471h-311zM264 -377q68 10 118 48t50 98.5t-43 105.5l232 37 q57 -49 57 -137q0 -139 -116 -214t-265 -81z" />
<glyph unicode="&#x147;" horiz-adv-x="1443" d="M41 0l278 1462h367l193 -557q78 -250 133 -499h6q8 205 67 526l101 530h293l-279 -1462h-323l-203 584q-94 285 -144 510h-8q-20 -199 -92 -582l-98 -512h-291zM627 1815h219l88 -140h4l127 140h242l-269 -273h-237z" />
<glyph unicode="&#x148;" horiz-adv-x="1220" d="M27 0l133 717q16 74 59 344h277l-21 -176h4q145 201 373 200q129 0 200.5 -75.5t71.5 -214.5q0 -74 -16 -179l-119 -616h-313l112 588q10 61 11 117q0 129 -107 129q-80 0 -156.5 -97.5t-107.5 -265.5l-90 -471h-311zM434 1520h203l86 -172h4l129 172h221l-266 -330h-213 z" />
<glyph unicode="&#x149;" horiz-adv-x="1220" d="M27 0l133 717q16 74 59 344h277l-21 -176h4q145 201 373 200q129 0 200.5 -75.5t71.5 -214.5q0 -74 -16 -179l-119 -616h-313l112 588q10 61 11 117q0 129 -107 129q-80 0 -156.5 -97.5t-107.5 -265.5l-90 -471h-311zM123 1319q43 14 73.5 55t30.5 92q0 63 -41 105 l217 37q57 -47 58 -138q0 -135 -97.5 -210.5t-205.5 -81.5z" />
<glyph unicode="&#x14a;" horiz-adv-x="1443" d="M41 0l278 1462h367l193 -557q78 -250 133 -499h6q10 225 67 526l101 530h293l-258 -1364q-57 -295 -209 -422t-385 -137l-29 250q233 27 281 195l-205 600q-96 293 -144 510h-8q-18 -190 -92 -582l-98 -512h-291z" />
<glyph unicode="&#x14b;" horiz-adv-x="1220" d="M27 0l133 717q23 106 59 344h277l-21 -176h4q145 201 369 200q131 0 203.5 -76.5t72.5 -215.5q0 -72 -16 -177l-96 -501q-55 -287 -188.5 -404t-344.5 -123l-28 256q102 10 159.5 65.5t83.5 184.5l94 494q10 61 11 117q0 129 -107 129q-80 0 -156.5 -97.5t-107.5 -265.5 l-90 -471h-311z" />
<glyph unicode="&#x14c;" horiz-adv-x="1529" d="M104 586q0 201 71 386t198 306q219 209 534 209q283 0 436.5 -169t153.5 -441q0 -201 -67.5 -384.5t-192.5 -306.5q-217 -211 -541 -211q-274 0 -433 173.5t-159 437.5zM436 598q0 -164 77 -262t230 -98q137 0 244 104q84 84 131 236.5t47 289.5q0 156 -68.5 257.5 t-226.5 101.5q-145 0 -252 -111q-84 -82 -133 -231.5t-49 -286.5zM672 1593l30 172h553l-34 -172h-549z" />
<glyph unicode="&#x14d;" horiz-adv-x="1212" d="M66 418q0 279 178 474t454 195q207 0 329 -124.5t122 -313.5q0 -291 -179 -482.5t-456 -191.5q-201 0 -324.5 122t-123.5 321zM389 422q0 -96 44 -151.5t126 -55.5q119 0 192.5 140.5t73.5 291.5q0 82 -41 141.5t-126 59.5t-149.5 -74t-92 -169t-27.5 -183zM479 1268 l33 170h535l-33 -170h-535z" />
<glyph unicode="&#x14e;" horiz-adv-x="1529" d="M104 586q0 201 71 386t198 306q219 209 534 209q283 0 436.5 -169t153.5 -441q0 -201 -67.5 -384.5t-192.5 -306.5q-217 -211 -541 -211q-274 0 -433 173.5t-159 437.5zM436 598q0 -164 77 -262t230 -98q137 0 244 104q84 84 131 236.5t47 289.5q0 156 -68.5 257.5 t-226.5 101.5q-145 0 -252 -111q-84 -82 -133 -231.5t-49 -286.5zM678 1831h174q0 -47 27.5 -77t87.5 -30q119 0 143 107h178q-23 -121 -105.5 -193.5t-234 -72.5t-218.5 73q-55 61 -55 152q0 20 3 41z" />
<glyph unicode="&#x14f;" horiz-adv-x="1212" d="M66 418q0 279 178 474t454 195q207 0 329 -124.5t122 -313.5q0 -291 -179 -482.5t-456 -191.5q-201 0 -324.5 122t-123.5 321zM389 422q0 -96 44 -151.5t126 -55.5q119 0 192.5 140.5t73.5 291.5q0 82 -41 141.5t-126 59.5t-149.5 -74t-92 -169t-27.5 -183zM506 1497h158 q4 -121 100 -121q115 0 141 121h164q-20 -129 -102 -204.5t-215 -75.5q-143 0 -202 76q-47 62 -47 156q0 23 3 48z" />
<glyph unicode="&#x150;" horiz-adv-x="1529" d="M104 586q0 201 71 386t198 306q219 209 534 209q283 0 436.5 -169t153.5 -441q0 -201 -67.5 -384.5t-192.5 -306.5q-217 -211 -541 -211q-274 0 -433 173.5t-159 437.5zM436 598q0 -164 77 -262t230 -98q137 0 244 104q84 84 131 236.5t47 289.5q0 156 -68.5 257.5 t-226.5 101.5q-145 0 -252 -111q-84 -82 -133 -231.5t-49 -286.5zM606 1559l187 258h305l-262 -258h-230zM1004 1559l186 258h303l-262 -258h-227z" />
<glyph unicode="&#x151;" horiz-adv-x="1212" d="M66 418q0 279 178 474t454 195q207 0 329 -124.5t122 -313.5q0 -291 -179 -482.5t-456 -191.5q-201 0 -324.5 122t-123.5 321zM389 422q0 -96 44 -151.5t126 -55.5q119 0 192.5 140.5t73.5 291.5q0 82 -41 141.5t-126 59.5t-149.5 -74t-92 -169t-27.5 -183zM397 1190 l183 330h264l-260 -330h-187zM776 1190l185 330h264l-260 -330h-189z" />
<glyph unicode="&#x152;" horiz-adv-x="1972" d="M92 598q0 375 243 631t648 256q72 0 191 -10q102 -12 149 -13h709l-50 -266h-561l-55 -313h524l-49 -262h-528l-64 -355h588l-49 -266h-772q-41 0 -117 -10q-66 -12 -176 -13q-295 0 -463 173.5t-168 447.5zM426 618q0 -172 97.5 -275t271.5 -103q70 0 139 16l178 946 q-59 23 -149 23q-238 0 -387.5 -178.5t-149.5 -428.5z" />
<glyph unicode="&#x153;" horiz-adv-x="1792" d="M61 430q0 283 170 470t416 187q254 0 346 -190h6q145 190 396 190q170 0 263 -90t93 -213q0 -371 -634 -371q-20 0 -42 1q-1 -8 -1 -17q0 -49 32 -94q63 -82 206.5 -82t289.5 66l20 -219q-156 -92 -381 -93q-254 0 -360 189h-7q-129 -188 -380 -189q-193 0 -313 124 t-120 331zM385 434q0 -98 44 -157.5t122 -59.5q84 0 146.5 72.5t91 167t28.5 184.5q0 213 -164 213q-123 0 -195.5 -133t-72.5 -287zM1106 643h42q313 0 312 119q0 41 -30.5 69.5t-96.5 28.5q-88 0 -147.5 -66.5t-79.5 -150.5z" />
<glyph unicode="&#x154;" horiz-adv-x="1263" d="M43 0l274 1438q152 37 392 37q252 0 383 -86q164 -94 163 -283q0 -158 -91 -263.5t-242 -152.5v-6q119 -53 139 -266q4 -45 16.5 -158t21.5 -172t19 -88h-321q-23 63 -41 346q-10 129 -57.5 180.5t-143.5 51.5h-94l-109 -578h-309zM508 811h129q127 0 210 69.5t83 176.5 q0 86 -62.5 129t-162.5 43q-78 0 -121 -10zM600 1542l203 273h348l-287 -273h-264z" />
<glyph unicode="&#x155;" horiz-adv-x="802" d="M29 0l118 631q8 45 56 430h270q0 -6 -7 -89l-11 -128h6q129 242 338 241q39 0 59 -2l-61 -303q-14 2 -49 2q-262 0 -334 -387l-74 -395h-311zM369 1190l204 330h308l-281 -330h-231z" />
<glyph unicode="&#x156;" horiz-adv-x="1263" d="M41 0l274 1438q152 37 394 37q252 0 383 -86q164 -94 163 -283q0 -158 -91 -263.5t-242 -152.5v-6q119 -53 139 -266q4 -45 16.5 -158t21.5 -172t19 -88h-323q-18 63 -41 346q-8 129 -55.5 180.5t-143.5 51.5h-94l-109 -578h-311zM287 -377q68 10 118 48t50 98.5 t-45 105.5l233 37q55 -49 55 -137q0 -139 -114.5 -214t-264.5 -81zM506 811h129q127 0 211 69.5t84 176.5q0 86 -62.5 129t-162.5 43q-76 0 -123 -10z" />
<glyph unicode="&#x157;" horiz-adv-x="802" d="M-35 -377q68 10 118 48t50 98.5t-45 105.5l234 37q55 -49 55 -137q0 -139 -115 -214t-264 -81zM29 0l118 631q8 45 56 430h270q0 -6 -7 -89l-11 -128h6q129 242 338 241q39 0 59 -2l-61 -303q-14 2 -49 2q-262 0 -334 -387l-74 -395h-311z" />
<glyph unicode="&#x158;" horiz-adv-x="1263" d="M43 0l274 1438q152 37 392 37q252 0 383 -86q164 -94 163 -283q0 -158 -91 -263.5t-242 -152.5v-6q119 -53 139 -266q4 -45 16.5 -158t21.5 -172t19 -88h-321q-23 63 -41 346q-10 129 -57.5 180.5t-143.5 51.5h-94l-109 -578h-309zM467 1815h221l84 -140h4l129 140h242 l-270 -273h-236zM508 811h129q127 0 210 69.5t83 176.5q0 86 -62.5 129t-162.5 43q-78 0 -121 -10z" />
<glyph unicode="&#x159;" horiz-adv-x="802" d="M29 0l118 631q8 45 56 430h270q0 -6 -7 -89l-11 -128h6q129 242 338 241q39 0 59 -2l-61 -303q-14 2 -49 2q-262 0 -334 -387l-74 -395h-311zM260 1520h203l86 -172h4l129 172h221l-264 -330h-215z" />
<glyph unicode="&#x15a;" horiz-adv-x="1105" d="M0 80l104 258q156 -92 345 -92q98 0 165.5 44t67.5 124q0 61 -46 107t-153 102q-301 162 -301 387q0 217 164 346t412 129q207 0 344 -72l-96 -260q-117 64 -264 64h-9q-106 0 -164.5 -45.5t-58.5 -108.5q0 -57 51 -101t162 -106q291 -152 291 -387.5t-169 -364.5 t-425 -129q-279 3 -420 105zM565 1542l203 273h348l-287 -273h-264z" />
<glyph unicode="&#x15b;" horiz-adv-x="901" d="M-8 61l76 220q147 -74 274 -74q66 0 100.5 26.5t34.5 67.5q0 39 -28.5 70.5t-102.5 66.5q-225 113 -225 283q0 164 131 265t336 101q174 0 274 -53l-76 -223q-102 47 -211 47q-63 0 -101 -25.5t-38 -68.5q0 -59 129 -121q238 -121 238 -291q0 -178 -135 -277 q-132 -97 -344 -98h-9q-214 6 -323 84zM403 1190l205 330h307l-280 -330h-232z" />
<glyph unicode="&#x15c;" horiz-adv-x="1105" d="M0 80l104 258q156 -92 345 -92q98 0 165.5 44t67.5 124q0 61 -46 107t-153 102q-301 162 -301 387q0 217 164 346t412 129q207 0 344 -72l-96 -260q-117 64 -264 64h-9q-106 0 -164.5 -45.5t-58.5 -108.5q0 -57 51 -101t162 -106q291 -152 291 -387.5t-169 -364.5 t-425 -129q-279 3 -420 105zM403 1542l271 273h235l174 -273h-219l-88 131h-4l-127 -131h-242z" />
<glyph unicode="&#x15d;" horiz-adv-x="901" d="M-8 61l76 220q147 -74 274 -74q66 0 100.5 26.5t34.5 67.5q0 39 -28.5 70.5t-102.5 66.5q-225 113 -225 283q0 164 131 265t336 101q174 0 274 -53l-76 -223q-102 47 -211 47q-63 0 -101 -25.5t-38 -68.5q0 -59 129 -121q238 -121 238 -291q0 -178 -135 -277 q-132 -97 -344 -98h-9q-214 6 -323 84zM252 1190l262 330h215l164 -330h-203l-86 172h-4l-129 -172h-219z" />
<glyph unicode="&#x15e;" horiz-adv-x="1105" d="M0 82l104 256q158 -90 345 -90q98 0 165.5 44t67.5 126q0 59 -46 105t-153 102q-301 162 -301 385q0 217 164 346t412 129q207 0 344 -72l-96 -260q-117 64 -264 64h-9q-106 0 -164.5 -45.5t-58.5 -108.5q0 -29 14.5 -55.5t48 -53t63.5 -45l87 -51.5q291 -154 291 -387 q0 -195 -121 -319.5t-318 -159.5l-59 -86q59 -12 96 -51t37 -97q0 -104 -84 -154t-190 -50q-109 0 -168 45l53 122q57 -35 115 -34q82 0 82 61q0 68 -158 78l100 151h-14q-90 0 -204.5 29t-180.5 76z" />
<glyph unicode="&#x15f;" horiz-adv-x="901" d="M-8 61l76 220q147 -74 274 -74q66 0 100.5 26.5t34.5 67.5q0 39 -28.5 70.5t-102.5 66.5q-225 113 -225 283q0 164 131 265t336 101q174 0 274 -53l-76 -223q-102 47 -211 47q-63 0 -101 -25.5t-38 -68.5q0 -61 129 -119q238 -119 238 -293q0 -143 -89 -236t-239 -124 l-61 -86q59 -12 96 -50t37 -89q0 -104 -83 -155.5t-190 -51.5q-109 0 -170 45l54 116q57 -35 116 -34q80 0 80 61q0 68 -159 78l100 151h-8q-72 0 -161 25.5t-134 58.5z" />
<glyph unicode="&#x160;" horiz-adv-x="1105" d="M0 80l104 258q156 -92 345 -92q98 0 165.5 44t67.5 124q0 61 -46 107t-153 102q-301 162 -301 387q0 217 164 346t412 129q207 0 344 -72l-96 -260q-117 64 -264 64h-9q-106 0 -164.5 -45.5t-58.5 -108.5q0 -57 51 -101t162 -106q291 -152 291 -387.5t-169 -364.5 t-425 -129q-279 3 -420 105zM442 1815h220l86 -140h6l125 140h241l-266 -273h-240z" />
<glyph unicode="&#x161;" horiz-adv-x="901" d="M-8 61l76 220q147 -74 274 -74q66 0 100.5 26.5t34.5 67.5q0 39 -28.5 70.5t-102.5 66.5q-225 113 -225 283q0 164 131 265t336 101q174 0 274 -53l-76 -223q-102 47 -211 47q-63 0 -101 -25.5t-38 -68.5q0 -59 129 -121q238 -121 238 -291q0 -178 -135 -277 q-132 -97 -344 -98h-9q-214 6 -323 84zM301 1520h203l86 -172h4l129 172h221l-264 -330h-215z" />
<glyph unicode="&#x162;" horiz-adv-x="1142" d="M145 1190l56 272h1089l-55 -272h-391l-223 -1190h-312l223 1190h-387zM207 -377q68 10 117 48t49 98.5t-43 105.5l233 37q55 -49 55 -137q0 -139 -114.5 -214t-263.5 -81z" />
<glyph unicode="&#x163;" horiz-adv-x="753" d="M35 -377q68 10 118 48t50 100q0 57 -45 100l233 41q55 -53 55 -137q0 -139 -114.5 -214t-261.5 -81zM86 825l45 238h135l39 201l322 86l-54 -287h228l-47 -238h-226l-71 -360q-18 -82 -19 -135q0 -88 92 -88q57 0 84 4l-34 -246q-66 -25 -185 -25q-137 0 -207.5 63.5 t-70.5 168.5q0 84 24 196l80 422h-135z" />
<glyph unicode="&#x164;" horiz-adv-x="1142" d="M145 1190l56 272h1087l-53 -272h-391l-226 -1190h-313l227 1190h-387zM465 1815h219l86 -140h4l129 140h242l-271 -273h-235z" />
<glyph unicode="&#x165;" horiz-adv-x="753" d="M86 825l45 238h135l39 199l322 88l-54 -287h228l-47 -238h-226l-71 -360q-18 -82 -19 -135q0 -88 92 -88q57 0 84 4l-34 -246q-66 -25 -185 -25q-137 0 -207.5 63.5t-70.5 168.5q0 84 24 196l80 422h-135zM733 1294q37 16 61.5 54t24.5 84q0 55 -33 108l207 37 q61 -53 62 -141q0 -117 -80 -186.5t-170 -86.5z" />
<glyph unicode="&#x166;" horiz-adv-x="1142" d="M145 1190l56 272h1087l-53 -272h-391l-70 -367h268l-36 -194h-269l-119 -629h-309l117 629h-254l37 194h254l69 367h-387z" />
<glyph unicode="&#x167;" horiz-adv-x="753" d="M47 504l35 170h111l28 151h-135l45 238h135l39 201l322 86l-54 -287h228l-47 -238h-226l-30 -151h196l-32 -170h-199l-17 -82q-8 -45 -8 -92q0 -88 92 -88q57 0 84 4l-34 -246q-66 -25 -185 -25q-137 0 -207.5 63.5t-70.5 168.5q0 68 24 196l17 101h-111z" />
<glyph unicode="&#x168;" horiz-adv-x="1421" d="M137 442q0 90 21 205l155 815h312l-158 -841q-18 -80 -18 -172.5t55 -150.5t158 -58q127 0 205.5 90t117.5 288l162 844h311l-158 -831q-66 -338 -224 -497t-453 -159h-8q-224 0 -350 118q-128 120 -128 349zM610 1552q18 135 76.5 204t138.5 69q70 0 138 -43 q61 -41 88 -41q47 0 73 94h150q-43 -268 -217 -268q-74 0 -139 41q-61 41 -87 41q-45 0 -67 -97h-154z" />
<glyph unicode="&#x169;" horiz-adv-x="1214" d="M88 274q0 88 23 195l112 592h314l-109 -567q-16 -88 -16 -142q0 -123 106 -123q84 0 155.5 92.5t100.5 247.5l94 492h312l-136 -715q-33 -166 -57 -346h-274l18 172l-4 2q-155 -199 -365 -199q-131 0 -202.5 74.5t-71.5 224.5zM449 1210q18 131 72 203t136 72 q61 0 136 -43q63 -41 84 -41q27 0 41 19.5t28 74.5h150q-39 -266 -213 -266q-76 0 -135 41q-51 39 -84 39q-43 0 -62 -99h-153z" />
<glyph unicode="&#x16a;" horiz-adv-x="1421" d="M137 442q0 90 21 205l155 815h312l-158 -841q-18 -80 -18 -172.5t55 -150.5t158 -58q127 0 205.5 90t117.5 288l162 844h311l-158 -831q-66 -338 -224 -497t-453 -159h-8q-224 0 -350 118q-128 120 -128 349zM635 1593l33 172h553l-35 -172h-551z" />
<glyph unicode="&#x16b;" horiz-adv-x="1214" d="M88 274q0 88 23 195l112 592h314l-109 -567q-16 -88 -16 -142q0 -123 106 -123q84 0 155.5 92.5t100.5 247.5l94 492h312l-136 -715q-33 -166 -57 -346h-274l18 172l-4 2q-155 -199 -365 -199q-131 0 -202.5 74.5t-71.5 224.5zM475 1268l35 170h534l-34 -170h-535z" />
<glyph unicode="&#x16c;" horiz-adv-x="1421" d="M137 442q0 90 21 205l155 815h312l-158 -841q-18 -80 -18 -172.5t55 -150.5t158 -58q127 0 205.5 90t117.5 288l162 844h311l-158 -831q-66 -338 -224 -497t-453 -159h-8q-224 0 -350 118q-128 120 -128 349zM641 1815h174q0 -45 27.5 -76t87.5 -31q119 0 143 107h178 q-23 -119 -105.5 -192t-234 -73t-218.5 74q-55 61 -55 151q0 19 3 40z" />
<glyph unicode="&#x16d;" horiz-adv-x="1214" d="M88 274q0 88 23 195l112 592h314l-109 -567q-16 -88 -16 -142q0 -123 106 -123q84 0 155.5 92.5t100.5 247.5l94 492h312l-136 -715q-33 -166 -57 -346h-274l18 172l-4 2q-155 -199 -365 -199q-131 0 -202.5 74.5t-71.5 224.5zM492 1497h157q4 -121 103 -121 q111 0 141 121h160q-18 -129 -100.5 -204.5t-217.5 -75.5q-143 0 -201 76q-46 60 -46 151q0 25 4 53z" />
<glyph unicode="&#x16e;" horiz-adv-x="1421" d="M137 442q0 90 21 205l155 815h312l-158 -841q-18 -80 -18 -172.5t55 -150.5t158 -58q127 0 205.5 90t117.5 288l162 844h311l-158 -831q-66 -338 -224 -497t-453 -159h-8q-224 0 -350 118q-128 120 -128 349zM661 1703q0 99 73 160q75 62 196 62q102 0 167.5 -52 t65.5 -144q-2 -102 -77.5 -161t-190.5 -59q-96 0 -164 53q-70 53 -70 141zM817 1708q0 -41 23.5 -66.5t64.5 -25.5q45 0 75 29.5t30 73.5t-24.5 72t-70 28t-72 -31t-26.5 -80z" />
<glyph unicode="&#x16f;" horiz-adv-x="1214" d="M88 274q0 88 23 195l112 592h314l-109 -567q-16 -88 -16 -142q0 -123 106 -123q84 0 155.5 92.5t100.5 247.5l94 492h312l-136 -715q-33 -166 -57 -346h-274l18 172l-4 2q-155 -199 -365 -199q-131 0 -202.5 74.5t-71.5 224.5zM518 1370q0 101 73 162q75 63 195 63 q98 0 165 -53t67 -151q-2 -102 -79 -163t-189 -61q-96 0 -163 54q-69 55 -69 149zM668 1372q0 -39 25.5 -67.5t68.5 -28.5q47 0 76.5 31.5t29.5 78.5q0 45 -24.5 73t-73.5 28q-45 0 -73.5 -33t-28.5 -82z" />
<glyph unicode="&#x170;" horiz-adv-x="1421" d="M137 442q0 90 21 205l155 815h312l-158 -841q-18 -80 -18 -172.5t55 -150.5t158 -58q127 0 205.5 90t117.5 288l162 844h311l-158 -831q-66 -338 -224 -497t-453 -159h-8q-224 0 -350 118q-128 120 -128 349zM553 1559l186 258h308l-263 -258h-231zM950 1559l187 258h305 l-262 -258h-230z" />
<glyph unicode="&#x171;" horiz-adv-x="1214" d="M88 274q0 88 23 195l112 592h314l-109 -567q-16 -88 -16 -142q0 -123 106 -123q84 0 155.5 92.5t100.5 247.5l94 492h312l-136 -715q-33 -166 -57 -346h-274l18 172l-4 2q-155 -199 -365 -199q-131 0 -202.5 74.5t-71.5 224.5zM412 1190l182 330h266l-260 -330h-188z M793 1190l182 330h264l-260 -330h-186z" />
<glyph unicode="&#x172;" horiz-adv-x="1421" d="M137 442q0 88 21 207l155 813h312l-158 -839q-18 -82 -18 -174.5t55 -150.5t155 -58q127 0 206 90t118 288l162 844h311l-156 -831q-47 -248 -144 -397.5t-259 -208.5q-51 -20 -105.5 -57.5t-86 -86.5t-31.5 -86q0 -25 17.5 -41t42 -16t100.5 14l36 -155 q-88 -61 -229 -62q-96 0 -149.5 48t-53.5 134q0 133 152 263h-39q-195 16 -304.5 133.5t-109.5 328.5z" />
<glyph unicode="&#x173;" horiz-adv-x="1214" d="M88 274q0 88 23 195l112 592h314l-109 -567q-16 -88 -16 -142q0 -123 106 -123q84 0 155.5 92.5t100.5 247.5l94 492h312l-136 -715q-41 -229 -57 -346l-98 2q-80 -102 -80 -184q0 -39 24.5 -62.5t67.5 -23.5q47 0 103 18l18 -151q-86 -72 -227 -72q-102 0 -157.5 50 t-55.5 142q0 125 133 287l16 166l-4 2q-155 -199 -365 -199q-131 0 -202.5 74.5t-71.5 224.5z" />
<glyph unicode="&#x174;" horiz-adv-x="1873" d="M201 1462h315v-651q0 -211 -8 -473h4l174 469l260 655h344l-4 -653q0 -178 -14 -463h4l162 465l254 651h327l-645 -1462h-338l-12 602v53q0 213 14 430h-4q-133 -383 -178 -493l-252 -592h-348zM788 1542l269 273h237l174 -273h-219l-88 131h-4l-125 -131h-244z" />
<glyph unicode="&#x175;" horiz-adv-x="1589" d="M111 1063h317l2 -451q0 -143 -10 -338h4q25 80 129 328l209 461h256l26 -447q6 -120 7 -223q0 -62 -2 -119h4q43 150 116 347l181 442h315l-514 -1063h-295l-31 369q-8 150 -8 342h-6q-102 -279 -125 -326l-180 -385h-295zM600 1190l264 330h215l162 -330h-201l-88 172 h-4l-127 -172h-221z" />
<glyph unicode="&#x176;" horiz-adv-x="1236" d="M154 1462h333l95 -370q41 -174 57 -265h4l150 267l219 368h372l-630 -858l-113 -604h-313l112 598zM432 1542l268 273h238l174 -273h-219l-88 131h-4l-127 -131h-242z" />
<glyph unicode="&#x177;" horiz-adv-x="1077" d="M-53 -221q104 33 178 82q115 78 174 184q12 23 4 53l-207 963h328l63 -461l35 -254h6l93 246l194 469h330l-381 -764q-211 -418 -408 -606q-82 -78 -179 -124t-163 -59zM326 1190l262 330h215l164 -330h-203l-86 172h-4l-127 -172h-221z" />
<glyph unicode="&#x178;" horiz-adv-x="1236" d="M154 1462h333l95 -370l57 -265h4l150 267l219 368h372l-630 -858l-115 -604h-313l112 598zM418 1683q0 68 45 113t112 45q61 0 100.5 -40t39.5 -99q0 -70 -47 -114t-113 -44q-55 0 -96 39t-41 100zM866 1683q0 68 45 113t113 45q61 0 100 -40t39 -99q0 -70 -46 -114 t-111 -44q-57 0 -98.5 39t-41.5 100z" />
<glyph unicode="&#x179;" horiz-adv-x="1200" d="M-53 0l30 180l850 1008v6h-596l56 268h1013l-36 -192l-834 -994v-8h655l-51 -268h-1087zM625 1542l204 273h349l-287 -273h-266z" />
<glyph unicode="&#x17a;" horiz-adv-x="976" d="M-57 0l34 188l347 369q127 135 258 246l2 4h-453l49 254h830l-37 -197l-336 -360q-152 -156 -260 -246l-2 -4h499l-49 -254h-882zM461 1190l203 330h309l-283 -330h-229z" />
<glyph unicode="&#x17b;" horiz-adv-x="1200" d="M-53 0l30 180l850 1008v6h-596l54 268h1015l-36 -192l-834 -994v-8h655l-51 -268h-1087zM655 1686q0 68 48.5 113.5t115.5 45.5q61 0 101.5 -40t40.5 -101q0 -70 -47.5 -114t-114.5 -44q-59 0 -101.5 39.5t-42.5 100.5z" />
<glyph unicode="&#x17c;" horiz-adv-x="976" d="M-53 0l30 188l347 369q119 127 260 246l2 4h-453l49 254h828l-35 -197l-338 -360q-133 -141 -256 -246l-4 -4h497l-49 -254h-878zM481 1343q0 74 48.5 121t117.5 47q66 0 106 -39.5t40 -105.5q0 -74 -48.5 -120t-117.5 -46q-59 0 -102.5 40t-43.5 103z" />
<glyph unicode="&#x17d;" horiz-adv-x="1200" d="M-53 0l30 180l850 1008v6h-596l56 268h1013l-36 -192l-834 -994v-8h655l-51 -268h-1087zM498 1815h221l84 -140h4l129 140h242l-271 -273h-235z" />
<glyph unicode="&#x17e;" horiz-adv-x="976" d="M-57 0l34 188l347 369q127 135 258 246l2 4h-453l49 254h830l-37 -197l-336 -360q-152 -156 -260 -246l-2 -4h499l-49 -254h-882zM336 1520h203l86 -172h4l131 172h219l-264 -330h-215z" />
<glyph unicode="&#x192;" horiz-adv-x="1173" d="M-23 -156l66 222q49 -23 109 -23q68 0 114.5 68.5t87.5 248.5l72 306h-172l33 225h192l19 74q115 471 506 471q111 0 170 -39l-78 -226q-43 23 -107 23q-135 0 -186 -211l-21 -92h222l-33 -225h-244l-96 -404q-23 -102 -56.5 -179t-87 -144.5t-135.5 -101.5t-184 -34 q-121 0 -191 41z" />
<glyph unicode="&#x1a0;" horiz-adv-x="1529" d="M104 586q0 201 71 386t198 306q219 209 534 209q154 0 271 -53q14 -8 53 -28t68.5 -29t54.5 -9q94 0 94 111q0 70 -31 135l238 39q35 -70 35 -178q0 -125 -71 -202t-192 -81q70 -124 70 -318q0 -201 -66.5 -385t-193.5 -305q-219 -209 -541 -209q-274 0 -433 173.5 t-159 437.5zM436 598q0 -164 77 -262t230 -98q137 0 244 104q84 84 131 235.5t47 288.5q0 158 -68.5 259.5t-226.5 101.5q-137 0 -252 -111q-84 -84 -133 -232.5t-49 -285.5z" />
<glyph unicode="&#x1a1;" horiz-adv-x="1220" d="M66 418q0 279 178 474t454 195q100 0 193 -34q14 -6 47 -22.5t55.5 -24t44.5 -7.5q90 0 90 103q0 55 -26 127l231 39q23 -68 23 -154q0 -125 -64.5 -197.5t-179.5 -82.5q39 -82 39 -185q0 -291 -180 -482.5t-457 -191.5q-201 0 -324.5 122t-123.5 321zM389 424 q0 -96 44 -152.5t124 -56.5q121 0 195.5 140.5t74.5 291.5q0 82 -41 141.5t-127 59.5q-123 0 -196.5 -139.5t-73.5 -284.5z" />
<glyph unicode="&#x1af;" horiz-adv-x="1458" d="M137 442q0 88 21 207l155 813h312l-158 -839q-18 -82 -18 -174q2 -92 58 -151q57 -58 155 -58q127 0 205.5 90t117.5 288l162 844h227q139 0 139 123q0 55 -22 113l229 39q18 -68 19 -125q0 -141 -81 -224t-233 -90l-125 -667q-66 -338 -225.5 -497t-451.5 -159h-8 q-224 0 -350 118q-128 120 -128 349z" />
<glyph unicode="&#x1b0;" horiz-adv-x="1263" d="M88 274q0 88 23 195l112 592h314l-109 -567q-16 -88 -16 -142q0 -123 104 -123q84 0 158 92.5t100 247.5l94 492h228q137 0 137 123q0 55 -25 112l230 39q18 -63 18 -131q0 -131 -79 -216t-228 -89l-105 -553q-41 -229 -57 -346h-274l18 174h-4q-154 -199 -367 -199 q-131 0 -201.5 74.5t-70.5 224.5z" />
<glyph unicode="&#x1fa;" horiz-adv-x="1341" d="M-61 0l712 1462h402l170 -1462h-328l-29 381h-422l-170 -381h-335zM537 618h317l-31 316q-4 74 -20 287h-4q-6 -18 -50 -128t-67 -159zM659 1690q0 86 71 144t179 58q100 0 157.5 -49t57.5 -135t-67.5 -144.5t-177.5 -58.5q-102 0 -161 50.5t-59 134.5zM782 1929l234 197 h348l-315 -197h-267zM801 1696q0 -37 23.5 -58.5t64.5 -21.5q45 0 70.5 24.5t25.5 61.5q0 35 -24.5 59.5t-65.5 24.5q-43 0 -68.5 -26.5t-25.5 -63.5z" />
<glyph unicode="&#x1fb;" horiz-adv-x="1202" d="M53 346q0 137 47 267t137.5 235.5t240 171t336.5 65.5t351 -51l-110 -557q-44 -235 -44 -429q0 -24 1 -48h-287l6 112q4 75 6 99h-6q-129 -236 -356 -236q-143 0 -232.5 102.5t-89.5 268.5zM381 403q0 -80 31.5 -128t95.5 -48q78 0 150.5 92.5t107.5 274.5l49 246 q-49 8 -86 8q-143 0 -245.5 -142.5t-102.5 -302.5zM565 1341q0 101 73 162q75 63 193 64q100 0 166 -53.5t66 -149.5q-2 -104 -79 -164.5t-189 -60.5q-96 0 -162 53q-68 55 -68 149zM711 1620l260 250h309l-338 -250h-231zM715 1346q0 -41 24.5 -69t67.5 -28q49 0 77.5 32 t28.5 79q0 43 -24.5 70.5t-71.5 27.5t-74.5 -31.5t-27.5 -80.5z" />
<glyph unicode="&#x1fc;" horiz-adv-x="1832" d="M-104 0l897 1462h1050l-49 -266h-557l-27 -319h529l-49 -263h-490l-26 -348h552l-51 -266h-819l29 401h-420l-236 -401h-333zM612 659h287l31 359q4 74 16 213h-8q-78 -154 -115 -215zM1020 1542l205 273h346l-285 -273h-266z" />
<glyph unicode="&#x1fd;" horiz-adv-x="1654" d="M8 268q0 152 106.5 254.5t255.5 142.5q141 38 303 38q8 0 17 -1l4 25q1 8 2 15q0 39 -36 78q-42 46 -138 46q-158 0 -295 -94l-49 201q174 115 385 114q242 0 311 -172h7q137 172 376 172q174 0 268.5 -88t94.5 -204q0 -111 -53.5 -185.5t-152.5 -111.5t-217 -49 q-79 -8 -172 -9q-47 0 -97 2q-3 -22 -3 -41q0 -51 19 -86q61 -94 219 -94q152 0 305 66l11 -221q-160 -90 -389 -91q-119 0 -213.5 50.5t-139.5 140.5h-8q-150 -190 -395 -191q-145 0 -235.5 84t-90.5 209zM322 319q0 -49 31.5 -76.5t84.5 -27.5q72 0 129.5 50t75.5 138 l16 97h-19q-40 0 -84 -6q-54 -8 -109.5 -26.5t-90 -57t-34.5 -91.5zM788 1190l203 330h309l-282 -330h-230zM963 657q49 -3 90 -2q264 0 264 111q0 37 -31 65.5t-90 28.5q-94 0 -157.5 -65.5t-75.5 -137.5z" />
<glyph unicode="&#x1fe;" horiz-adv-x="1523" d="M72 -4l155 186q-127 164 -127 420q0 195 70 371t195 299q219 215 526 215q209 0 342 -90l158 190l159 -127l-168 -200q111 -150 111 -396v-11q0 -187 -68 -359q-70 -178 -188 -304q-219 -215 -526 -215q-193 0 -320 84l-172 -202zM442 449h7l598 722q-63 57 -175 58 q-141 0 -252.5 -104.5t-162.5 -262.5q-40 -118 -40 -233q0 -91 25 -180zM573 283q61 -49 162 -50q135 0 240.5 97.5t157.5 251.5q42 121 42 247q0 76 -16 154h-6zM774 1550l205 273h348l-287 -273h-266z" />
<glyph unicode="&#x1ff;" horiz-adv-x="1214" d="M37 -33l133 154q-106 119 -107 303q0 276 178.5 469.5t452.5 193.5q141 0 244 -61l135 154l94 -86l-127 -150q109 -121 109 -295q0 -299 -179 -486.5t-435 -187.5q-164 0 -269 68l-143 -164zM383 473q-2 -17 -2 -32q0 -36 10 -64l6 -2l365 446q-39 39 -109 39 q-121 0 -194.5 -130t-75.5 -257zM444 248q41 -43 115 -43q117 0 191.5 122t78.5 259q0 55 -8 100h-6zM582 1190l204 330h308l-283 -330h-229z" />
<glyph unicode="&#x218;" horiz-adv-x="1105" d="M0 80l104 258q156 -92 345 -92q98 0 165.5 44t67.5 124q0 61 -46 107t-153 102q-301 162 -301 387q0 217 164 346t412 129q207 0 344 -72l-96 -260q-117 64 -264 64h-9q-106 0 -164.5 -45.5t-58.5 -108.5q0 -57 51 -101t162 -106q291 -152 291 -387.5t-169 -364.5 t-425 -129q-279 3 -420 105zM207 -377q68 10 117 48t49 100q0 57 -43 100l233 41q55 -53 55 -137q0 -139 -114.5 -214t-263.5 -81z" />
<glyph unicode="&#x219;" horiz-adv-x="901" d="M-8 61l76 220q147 -74 274 -74q66 0 100.5 26.5t34.5 67.5q0 39 -28.5 70.5t-102.5 66.5q-225 113 -225 283q0 164 131 265t336 101q174 0 274 -53l-76 -223q-102 47 -211 47q-63 0 -101 -25.5t-38 -68.5q0 -59 129 -121q238 -121 238 -291q0 -178 -135 -277 q-132 -97 -344 -98h-9q-214 6 -323 84zM100 -375q68 10 117 48t49 100q0 57 -43 102l234 39q55 -53 55 -137q0 -139 -114.5 -214t-264.5 -81z" />
<glyph unicode="&#x21a;" horiz-adv-x="1142" d="M145 1190l56 272h1089l-55 -272h-391l-223 -1190h-312l223 1190h-387zM207 -377q68 10 117 48t49 98.5t-43 105.5l233 37q55 -49 55 -137q0 -139 -114.5 -214t-263.5 -81z" />
<glyph unicode="&#x21b;" horiz-adv-x="753" d="M35 -377q68 10 118 48t50 100q0 57 -45 100l233 41q55 -53 55 -137q0 -139 -114.5 -214t-261.5 -81zM86 825l45 238h135l39 201l322 86l-54 -287h228l-47 -238h-226l-71 -360q-18 -82 -19 -135q0 -88 92 -88q57 0 84 4l-34 -246q-66 -25 -185 -25q-137 0 -207.5 63.5 t-70.5 168.5q0 84 24 196l80 422h-135z" />
<glyph unicode="&#x21c;" horiz-adv-x="1114" d="M-12 -25q299 25 493.5 137.5t194.5 282.5q0 80 -52.5 136.5t-177.5 56.5q-76 0 -192 -33l-33 211q188 41 326.5 126t138.5 204q0 66 -53 102.5t-129 36.5q-92 0 -240 -66l-49 207q185 111 412 111h8q184 0 286.5 -89t102.5 -218q0 -238 -305 -387v-5q133 -27 216 -125 t83 -229q0 -205 -139.5 -360.5t-363.5 -240.5t-507 -103z" />
<glyph unicode="&#x21d;" horiz-adv-x="952" d="M-119 -205q53 2 119 11.5t163 33t173 58t131 98t55 143.5q0 63 -51 104.5t-156 41.5q-72 0 -182 -31l-29 213q424 90 424 266q-6 100 -153 101q-92 0 -230 -62l-53 199q197 115 410 114q158 0 255 -78.5t97 -183.5q0 -121 -63.5 -197.5t-202.5 -133.5v-7 q123 -25 197.5 -110.5t74.5 -192.5q0 -147 -88 -270t-230.5 -198.5t-308 -117.5t-335.5 -47z" />
<glyph unicode="&#x232;" horiz-adv-x="1236" d="M154 1462h333l95 -370q41 -174 57 -265h4l150 267l219 368h372l-630 -858l-113 -604h-313l112 598zM543 1593l35 172h548l-34 -172h-549z" />
<glyph unicode="&#x233;" horiz-adv-x="1077" d="M-53 -221q104 33 178 82q115 78 174 184q12 23 4 53l-207 963h328l63 -461l35 -254h6l93 246l194 469h330l-381 -764q-211 -418 -408 -606q-82 -78 -179 -124t-163 -59zM410 1268l34 170h535l-35 -170h-534z" />
<glyph unicode="&#x2c6;" d="M233 1190l265 330h215l161 -330h-200l-88 172h-4l-125 -172h-224z" />
<glyph unicode="&#x2c7;" d="M293 1520h203l86 -172h4l131 172h219l-264 -330h-215z" />
<glyph unicode="&#x2c9;" d="M299 1268l35 170h534l-34 -170h-535z" />
<glyph unicode="&#x2d8;" d="M328 1497h157q10 -121 103 -121q111 0 141 121h164q-23 -131 -102.5 -205.5t-215.5 -74.5q-143 0 -202 76.5t-45 203.5z" />
<glyph unicode="&#x2d9;" d="M426 1343q0 74 47 121t117 47q66 0 105.5 -39.5t39.5 -105.5q0 -74 -47 -120t-117 -46q-61 0 -103 40t-42 103z" />
<glyph unicode="&#x2da;" d="M338 1370q0 101 73 162q75 63 195 63q98 0 165 -53t67 -151q-2 -102 -79 -163t-190 -61q-96 0 -162 54q-69 55 -69 149zM487 1372q0 -39 26 -67.5t69 -28.5q47 0 76.5 31.5t29.5 78.5q0 45 -24.5 73t-73.5 28q-45 0 -74 -33t-29 -82z" />
<glyph unicode="&#x2db;" d="M129 -289q0 135 145 291h181q-98 -106 -99 -188q0 -84 88 -84q55 0 103 18l20 -154q-92 -70 -229 -69q-98 0 -153.5 49t-55.5 137z" />
<glyph unicode="&#x2dc;" d="M268 1210q18 131 72.5 203t136.5 72q61 0 135 -43q61 -41 84 -41q27 0 41.5 19.5t28.5 74.5h149q-39 -266 -213 -266q-78 0 -137 41q-51 39 -84 39q-41 0 -59 -99h-154z" />
<glyph unicode="&#x2dd;" d="M225 1190l183 330h268l-264 -330h-187zM606 1190l182 330h267l-260 -330h-189z" />
<glyph unicode="&#x37e;" horiz-adv-x="579" d="M-92 -258q162 358 213 604l338 8q-131 -309 -324 -594zM168 809q0 94 61.5 161.5t157.5 67.5q80 0 132 -54t52 -138q0 -96 -63.5 -159.5t-159.5 -63.5q-80 0 -130 53t-50 133z" />
<glyph unicode="&#x384;" horiz-adv-x="729" d="M391 1190l203 330h305l-283 -330h-225z" />
<glyph unicode="&#x385;" horiz-adv-x="944" d="M115 1337q0 66 43 106t104 40q57 0 92 -37t35 -92q0 -61 -43 -102.5t-102 -41.5q-53 0 -91 35t-38 92zM410 1188l133 364h248l-211 -364h-170zM770 1337q0 66 43 106t105 40q57 0 91.5 -37t34.5 -92q0 -61 -41.5 -102.5t-103.5 -41.5q-53 0 -91 35t-38 92z" />
<glyph unicode="&#x386;" horiz-adv-x="1341" d="M-61 0l712 1462h402l172 -1462h-330l-29 381h-422l-170 -381h-335zM115 1085l55 377h258l-133 -377h-180zM537 618h317l-31 316q-4 74 -20 287h-4q-6 -18 -50 -128t-67 -159z" />
<glyph unicode="&#x387;" horiz-adv-x="579" d="M100 662q0 96 62.5 163.5t156.5 67.5q84 0 136.5 -53.5t52.5 -141.5q0 -98 -62.5 -161.5t-162.5 -63.5q-80 0 -131.5 53.5t-51.5 135.5z" />
<glyph unicode="&#x388;" horiz-adv-x="1239" d="M8 1085l55 377h259l-136 -377h-178zM156 0l278 1462h866l-51 -266h-553l-59 -313h522l-51 -262h-520l-68 -355h586l-51 -266h-899z" />
<glyph unicode="&#x389;" horiz-adv-x="1558" d="M6 1085l55 377h258l-133 -377h-180zM154 0l278 1462h313l-108 -569h528l109 569h315l-278 -1462h-312l115 614h-532l-115 -614h-313z" />
<glyph unicode="&#x38a;" horiz-adv-x="710" d="M10 1085l56 377h258l-136 -377h-178zM152 0l278 1462h313l-278 -1462h-313z" />
<glyph unicode="&#x38c;" horiz-adv-x="1613" d="M6 1085l55 377h258l-133 -377h-180zM188 586q0 199 70 381t197 307q219 213 536 213q283 0 437.5 -169t154.5 -441q0 -201 -68.5 -383.5t-189.5 -305.5q-213 -213 -543 -213q-276 0 -435 173.5t-159 437.5zM520 598q0 -164 78 -262t229 -98q178 0 301 203.5t123 426.5 q0 156 -68.5 257.5t-228.5 101.5q-123 0 -226 -101.5t-155.5 -244t-52.5 -283.5z" />
<glyph unicode="&#x38e;" horiz-adv-x="1468" d="M-2 1085l53 377h260l-135 -377h-178zM348 1217l76 260q96 -2 198.5 -51.5t165.5 -137.5q120 -166 120 -401q0 -38 -3 -78h15q88 287 288 473q96 90 203 140.5t184 54.5l25 -281q-158 -45 -316.5 -207t-248.5 -373q-68 -154 -90 -297l-60 -319h-313l59 319q31 152 31 287 v12q0 238 -82 398q-84 164 -252 201z" />
<glyph unicode="&#x38f;" horiz-adv-x="1648" d="M6 1085l55 377h258l-133 -377h-180zM53 0l45 240h285l2 10q-76 76 -130 195.5t-54 254.5q0 336 231.5 561.5t566.5 225.5q287 0 453 -168t166 -406q0 -219 -107.5 -391t-248.5 -272v-10h260l-41 -240h-625l33 190q162 106 277.5 281.5t115.5 409.5q0 158 -82 255t-229 97 q-184 0 -313.5 -170t-129.5 -432q0 -139 49.5 -256t135.5 -185l-33 -190h-627z" />
<glyph unicode="&#x390;" horiz-adv-x="573" d="M-27 1325q0 59 42 98t100 39q55 0 89 -33.5t34 -87.5q0 -63 -41 -101t-99 -38q-53 0 -89 34t-36 89zM61 188q0 63 21 168l133 705h313l-139 -735q-5 -25 -5 -45q0 -27 10 -40q15 -20 56 -20h15l-59 -227q-55 -18 -123 -19q-222 0 -222 213zM264 1180l131 364h248 l-209 -364h-170zM629 1325q0 59 42 98t99 39q55 0 89 -33.5t34 -87.5q0 -63 -41 -101t-98 -38q-53 0 -89 34t-36 89z" />
<glyph unicode="&#x391;" horiz-adv-x="1341" d="M-61 0l712 1462h402l172 -1462h-330l-29 381h-422l-170 -381h-335zM537 618h317l-31 316q-4 74 -20 287h-4q-6 -18 -50 -128t-67 -159z" />
<glyph unicode="&#x392;" horiz-adv-x="1261" d="M43 14l270 1426q166 35 383 35q231 0 363 -76q76 -39 123 -109.5t47 -161.5q0 -129 -83 -219t-212 -127v-8q106 -31 167.5 -115t61.5 -202q0 -215 -198 -348q-174 -119 -553 -119q-244 -1 -369 24zM391 240q37 -6 119 -7q139 0 231.5 58.5t92.5 173.5q0 188 -267 188h-98 zM516 881h105q131 0 209.5 53t78.5 147q0 150 -204 150q-76 0 -123 -8z" />
<glyph unicode="&#x393;" horiz-adv-x="1032" d="M41 0l278 1462h867l-53 -266h-547l-228 -1196h-317z" />
<glyph unicode="&#x394;" horiz-adv-x="1380" d="M-59 0l26 168l705 1294h385l221 -1294l-27 -168h-1310zM336 254h602l-96 625q-20 160 -37 319h-8l-135 -297z" />
<glyph unicode="&#x395;" horiz-adv-x="1122" d="M41 0l278 1462h867l-53 -266h-551l-62 -313h524l-53 -262h-518l-67 -355h583l-49 -266h-899z" />
<glyph unicode="&#x396;" horiz-adv-x="1200" d="M-53 0l30 180l850 1008v6h-596l56 268h1013l-36 -192l-834 -994v-8h655l-51 -268h-1087z" />
<glyph unicode="&#x397;" horiz-adv-x="1443" d="M41 0l278 1462h312l-109 -569h531l108 569h316l-279 -1462h-313l116 614h-532l-115 -614h-313z" />
<glyph unicode="&#x398;" horiz-adv-x="1529" d="M102 586q0 199 71 382t196 306q219 213 536 213q283 0 437.5 -169t154.5 -441q0 -201 -67.5 -383.5t-190.5 -305.5q-217 -213 -543 -213q-274 0 -434 173.5t-160 437.5zM434 598q0 -164 77 -264.5t232 -100.5q174 0 298 205t124 428q0 158 -69.5 260.5t-227.5 102.5 q-123 0 -226 -101.5t-155.5 -245t-52.5 -284.5zM563 623l41 247h445l-43 -247h-443z" />
<glyph unicode="&#x399;" horiz-adv-x="593" d="M35 0l278 1462h312l-277 -1462h-313z" />
<glyph unicode="&#x39a;" horiz-adv-x="1280" d="M41 0l278 1462h308l-123 -653h6q12 20 131 168l406 485h391l-594 -631l340 -831h-340l-244 637l-158 -150l-92 -487h-309z" />
<glyph unicode="&#x39b;" horiz-adv-x="1341" d="M-66 0l711 1462h406l174 -1462h-336l-78 874l-7 154q-5 109 -7 168h-6q-57 -160 -127 -324l-385 -872h-345z" />
<glyph unicode="&#x39c;" horiz-adv-x="1781" d="M6 0l367 1462h420l45 -555q27 -395 26 -467h8q66 188 199 467l270 555h424l-198 -1462h-303l88 604q49 311 98 570h-6q-137 -317 -252 -551l-299 -598h-244l-51 591q-18 213 -33 558h-6l-39 -188l-44 -217q-19 -95 -38 -165l-145 -604h-287z" />
<glyph unicode="&#x39d;" horiz-adv-x="1443" d="M41 0l278 1462h367l193 -557q78 -250 133 -499h6q8 205 67 526l101 530h293l-279 -1462h-323l-203 584q-94 285 -144 510h-8q-20 -199 -92 -582l-98 -512h-291z" />
<glyph unicode="&#x39e;" horiz-adv-x="1216" d="M-10 0l43 264h1059l-43 -264h-1059zM201 618l43 261h858l-43 -261h-858zM233 1202l46 260h997l-43 -260h-1000z" />
<glyph unicode="&#x39f;" horiz-adv-x="1529" d="M104 586q0 199 70 381t195 307q219 213 538 213q283 0 436.5 -169t153.5 -441q0 -201 -67.5 -383.5t-190.5 -305.5q-213 -213 -543 -213q-274 0 -433 173.5t-159 437.5zM436 598q0 -164 77 -262t230 -98q176 0 299 203.5t123 426.5q0 156 -68.5 257.5t-226.5 101.5 q-123 0 -226 -101.5t-155.5 -244t-52.5 -283.5z" />
<glyph unicode="&#x3a0;" horiz-adv-x="1417" d="M41 0l276 1462h1133l-276 -1462h-310l223 1200h-507l-226 -1200h-313z" />
<glyph unicode="&#x3a1;" horiz-adv-x="1212" d="M41 0l272 1438q147 37 381 37q252 0 389 -97q158 -106 158 -313q0 -258 -197 -410q-176 -137 -469 -137q-25 0 -47 1t-45.5 5t-36.5 4l-98 -528h-307zM496 784q53 -12 120 -12q137 0 224.5 78t87.5 190q0 184 -223 185q-76 0 -127 -8z" />
<glyph unicode="&#x3a3;" horiz-adv-x="1210" d="M-37 0l29 188l524 543l-323 512l36 219h1022l-45 -262h-624l-2 -8l299 -471l-445 -447l2 -10h674l-47 -264h-1100z" />
<glyph unicode="&#x3a4;" horiz-adv-x="1142" d="M145 1190l56 272h1087l-53 -272h-391l-226 -1190h-313l227 1190h-387z" />
<glyph unicode="&#x3a5;" horiz-adv-x="1208" d="M94 1217l76 260q96 -2 198.5 -51.5t166.5 -137.5q139 -193 116 -479h15q88 287 288 473q96 90 203 140.5t184 54.5l25 -281q-158 -45 -316.5 -207t-248.5 -373q-68 -154 -90 -299l-60 -317h-313l59 319q31 152 31 287q2 246 -82 410t-252 201z" />
<glyph unicode="&#x3a6;" horiz-adv-x="1660" d="M104 625q0 184 73 337.5t185.5 248t239.5 146.5t246 54l22 113h293l-20 -113q205 -29 346 -178.5t141 -384.5q0 -180 -67.5 -330.5t-176 -246t-237.5 -149.5t-260 -61l-25 -124h-293l23 124q-209 31 -349.5 179.5t-140.5 384.5zM422 631q0 -137 59.5 -229.5t157.5 -114.5 l166 901q-133 -6 -258 -167t-125 -390zM930 285q147 12 265 166.5t118 394.5q0 139 -59.5 230t-155.5 112z" />
<glyph unicode="&#x3a7;" horiz-adv-x="1234" d="M-88 0l547 748l-256 714h329l89 -278q53 -182 67 -244h6l140 248l170 274h372l-534 -717l280 -745h-331l-101 295l-78 250h-4l-147 -260l-174 -285h-375z" />
<glyph unicode="&#x3a8;" horiz-adv-x="1499" d="M129 831q0 61 16 166l88 465h304l-80 -434q-20 -94 -21 -158q0 -111 45 -163t135 -64l156 819h289l-154 -823q121 12 199 107.5t119 322.5l73 393h301l-83 -456q-57 -291 -226.5 -442.5t-425.5 -164.5l-73 -399h-293l75 399q-88 8 -163.5 37t-140 79t-102.5 131t-38 185z " />
<glyph unicode="&#x3a9;" horiz-adv-x="1564" d="M-31 0l43 240h285l2 10q-76 76 -130 195.5t-54 254.5q0 336 232.5 561.5t563.5 225.5q287 0 453 -168t166 -406q0 -219 -107.5 -391t-251.5 -272v-10h265l-41 -240h-627l33 190q164 104 279.5 280.5t115.5 410.5q0 158 -82 255t-231 97q-184 0 -312.5 -170t-128.5 -432 q0 -139 50.5 -256t134.5 -185l-33 -190h-625z" />
<glyph unicode="&#x3aa;" horiz-adv-x="593" d="M35 0l276 1462h314l-277 -1462h-313zM123 1688q0 70 46 113.5t114 43.5q63 0 101 -39t38 -100q0 -70 -46 -113t-114 -43q-57 0 -98 38.5t-41 99.5zM575 1688q0 70 45.5 113.5t112.5 43.5q63 0 101 -39t38 -100q0 -70 -45 -113t-112 -43q-59 0 -99.5 38.5t-40.5 99.5z" />
<glyph unicode="&#x3ab;" horiz-adv-x="1208" d="M94 1217l76 260q96 -2 198.5 -51.5t166.5 -137.5q120 -166 119 -401q0 -38 -3 -78h15q88 285 286 473q96 90 204 140.5t185 54.5l23 -281q-156 -45 -314.5 -207t-248.5 -373q-68 -154 -90 -299l-60 -317h-313l59 319q31 152 31 287v12q0 238 -82 398q-84 164 -252 201z M408 1657q0 70 46 114t113 44q61 0 99.5 -39t38.5 -101q0 -72 -45.5 -114.5t-112.5 -42.5q-55 0 -97 39t-42 100zM858 1657q0 70 45 114t113 44q63 0 101 -39t38 -101q0 -72 -46 -114.5t-112 -42.5q-57 0 -98 39t-41 100z" />
<glyph unicode="&#x3ac;" horiz-adv-x="1249" d="M61 375q0 305 179.5 508.5t378.5 203.5q213 0 278 -157l6 -2q16 57 49 133h267q-45 -166 -60 -236q-61 -270 -98 -452q-7 -40 -8 -70q0 -35 11 -53q17 -31 57 -31h9l-55 -227q-41 -16 -98 -17q-174 0 -191 193h-4q-141 -193 -368 -193q-154 0 -253.5 108t-99.5 292z M385 412q0 -84 40 -136.5t112 -52.5q70 0 132 62.5t93 144.5q20 66 29 115q12 70 12 108q0 86 -40 140.5t-114 54.5q-102 0 -183 -135t-81 -301zM610 1190l205 330h303l-282 -330h-226z" />
<glyph unicode="&#x3ad;" horiz-adv-x="948" d="M29 250q0 123 80.5 206t189.5 101l2 10q-162 51 -162 195q0 133 134.5 228t361.5 95q211 0 319 -79l-73 -197q-86 55 -226 55q-90 0 -144 -32.5t-54 -79.5q0 -98 237 -99h92l-34 -204h-101q-281 0 -280 -134q0 -49 54 -75.5t138 -26.5q145 0 285 61l12 -213 q-150 -86 -401 -86q-188 0 -309 68t-121 207zM451 1190l204 330h301l-280 -330h-225z" />
<glyph unicode="&#x3ae;" horiz-adv-x="1220" d="M29 0l135 717q33 194 33 294q0 29 -2 50h274q11 -38 11 -94q0 -37 -5 -82h4q145 201 373 200q127 0 199.5 -75.5t72.5 -214.5q0 -86 -16 -179l-127 -655q-48 -268 -48 -370q0 -12 1 -21h-295q-9 22 -9 70q0 103 42 323l116 625q10 76 11 117q0 129 -105 129 q-80 0 -156.5 -97.5t-107.5 -265.5l-90 -471h-311zM582 1190l204 330h304l-283 -330h-225z" />
<glyph unicode="&#x3af;" horiz-adv-x="573" d="M61 186q0 53 21 170l135 705h311l-139 -733q-5 -25 -5 -44q0 -28 11 -42q16 -21 56 -21h14l-59 -227q-55 -18 -125 -19q-220 0 -220 211zM283 1190l202 330h306l-285 -330h-223z" />
<glyph unicode="&#x3b0;" horiz-adv-x="1163" d="M78 332q0 51 26 180l35 184q43 228 44 326q0 23 -3 39h301q13 -24 13 -71q0 -51 -15 -130l-55 -309q-27 -121 -27 -164q0 -70 38 -114t97 -44q121 0 200 209t79 453q0 111 -12 170h288q31 -72 31 -197q0 -152 -39 -304t-113.5 -285.5t-199.5 -216.5t-283 -83 q-186 0 -295.5 95.5t-109.5 261.5zM213 1325q0 59 41 98t100 39q53 0 87 -33.5t34 -87.5q0 -63 -40 -101t-99 -38q-51 0 -87 34t-36 89zM502 1180l135 364h246l-209 -364h-172zM868 1325q0 59 41 98t101 39q53 0 87 -33.5t34 -87.5q0 -63 -40 -101t-100 -38q-51 0 -87 34 t-36 89z" />
<glyph unicode="&#x3b1;" horiz-adv-x="1249" d="M61 375q0 305 179.5 508.5t378.5 203.5q213 0 278 -157l6 -2q16 57 49 133h267q-45 -166 -60 -236q-61 -270 -98 -452q-7 -40 -8 -70q0 -35 11 -53q17 -31 57 -31h9l-55 -227q-41 -16 -98 -17q-174 0 -191 193h-4q-141 -193 -368 -193q-154 0 -253.5 108t-99.5 292z M385 412q0 -84 41 -136.5t110.5 -52.5t132 62.5t93.5 144.5q20 66 29 115q12 70 12 108q0 86 -40 140.5t-114 54.5q-102 0 -183 -135t-81 -301z" />
<glyph unicode="&#x3b2;" horiz-adv-x="1218" d="M-14 -430q-11 33 -11 90q0 107 37 299l174 934q74 389 254 545q152 127 351 127q174 0 274 -99.5t100 -244.5q0 -131 -63.5 -230.5t-171.5 -150.5l-2 -13q94 -27 158.5 -121t64.5 -225q0 -215 -152.5 -360.5t-351 -145.5t-299.5 103h-8l-23 -129q-44 -237 -43 -352v-27 h-288zM387 330q74 -117 205 -117q102 0 170.5 77t68.5 187q0 90 -53 147.5t-137 67.5h-49l37 197q25 0 37 4q90 14 148 87t58 179q0 70 -33.5 115t-93.5 45q-172 0 -241 -358z" />
<glyph unicode="&#x3b3;" horiz-adv-x="1046" d="M27 1061h344q49 -111 86 -315.5t39 -409.5h8q211 340 264 629q8 70 8 96h309q0 -47 -8 -109q-35 -186 -175 -429.5t-347 -475.5q-23 -27 -27 -61l-69 -416h-307q78 381 77 571q0 211 -62 471.5t-140 448.5z" />
<glyph unicode="&#x3b4;" horiz-adv-x="1196" d="M51 432q0 215 130 365.5t311 226.5v10l-43 47q-86 98 -87 195q0 121 108 205t269 84q246 0 394 -148l-111 -182q-41 39 -109.5 72.5t-128.5 33.5q-94 0 -94 -65q0 -43 111 -143l125 -119q203 -193 202 -424q0 -248 -167.5 -431.5t-438.5 -183.5q-205 0 -338 128t-133 329 zM375 440q0 -106 53 -171.5t137 -65.5q98 0 171 96t73 240q0 156 -100 258l-74 75q-115 -61 -187.5 -173t-72.5 -259z" />
<glyph unicode="&#x3b5;" horiz-adv-x="948" d="M29 250q0 123 80.5 206t189.5 101l2 10q-162 51 -162 195q0 133 134.5 228t361.5 95q213 0 319 -81l-73 -195q-94 55 -226 55q-90 0 -144 -32.5t-54 -79.5q0 -98 237 -99h92l-34 -204h-101q-281 0 -280 -134q0 -49 54 -75.5t138 -26.5q145 0 285 61l12 -215 q-152 -84 -401 -84q-188 0 -309 68t-121 207z" />
<glyph unicode="&#x3b6;" horiz-adv-x="925" d="M61 426q0 231 170 479t394 391v9q-16 0 -55.5 1t-59.5 1q-143 0 -207 34l59 203q55 -12 281 -12h391l6 -205q-221 -111 -435 -360.5t-214 -474.5q0 -178 148 -252q84 -53 297 -84q18 -2 18 -25q0 -80 -76 -230.5t-157 -230.5l-189 64q25 37 55.5 105.5t40.5 111.5 q-111 20 -200 61q-267 119 -267 414z" />
<glyph unicode="&#x3b7;" horiz-adv-x="1220" d="M29 0l135 717q35 182 35 283q0 35 -4 61h274q11 -38 11 -94q0 -37 -5 -82h6q145 201 371 200q127 0 199.5 -75.5t72.5 -214.5q0 -86 -16 -179l-125 -655q-48 -271 -48 -367q0 -14 1 -24h-295q-10 22 -10 73q0 102 41 320l116 625q10 76 11 117q0 129 -105 129 q-80 0 -156.5 -97.5t-107.5 -265.5l-90 -471h-311z" />
<glyph unicode="&#x3b8;" horiz-adv-x="1204" d="M76 500q0 182 45 377q74 303 242.5 495.5t408.5 192.5q205 0 313.5 -138.5t108.5 -363.5q0 -150 -31 -311q-41 -217 -121.5 -387t-218 -280t-309.5 -110q-211 0 -324.5 135.5t-113.5 389.5zM377 455q0 -123 44 -190.5t122 -67.5q205 0 291 477h-435q-22 -137 -22 -219z M440 897h434q18 117 19 195q0 117 -39 184t-117 67q-109 0 -184.5 -123.5t-112.5 -322.5z" />
<glyph unicode="&#x3b9;" horiz-adv-x="573" d="M59 193q0 33 25 167l131 701h313l-139 -733q-5 -25 -5 -45q0 -27 10 -41q15 -21 56 -21h15l-59 -227q-51 -18 -123 -19q-224 1 -224 218z" />
<glyph unicode="&#x3ba;" horiz-adv-x="1132" d="M31 0l145 776q30 168 30 244q0 26 -3 41h295q19 -26 19 -83q0 -47 -13 -114l-45 -243h10l379 440h356v-10l-481 -476v-6q61 -25 100 -88t84 -186l113 -295h-338l-74 209q-41 117 -75.5 171t-92.5 54h-16l-82 -434h-311z" />
<glyph unicode="&#x3bb;" horiz-adv-x="1030" d="M-94 0l516 993q20 45 20 64q0 8 -4 39q-37 213 -182 215h-39l64 237q26 7 67 8q16 0 35 -2q164 -6 241.5 -127.5t129.5 -373.5l194 -1053h-319l-62 512q-18 152 -22 190l-13 3l-75 -199l-224 -506h-327z" />
<glyph unicode="&#x3bc;" horiz-adv-x="1212" d="M-23 -430q-6 25 -6 68q0 107 41 323l207 1100h313l-112 -596q-11 -53 -11 -94q0 -142 128 -142q55 0 104 49.5t82 116.5q23 41 29 80l112 586h314l-136 -713q-7 -33 -6 -57q0 -27 8 -42q16 -28 64 -30l-59 -225q-41 -18 -105 -19q-172 0 -192 199h-7q-106 -188 -268 -188 q-109 0 -155 63l-19 -94q-47 -279 -45 -385h-281z" />
<glyph unicode="&#x3bd;" horiz-adv-x="1046" d="M61 1061h332q31 -260 47 -490l23 -266h8q238 395 285 649q6 45 10 107h305q0 -59 -8 -94q-66 -377 -531 -967h-301q-94 621 -170 1061z" />
<glyph unicode="&#x3be;" horiz-adv-x="980" d="M47 393q0 176 114.5 304t268.5 165v12q-82 37 -132 109t-50 162q0 178 147.5 299t392.5 121q188 0 293 -70l-77 -201q-78 47 -193 47q-111 0 -178.5 -60t-67.5 -153q0 -166 254 -188q23 -2 66 -2l-39 -215h-72q-176 0 -282.5 -76t-106.5 -201q0 -180 240 -239 q100 -29 268 -53q16 -2 16 -25q0 -72 -82 -231.5t-151 -227.5l-191 66q66 113 95 215q-94 12 -170 39q-61 16 -119 46t-116 76t-93 118.5t-35 162.5z" />
<glyph unicode="&#x3bf;" horiz-adv-x="1212" d="M61 418q0 279 178.5 474t454.5 195q209 0 331 -124.5t122 -313.5q0 -291 -179.5 -482.5t-455.5 -191.5q-203 0 -327 122t-124 321zM385 422q0 -94 45 -150.5t125 -56.5q119 0 193.5 140.5t74.5 291.5q0 82 -42 141.5t-126 59.5t-148.5 -74t-93 -169t-28.5 -183z" />
<glyph unicode="&#x3c0;" horiz-adv-x="1243" d="M-4 0q125 211 229 621q20 74 43 200q-131 0 -196 -18l-4 180q80 80 381 80h843l-55 -242h-131l-90 -479q-40 -216 -40 -317q0 -14 1 -25h-299q-9 22 -9 68q0 86 31 256l93 497h-220l-14 -59q-8 -33 -16 -72l-13 -63q-121 -473 -235 -627h-299z" />
<glyph unicode="&#x3c1;" horiz-adv-x="1226" d="M-31 -430q-2 20 -2 47q0 111 41 334l88 473q72 385 277 543q154 119 364 118q195 0 312.5 -121.5t117.5 -310.5q0 -283 -171 -480.5t-390 -197.5q-88 0 -158.5 29t-99.5 76h-6l-23 -133q-53 -266 -53 -377h-297zM406 367q0 -51 48 -101.5t126 -50.5q104 0 185 125t81 289 q0 90 -42 147.5t-122 57.5q-92 0 -157.5 -84t-98.5 -242l-14 -59q-6 -39 -6 -82z" />
<glyph unicode="&#x3c2;" horiz-adv-x="960" d="M49 436q0 260 190.5 455.5t479.5 195.5q158 0 260 -55l-82 -225q-68 37 -176 37q-139 0 -242.5 -103.5t-103.5 -257.5q0 -190 198 -266q84 -33 279 -65q14 -2 14 -27q0 -80 -74.5 -228.5t-154.5 -228.5l-191 68q68 98 97 215q-76 10 -183 49q-119 45 -215 151.5 t-96 284.5z" />
<glyph unicode="&#x3c3;" horiz-adv-x="1269" d="M61 414q0 283 178.5 478t450.5 195h273h163h213l-39 -231q-90 0 -268 25l-4 -13q55 -39 82 -117.5t27 -148.5q0 -254 -176.5 -440.5t-442.5 -186.5q-207 0 -332 121t-125 318zM385 422q0 -94 45 -150.5t125 -56.5q119 0 193.5 140.5t74.5 291.5q0 84 -40 142.5t-126 58.5 q-125 0 -198.5 -139.5t-73.5 -286.5z" />
<glyph unicode="&#x3c4;" horiz-adv-x="931" d="M41 803v184q109 74 381 74h567l-55 -242h-289l-80 -428q-10 -51 -10 -88q0 -80 84 -80h47l-49 -223q-45 -25 -133 -25q-266 0 -266 258q0 76 20 185l74 401h-86q-131 0 -205 -16z" />
<glyph unicode="&#x3c5;" horiz-adv-x="1163" d="M78 330q0 51 24 178l35 188q45 232 45 332q0 19 -2 33h301q13 -24 13 -71q0 -51 -15 -130l-57 -309q-25 -156 -25 -166q0 -68 38 -112t97 -44q123 0 201 206t78 456q0 111 -12 170h288q31 -72 31 -203q0 -121 -23.5 -240.5t-74.5 -236.5t-124 -206t-179.5 -144.5 t-231.5 -55.5q-188 0 -297.5 95.5t-109.5 259.5z" />
<glyph unicode="&#x3c6;" horiz-adv-x="1486" d="M63 440q0 135 45.5 253t118 196t147.5 127t146 69l107 -151q-96 -57 -179 -180t-83 -291q0 -104 46 -177t128 -96l90 500q35 201 139 298t248 97q172 0 287.5 -123.5t115.5 -310.5q0 -299 -197.5 -486.5t-449.5 -189.5l-76 -405h-274l76 405q-174 23 -304.5 143.5 t-130.5 321.5zM811 190q135 14 221 144.5t86 306.5q0 94 -34.5 159.5t-89 65.5t-72.5 -90z" />
<glyph unicode="&#x3c7;" horiz-adv-x="1021" d="M-182 -397l495 739l-229 719h324l73 -293q25 -94 49 -215h11q63 127 104 199l176 309h312l-490 -746l219 -739l-303 -63l-78 303q-41 147 -63 264h-15l-114 -211l-213 -356z" />
<glyph unicode="&#x3c8;" horiz-adv-x="1499" d="M86 389q0 82 18 182l39 211q37 195 35 279h281q13 -22 13 -72t-13 -129l-53 -278q-16 -104 -17 -185q0 -94 42 -144t112 -56l213 1142h278l-213 -1144q135 6 234.5 185t99.5 499q0 111 -16 182h282q31 -86 31 -215q0 -373 -181 -613.5t-491 -257.5l-75 -405h-281l76 405 q-176 16 -295 118.5t-119 295.5z" />
<glyph unicode="&#x3c9;" horiz-adv-x="1556" d="M61 395q0 207 89.5 394.5t185.5 275.5h299v-6q-100 -102 -179 -275.5t-79 -355.5q0 -90 27.5 -138t72.5 -48q51 0 87 55t48 143l66 363h287l-66 -318q-20 -113 -20 -131q0 -49 20.5 -80.5t65.5 -31.5q86 0 150.5 154.5t64.5 351t-78 311.5v6h278q41 -49 73 -149.5 t32 -219.5q0 -295 -149.5 -508t-372.5 -213q-94 0 -161 45.5t-93 124.5h-11q-111 -170 -299 -170q-145 0 -241.5 108.5t-96.5 311.5z" />
<glyph unicode="&#x3ca;" horiz-adv-x="573" d="M37 1325q0 70 46 114t112 44q63 0 100 -39t37 -101q0 -70 -44 -113.5t-112 -43.5q-57 0 -98 39t-41 100zM61 184q0 70 21 172l133 705h313l-141 -733q-5 -25 -5 -44q0 -26 10 -40q16 -23 65 -23h8l-62 -227q-55 -18 -122 -19q-220 0 -220 209zM479 1325q0 70 46 114 t114 44q61 0 99 -39t38 -101q0 -70 -45 -113.5t-113 -43.5q-55 0 -97 39t-42 100z" />
<glyph unicode="&#x3cb;" horiz-adv-x="1163" d="M78 334q0 59 26 178l35 184q43 228 44 326q0 23 -3 39h301q13 -24 13 -71q0 -51 -15 -130l-55 -309q-27 -129 -27 -164q0 -72 38 -115t97 -43q121 0 200 209t79 453q0 117 -14 170h290q31 -72 31 -197q0 -152 -39 -304t-113.5 -285.5t-199.5 -216.5t-283 -83 q-188 0 -296.5 94.5t-108.5 264.5zM295 1325q0 70 46 114t114 44q61 0 99 -39t38 -101q0 -70 -45 -113.5t-113 -43.5q-57 0 -98 39t-41 100zM737 1325q0 70 46 114t114 44q63 0 101 -39t38 -101q0 -70 -46 -113.5t-113 -43.5q-55 0 -97.5 39t-42.5 100z" />
<glyph unicode="&#x3cc;" horiz-adv-x="1212" d="M61 418q0 279 178.5 474t454.5 195q209 0 331 -124.5t122 -313.5q0 -291 -179.5 -482.5t-455.5 -191.5q-203 0 -327 122t-124 321zM385 422q0 -94 45 -150.5t125 -56.5q119 0 193.5 140.5t74.5 291.5q0 82 -42 141.5t-126 59.5t-148.5 -74t-93 -169t-28.5 -183zM565 1190 l203 330h305l-285 -330h-223z" />
<glyph unicode="&#x3cd;" horiz-adv-x="1163" d="M78 332q0 55 26 180l35 184q43 228 44 326q0 23 -3 39h301q13 -24 13 -71q0 -51 -15 -130l-55 -309q-27 -143 -27 -164q0 -72 38 -115t97 -43q121 0 200 209t79 453q0 111 -12 170h288q31 -72 31 -197q0 -152 -39 -304t-113.5 -285.5t-199.5 -216.5t-283 -83 q-186 0 -295.5 95.5t-109.5 261.5zM496 1190l202 330h306l-283 -330h-225z" />
<glyph unicode="&#x3ce;" horiz-adv-x="1552" d="M61 395q0 207 89.5 394.5t185.5 275.5h299v-6q-100 -102 -179 -275.5t-79 -355.5q0 -90 27.5 -138t72.5 -48q51 0 87 55t48 143l66 363h287l-66 -318q-20 -113 -20 -131q0 -49 20.5 -80.5t65.5 -31.5q86 0 150.5 154.5t64.5 351t-78 311.5v6h278q41 -49 73 -149.5 t32 -219.5q0 -295 -149.5 -508t-372.5 -213q-94 0 -161 45.5t-93 124.5h-11q-111 -170 -299 -170q-145 0 -241.5 108.5t-96.5 311.5zM743 1190l203 330h303l-282 -330h-224z" />
<glyph unicode="&#x401;" horiz-adv-x="1122" d="M41 0l278 1462h865l-54 -266h-548l-62 -313h522l-51 -262h-518l-70 -355h584l-49 -266h-897zM414 1683q0 68 46 113t113 45q61 0 100.5 -40t39.5 -99q0 -70 -47.5 -114t-112.5 -44q-55 0 -97 39t-42 100zM864 1683q0 68 45 113t113 45q61 0 100 -40t39 -99 q0 -70 -46 -114t-111 -44q-57 0 -98.5 39t-41.5 100z" />
<glyph unicode="&#x402;" horiz-adv-x="1501" d="M145 1192l58 270h1157l-55 -270h-478l-51 -264h6q98 51 224 51q193 0 298 -130t105 -345q0 -367 -219 -598q-92 -94 -212 -155.5t-235 -74.5l-49 267q143 27 242 129q139 143 139 389q0 115 -49 187.5t-149 72.5q-74 0 -146 -43l-125 -678h-309l221 1192h-373z" />
<glyph unicode="&#x403;" horiz-adv-x="991" d="M41 0l278 1462h816l-52 -272h-503l-226 -1190h-313zM571 1542l205 273h348l-286 -273h-267z" />
<glyph unicode="&#x404;" horiz-adv-x="1224" d="M106 610q0 430 302 678q242 197 581 197q209 0 340 -64l-90 -252q-107 53 -263 54h-11q-184 -2 -318.5 -101.5t-177.5 -267.5h604l-39 -248h-590q-2 -12 -2 -41q2 -127 99.5 -226t275.5 -99q160 0 297 55l23 -250q-143 -70 -389 -70q-307 0 -474.5 176t-167.5 459z" />
<glyph unicode="&#x405;" horiz-adv-x="1105" d="M0 80l104 258q156 -92 345 -92q98 0 165.5 44t67.5 124q0 61 -46 107t-153 102q-301 162 -301 387q0 217 164 346t412 129q207 0 344 -72l-96 -260q-121 66 -273 64q-106 0 -164.5 -45.5t-58.5 -108.5q0 -57 51 -101t162 -106q291 -152 291 -387.5t-169 -365.5t-425 -128 q-279 3 -420 105z" />
<glyph unicode="&#x406;" horiz-adv-x="593" d="M35 0l278 1462h312l-277 -1462h-313z" />
<glyph unicode="&#x407;" horiz-adv-x="593" d="M35 0l276 1462h314l-277 -1462h-313zM123 1683q0 68 46 113t114 45q59 0 99 -40t40 -99q0 -70 -47 -114t-113 -44q-55 0 -97 39t-42 100zM573 1683q0 68 45.5 113t112.5 45q61 0 100 -40t39 -99q0 -70 -47 -114t-110 -44q-57 0 -98.5 39t-41.5 100z" />
<glyph unicode="&#x408;" horiz-adv-x="864" d="M-78 10l62 269q78 -27 172 -27q109 0 172 64.5t94 220.5l176 925h311l-184 -964q-53 -281 -184 -402t-377 -121q-158 0 -242 35z" />
<glyph unicode="&#x409;" horiz-adv-x="1994" d="M-72 240q129 4 213 90q68 68 122 212t79 283l121 637h919l-100 -510q66 14 162 15q213 0 344 -109.5t131 -316.5q0 -217 -147 -361q-203 -195 -619 -194q-221 0 -356 20l223 1190h-309l-70 -350q-51 -258 -120.5 -444.5t-190.5 -295.5q-147 -131 -373 -131zM1147 238 q35 -6 108 -7q127 0 229.5 72t102.5 199q0 106 -66.5 161.5t-170.5 55.5q-59 0 -115 -10z" />
<glyph unicode="&#x40a;" horiz-adv-x="2013" d="M43 0l279 1462h313l-107 -555h459l105 555h313l-105 -528q63 14 160 14q209 0 345.5 -108.5t136.5 -314.5t-148 -347q-197 -193 -620 -192q-221 0 -355 20l121 645h-463l-121 -651h-313zM1167 238q35 -6 111 -7q131 0 230.5 70t99.5 191q0 102 -69 155t-173 53 q-59 0 -113 -10z" />
<glyph unicode="&#x40b;" horiz-adv-x="1507" d="M145 1194l56 268h1140l-53 -268h-469l-61 -311h6q138 88 294 88h7q162 0 241 -88q77 -86 76 -234q0 -91 -26 -235l-70 -414h-313l74 399q16 96 16 164q0 63 -38 106.5t-120 43.5q-109 0 -194 -78l-119 -635h-307l223 1194h-363z" />
<glyph unicode="&#x40c;" horiz-adv-x="1269" d="M41 0l278 1462h308l-119 -616h35l499 616h383l-610 -661q98 -45 153.5 -158t90.5 -293q59 -285 88 -350h-324q-25 66 -75 334q-29 147 -79.5 215.5t-162.5 68.5h-39l-117 -618h-309zM655 1542l205 273h346l-286 -273h-265z" />
<glyph unicode="&#x40e;" horiz-adv-x="1206" d="M82 12l55 254q47 -16 121 -16q125 0 203 135q16 27 16 57q0 21 -8 43l-305 977h344l127 -524q18 -74 63 -287h11q84 219 120 303l215 508h363l-395 -762l-127 -238q-47 -85 -124 -193.5t-153 -172.5q-135 -121 -325 -121q-127 0 -201 37zM512 1815h219q-2 -16 -2 -31 q0 -99 88 -98q92 0 125 129h221q-29 -127 -123 -196t-241 -69q-150 0 -220 68q-67 64 -67 183v14z" />
<glyph unicode="&#x40f;" horiz-adv-x="1404" d="M41 0l276 1462h314l-228 -1196h494l227 1196h314l-277 -1462h-411l-99 -401h-248l64 401h-426z" />
<glyph unicode="&#x410;" horiz-adv-x="1341" d="M-61 0l712 1462h402l172 -1462h-330l-29 381h-422l-170 -381h-335zM537 618h317l-31 316q-4 74 -20 287h-4l-54 -134l-63 -153z" />
<glyph unicode="&#x411;" horiz-adv-x="1243" d="M43 6l274 1456h889l-47 -268h-579l-50 -262q76 14 162 14q205 0 337 -108.5t132 -309.5q0 -244 -186 -387q-201 -156 -563 -155q-234 0 -369 20zM397 231q35 -6 111 -6q127 0 225 72t98 197q0 104 -64.5 160.5t-166.5 56.5q-61 0 -117 -13z" />
<glyph unicode="&#x412;" horiz-adv-x="1271" d="M43 14l270 1426q166 35 383 35q231 0 363 -76q76 -39 123 -109.5t47 -161.5q0 -129 -83 -219t-212 -127v-8q106 -31 167.5 -115t61.5 -202q0 -215 -198 -348q-174 -119 -553 -119q-244 -1 -369 24zM391 240q37 -6 119 -7q139 0 231.5 58.5t92.5 173.5q0 188 -267 188h-98 zM516 881h105q131 0 209.5 53t78.5 147q0 150 -204 150q-76 0 -123 -8z" />
<glyph unicode="&#x413;" horiz-adv-x="991" d="M41 0l278 1462h816l-52 -272h-503l-226 -1190h-313z" />
<glyph unicode="&#x414;" horiz-adv-x="1431" d="M-139 -371l106 617l115 10q133 190 213 381q88 205 133 442l74 383h911l-227 -1208l139 -8l-143 -617h-252l53 371h-776l-98 -371h-248zM406 260h471l174 936h-316l-39 -205q-45 -227 -123 -418q-71 -174 -167 -313z" />
<glyph unicode="&#x415;" horiz-adv-x="1122" d="M41 0l278 1462h867l-53 -266h-551l-62 -313h524l-53 -262h-518l-67 -355h583l-49 -266h-899z" />
<glyph unicode="&#x416;" horiz-adv-x="1832" d="M-78 0q33 49 63 110l71 152l59 127q96 199 186 289t240 125l-357 659h334l252 -622h33l112 622h302l-119 -624h35l473 624h354l-590 -661q63 -20 108.5 -65.5t75 -114t46 -127t30.5 -140.5q35 -242 78 -354h-313q-39 111 -76 352q-20 135 -70.5 204t-150.5 69h-35 l-117 -625h-301l119 627h-35q-180 0 -303 -269q-14 -27 -74.5 -161t-99.5 -197h-330z" />
<glyph unicode="&#x417;" horiz-adv-x="1099" d="M-25 94l97 236q152 -88 325 -88q115 0 197 54t82 155q0 96 -84 143q-80 45 -176 45h-8h-115l41 235h100q129 0 216 51q85 49 85 150q0 76 -49 115t-129 39q-137 0 -295 -80l-61 221q182 115 426 115q182 0 308 -87t126 -265q0 -139 -93.5 -236.5t-230.5 -128.5l-2 -4 q117 -27 190.5 -112t73.5 -212q0 -152 -89 -260t-221 -156.5t-288 -48.5q-254 0 -426 119z" />
<glyph unicode="&#x418;" horiz-adv-x="1429" d="M41 0l278 1462h295l-84 -446q-61 -317 -143 -639l6 -2q102 172 332 508l397 579h338l-276 -1462h-295l86 446q72 375 125 586h-6q-119 -217 -318 -506l-370 -526h-365z" />
<glyph unicode="&#x419;" horiz-adv-x="1429" d="M43 0l276 1462h297l-86 -446q-57 -295 -141 -639l6 -2q72 123 330 508l397 579h338l-276 -1462h-295l86 446q86 434 125 586h-6q-106 -199 -318 -506l-368 -526h-365zM618 1808h220q-2 -17 -2 -31q0 -100 86 -100q94 0 127 131h221q-29 -129 -123 -196.5t-242 -67.5 q-150 0 -220 67q-67 63 -67 183v14z" />
<glyph unicode="&#x41a;" horiz-adv-x="1269" d="M41 0l278 1462h308l-119 -616h35l499 616h383l-610 -661q98 -45 153.5 -158t90.5 -293q59 -285 88 -350h-324q-25 66 -75 334q-29 147 -79.5 215.5t-162.5 68.5h-39l-117 -618h-309z" />
<glyph unicode="&#x41b;" horiz-adv-x="1382" d="M-72 240q133 12 217 98q131 141 193 485l123 639h952l-278 -1462h-312l228 1196h-342l-70 -354q-57 -287 -126 -456t-177 -269q-141 -139 -377 -142z" />
<glyph unicode="&#x41c;" horiz-adv-x="1781" d="M6 0l367 1462h420l45 -555q27 -395 26 -467h8q66 188 199 467l270 555h424l-198 -1462h-303l88 604q49 311 98 570h-6q-137 -317 -252 -551l-299 -598h-244l-51 591q-18 213 -33 558h-6l-39 -188l-44 -217q-19 -95 -38 -165l-145 -604h-287z" />
<glyph unicode="&#x41d;" horiz-adv-x="1443" d="M41 0l278 1462h312l-109 -569h531l108 569h316l-279 -1462h-313l116 614h-532l-115 -614h-313z" />
<glyph unicode="&#x41e;" horiz-adv-x="1529" d="M104 586q0 199 70 381t195 307q219 213 538 213q283 0 436.5 -169t153.5 -441q0 -201 -67.5 -383.5t-190.5 -305.5q-213 -213 -543 -213q-274 0 -433 173.5t-159 437.5zM436 598q0 -164 77 -262t230 -98q176 0 299 203.5t123 426.5q0 156 -68.5 257.5t-226.5 101.5 q-123 0 -226 -101.5t-155.5 -244t-52.5 -283.5z" />
<glyph unicode="&#x41f;" horiz-adv-x="1415" d="M41 0l278 1462h1127l-279 -1462h-311l227 1196h-499l-230 -1196h-313z" />
<glyph unicode="&#x420;" horiz-adv-x="1212" d="M41 0l272 1438q147 37 381 37q252 0 389 -97q158 -106 158 -313q0 -258 -197 -410q-176 -137 -469 -137q-25 0 -47 1t-45.5 5t-36.5 4l-98 -528h-307zM496 784q53 -12 120 -12q137 0 224.5 78t87.5 190q0 184 -223 185q-76 0 -127 -8z" />
<glyph unicode="&#x421;" horiz-adv-x="1261" d="M106 600q0 238 98.5 427.5t270.5 303.5q225 154 537 154q211 0 321 -62l-88 -254q-98 49 -264 50q-197 0 -334 -113q-203 -170 -203 -471q0 -178 100.5 -283.5t289.5 -105.5q166 0 278 47l25 -252q-139 -63 -383 -64q-293 0 -470.5 168t-177.5 455z" />
<glyph unicode="&#x422;" horiz-adv-x="1142" d="M145 1190l56 272h1087l-53 -272h-391l-226 -1190h-313l227 1190h-387z" />
<glyph unicode="&#x423;" horiz-adv-x="1206" d="M82 12l55 254q47 -16 121 -16q125 0 203 135q16 27 16 57q0 21 -8 43l-305 977h344l127 -524q18 -74 63 -287h7l122 303l217 508h363l-395 -762l-127 -238q-47 -85 -124 -193.5t-153 -172.5q-135 -121 -327 -121q-125 0 -199 37z" />
<glyph unicode="&#x424;" horiz-adv-x="1679" d="M115 651q0 190 71.5 341t185 236t238.5 129t248 46l23 121h293l-23 -127q209 -37 349 -185.5t140 -402.5q0 -184 -65.5 -329.5t-175 -232.5t-237.5 -131t-263 -46l-25 -133h-292l24 139q-207 39 -349 185t-142 390zM432 651q0 -141 60.5 -232t156.5 -118l166 879 q-150 -10 -266.5 -158t-116.5 -371zM942 293q158 10 270.5 154.5t112.5 386.5q0 141 -59.5 230t-157.5 107z" />
<glyph unicode="&#x425;" horiz-adv-x="1234" d="M-88 0l547 748l-256 714h329l89 -278q53 -182 67 -244h6q100 182 140 248l170 274h372l-534 -717l280 -745h-331l-101 295q-70 217 -78 250h-4l-147 -260l-174 -285h-375z" />
<glyph unicode="&#x426;" horiz-adv-x="1449" d="M41 0l278 1462h312l-228 -1196h494l227 1196h314l-230 -1208l138 -8l-144 -617h-250l56 371h-967z" />
<glyph unicode="&#x427;" horiz-adv-x="1306" d="M178 848q0 51 23 176l84 438h313l-82 -413q-14 -76 -14 -121q0 -160 194 -160q123 0 209 53l121 641h311l-278 -1464h-311l110 573l-6 2q-115 -59 -287 -59q-180 0 -283.5 89t-103.5 245z" />
<glyph unicode="&#x428;" horiz-adv-x="1898" d="M41 0l278 1462h306l-228 -1196h348l228 1196h303l-225 -1196h346l227 1196h305l-276 -1462h-1612z" />
<glyph unicode="&#x429;" horiz-adv-x="1941" d="M43 0l279 1462h305l-228 -1196h349l227 1196h303l-225 -1196h346l227 1196h305l-229 -1208l139 -8l-143 -617h-252l53 371h-1456z" />
<glyph unicode="&#x42a;" horiz-adv-x="1486" d="M145 1192l52 270h677l-102 -510q88 14 158 15q217 0 349 -112t132 -318q0 -211 -143 -355q-199 -197 -627 -196q-221 0 -352 20l223 1186h-367zM637 240q37 -8 111 -9q127 0 228 71t101 196q0 104 -65.5 162.5t-171.5 58.5q-57 0 -115 -14z" />
<glyph unicode="&#x42b;" horiz-adv-x="1769" d="M41 6l274 1456h312l-101 -512q76 16 164 17q195 0 325 -111t130 -317q0 -213 -146 -359q-197 -195 -604 -194q-219 0 -354 20zM391 240q23 -8 109 -9q119 0 214 71t95 196q0 104 -59.5 162.5t-157.5 58.5q-49 0 -115 -14zM1194 0l281 1462h325l-280 -1462h-326z" />
<glyph unicode="&#x42c;" horiz-adv-x="1241" d="M43 6l274 1456h310l-99 -512q72 16 162 17q211 0 343 -111t132 -319.5t-141 -350.5q-203 -201 -629 -200q-221 0 -352 20zM391 240q35 -8 111 -9q127 0 228 71t101 196q0 106 -65.5 163.5t-173.5 57.5q-51 0 -113 -14z" />
<glyph unicode="&#x42d;" horiz-adv-x="1247" d="M-23 61l80 248q127 -66 303 -65q188 0 316.5 100t165.5 260h-604l45 250h598q2 10 2 35q-4 139 -96.5 236.5t-254.5 97.5q-143 0 -282 -56l-62 238q174 82 387 82q293 0 463 -179.5t170 -478.5q0 -397 -241 -639q-221 -215 -602 -215q-117 0 -224 26.5t-164 59.5z" />
<glyph unicode="&#x42e;" horiz-adv-x="2037" d="M43 0l276 1462h312l-109 -571h193q66 233 213 383q207 213 512 213q268 0 417.5 -169t149.5 -441q0 -199 -65.5 -381.5t-182.5 -307.5q-203 -213 -516 -213q-256 0 -409.5 168t-153.5 396q0 39 6 79h-215l-115 -618h-313zM991 598q0 -166 73 -265.5t218 -99.5 q117 0 210 102.5t140 246t47 284.5q0 362 -274 363q-119 0 -216 -101.5t-147.5 -245t-50.5 -284.5z" />
<glyph unicode="&#x42f;" horiz-adv-x="1241" d="M-72 0q37 57 176 328q72 141 149 234t179 124v8q-96 27 -169 108t-73 214q0 225 197 352q168 106 469 107q258 0 416 -37l-266 -1438h-314l111 584h-58q-63 0 -115 -27t-95 -86t-66 -96t-59 -111q-80 -176 -140 -264h-342zM514 1001q0 -92 68.5 -142t167.5 -50q45 0 96 6 l74 408q-51 8 -115 8q-125 0 -208 -58.5t-83 -171.5z" />
<glyph unicode="&#x430;" horiz-adv-x="1202" d="M57 346q0 137 46.5 267t136.5 235.5t239.5 171t339 65.5t348.5 -51l-106 -557q-44 -235 -44 -429q0 -24 1 -48h-287q4 98 14 211h-6q-135 -236 -362 -236q-143 0 -231.5 102.5t-88.5 268.5zM383 403q0 -80 31.5 -128t95.5 -48q80 0 153.5 92.5t106.5 274.5l47 246 q-49 8 -84 8q-145 0 -247.5 -142.5t-102.5 -302.5z" />
<glyph unicode="&#x431;" horiz-adv-x="1208" d="M98 496q0 487 271 770q133 139 282.5 190t380.5 70q145 14 209 35l-45 -261q-57 -18 -186 -30q-119 -12 -169 -20.5t-139.5 -43.5t-152.5 -94q-111 -104 -146 -250h9q143 199 360 199q174 0 274.5 -117t100.5 -299q-2 -274 -174 -472t-443 -198q-203 0 -317.5 136.5 t-114.5 384.5zM406 436q0 -98 39.5 -163.5t121.5 -65.5q121 0 188.5 135t67.5 281q0 88 -37.5 151.5t-117.5 63.5q-94 0 -168 -101q-94 -121 -94 -301z" />
<glyph unicode="&#x432;" horiz-adv-x="1155" d="M72 305q0 174 72.5 381t203.5 301q143 100 344 100q180 0 281.5 -66.5t101.5 -195.5q0 -96 -74.5 -161.5t-173.5 -90.5v-4q90 -12 156 -69.5t66 -151.5q0 -100 -53.5 -175t-140.5 -116t-180 -60.5t-188 -19.5q-415 0 -415 328zM385 322q0 -129 141 -129q90 0 147.5 41.5 t57.5 103.5q0 117 -160 117q-86 0 -174 -33q-12 -57 -12 -100zM434 621q176 27 250 61q90 43 90 109q0 39 -29.5 61t-80.5 22q-160 1 -230 -253z" />
<glyph unicode="&#x433;" horiz-adv-x="913" d="M12 268q0 80 30 140.5t94.5 105.5t112.5 70.5t140 62.5q68 29 102.5 45.5t64.5 42t30 51.5q0 70 -115 70q-111 0 -246 -55l-30 209q143 76 342 75q172 -2 263 -78.5t91 -213.5q0 -127 -93 -207t-268 -154q-100 -43 -148 -76.5t-48 -74.5q0 -74 108 -74q129 0 293 80 l33 -219q-166 -90 -373 -91q-180 2 -281.5 77t-101.5 214z" />
<glyph unicode="&#x434;" horiz-adv-x="1200" d="M63 418q0 158 67 304t198 243.5t293 97.5q205 0 280 -174h6q2 20 2 63v12q0 139 -92 220q-88 82 -305 96q-176 18 -209 25l-4 256q41 -10 96.5 -15.5t124 -9.5t96.5 -6q250 -25 373 -141q172 -145 172 -490q0 -129 -21.5 -254t-72.5 -247t-126 -214t-189.5 -150.5 t-255.5 -58.5q-203 0 -318 118t-115 325zM387 410q0 -86 38 -144.5t118 -58.5q113 0 184.5 137t73.5 268q0 88 -38 152.5t-118 64.5q-82 0 -144.5 -71.5t-88.5 -164.5q-25 -87 -25 -171v-12z" />
<glyph unicode="&#x435;" horiz-adv-x="1087" d="M61 426q0 164 73 313.5t217.5 247.5t328.5 98q162 0 265.5 -87t103.5 -232q0 -357 -634 -357q-28 0 -57 1q4 -68 35 -109q63 -82 205 -82q158 0 297 68l20 -226q-166 -86 -397 -86q-223 0 -340 119t-117 332zM389 639h25q170 0 253 27q89 29 89 102q0 39 -32 64.5 t-83 25.5q-100 0 -167 -67.5t-85 -151.5z" />
<glyph unicode="&#x436;" horiz-adv-x="1574" d="M-86 0l42 85l48 104l43 96q135 289 328 307l-258 469h338l163 -438h31l82 438h295l-88 -438h33l340 438h348l-436 -467q129 -43 176 -311q45 -240 59 -283h-301q-12 35 -47 229q-18 102 -53 158.5t-113 56.5h-37l-82 -444h-297l88 444h-28q-154 0 -242 -192 q-16 -31 -41 -85l-44 -94q-19 -40 -40 -73h-307z" />
<glyph unicode="&#x437;" horiz-adv-x="999" d="M-41 86l80 209q147 -86 307 -86q84 0 146.5 30.5t62.5 90.5q0 117 -217 116h-125l31 203h123q90 0 155.5 26.5t65.5 84.5q0 49 -42 75.5t-110 26.5q-133 0 -262 -67l-53 188q178 98 387 98q100 0 186 -20.5t155 -85t69 -168.5q0 -102 -78 -165.5t-193 -86.5l-2 -2 q100 -16 170 -79.5t70 -164.5q0 -121 -85 -198.5t-192.5 -104t-226.5 -26.5q-258 0 -422 106z" />
<glyph unicode="&#x438;" horiz-adv-x="1214" d="M88 274q0 88 23 195l112 592h314l-109 -567q-16 -88 -16 -142q0 -123 106 -123q84 0 155.5 92.5t100.5 247.5l94 492h312l-136 -715q-41 -229 -57 -346h-274l18 174h-4q-154 -199 -365 -199q-131 0 -202.5 74.5t-71.5 224.5z" />
<glyph unicode="&#x439;" horiz-adv-x="1214" d="M88 274q0 88 23 195l112 592h314l-109 -567q-16 -88 -16 -142q0 -123 106 -123q84 0 155.5 92.5t100.5 247.5l94 492h312l-136 -715q-41 -229 -57 -346h-274l18 174h-4q-154 -199 -365 -199q-131 0 -202.5 74.5t-71.5 224.5zM492 1503h196q-2 -18 -2 -34q0 -42 15 -70 q22 -39 65 -39q86 0 119 143h200q-29 -141 -117.5 -213.5t-219.5 -72.5q-139 0 -204 76q-54 65 -54 169q0 20 2 41z" />
<glyph unicode="&#x43a;" horiz-adv-x="1099" d="M29 0l200 1061h306l-84 -436h30l357 436h366l-465 -473q131 -53 179 -314q43 -207 69 -274h-307q-8 25 -18.5 63.5t-23.5 99.5l-20 89q-27 102 -64.5 146t-109.5 44h-26l-86 -442h-303z" />
<glyph unicode="&#x43b;" horiz-adv-x="1181" d="M-63 229q100 12 155 66q94 88 141 332l84 436h836l-203 -1063h-309l154 823h-236l-41 -202q-74 -379 -231 -517q-123 -119 -330 -118z" />
<glyph unicode="&#x43c;" horiz-adv-x="1544" d="M2 0l281 1063h393l41 -414q6 -72 18 -250h4l140 287l198 377h398l-142 -1063h-289l66 426q20 156 57 354h-8q-33 -78 -158 -329l-225 -435h-237l-41 422q-20 205 -29 344h-8q-59 -283 -78 -362l-104 -420h-277z" />
<glyph unicode="&#x43d;" horiz-adv-x="1208" d="M29 0l198 1061h314l-74 -389h324l73 389h314l-203 -1061h-313l83 430h-323l-82 -430h-311z" />
<glyph unicode="&#x43e;" horiz-adv-x="1212" d="M61 418q0 279 178.5 474t454.5 195q209 0 331 -124.5t122 -313.5q0 -291 -179.5 -482.5t-455.5 -191.5q-203 0 -327 122t-124 321zM385 422q0 -94 45 -150.5t125 -56.5q119 0 193.5 140.5t74.5 291.5q0 82 -42 141.5t-126 59.5t-148.5 -74t-93 -169t-28.5 -183z" />
<glyph unicode="&#x43f;" horiz-adv-x="1220" d="M27 0l133 717q23 106 59 344h277l-21 -176h4q145 201 373 200q129 0 200.5 -75.5t71.5 -214.5q0 -74 -16 -179l-119 -616h-313l112 588q10 61 11 117q0 129 -107 129q-80 0 -156.5 -97.5t-107.5 -265.5l-90 -471h-311z" />
<glyph unicode="&#x440;" horiz-adv-x="1224" d="M-59 -430l206 1081q29 150 62 420h278l-18 -164h4q135 178 342 178q164 0 253 -114.5t89 -288.5q0 -287 -174 -497t-442 -210q-121 0 -195 45h-8l-84 -450h-313zM389 262q55 -49 143 -49q121 0 209 141.5t88 302.5q0 72 -33.5 123t-103.5 51q-90 0 -163.5 -92 t-100.5 -245z" />
<glyph unicode="&#x441;" horiz-adv-x="937" d="M59 412q0 287 196 480t497 193q121 0 217 -34l-78 -242q-63 27 -143 27q-162 0 -261.5 -116t-99.5 -274q0 -104 58.5 -161.5t148.5 -57.5q102 0 211 43l2 -235q-117 -57 -301 -58q-201 0 -324 117t-123 318z" />
<glyph unicode="&#x442;" horiz-adv-x="1802" d="M29 0l131 717q31 176 55 344h266l-18 -170h4q141 197 364 196q117 0 181.5 -60t70.5 -142q141 203 367 202q121 0 189.5 -75.5t68.5 -210.5q0 -74 -16 -183l-115 -618h-305l106 582q16 72 17 129q0 125 -105 125q-82 0 -150.5 -97.5t-99.5 -257.5l-90 -481h-301l111 584 q12 88 12 121q0 131 -98 131q-82 0 -156 -100.5t-100 -258.5l-88 -477h-301z" />
<glyph unicode="&#x443;" horiz-adv-x="1077" d="M-53 -221q104 33 178 82q113 76 174 186q12 20 4 51l-209 963h330l63 -463q10 -57 21.5 -140t17.5 -116h4l93 250l188 469h332q-4 -6 -156.5 -326.5t-220.5 -451.5q-209 -399 -410 -592q-82 -78 -179 -124t-163 -59z" />
<glyph unicode="&#x444;" horiz-adv-x="1595" d="M57 367q0 176 62.5 339.5t183.5 271t268 107.5q119 0 164 -102h4l107 559h280l-112 -565h6q96 109 231 108q139 0 211 -111.5t72 -281.5q0 -182 -61.5 -345t-178 -267.5t-262.5 -104.5q-59 0 -110.5 28t-73.5 71h-4l-88 -504h-289l98 508h-6q-84 -102 -229 -103 q-121 0 -197 103t-76 289zM369 401q0 -80 29.5 -127t78.5 -47q55 0 93 44t53 106l59 289q6 35 10 96q-2 33 -23.5 58.5t-58.5 25.5q-100 0 -170.5 -149t-70.5 -296zM909 367q-4 -22 -3 -39q0 -31 12 -45q10 -25 34 -43q20 -15 50 -15h14q84 12 146.5 150.5t62.5 281.5 q0 76 -25.5 126.5t-79.5 50.5q-70 0 -119 -78q-27 -57 -49 -154l-21 -113q-16 -79 -22 -122z" />
<glyph unicode="&#x445;" horiz-adv-x="1079" d="M-104 0l460 549l-250 512h343l63 -158l68 -178h6l112 170l119 166h357l-447 -516l248 -545h-344l-66 170q-33 82 -67 192h-6q-8 -10 -45 -72l-62 -106l-129 -184h-360z" />
<glyph unicode="&#x446;" horiz-adv-x="1249" d="M88 274q0 88 23 195l112 592h314l-109 -567q-16 -88 -16 -142q0 -123 106 -123q84 0 155.5 92.5t100.5 247.5l92 492h314l-117 -612q-20 -102 -21 -152q0 -127 150 -129l-164 -506h-223l92 338q-59 16 -94 70q-27 37 -35 112h-4q-153 -207 -374 -207h-9q-135 0 -214 74.5 t-79 224.5z" />
<glyph unicode="&#x447;" horiz-adv-x="1167" d="M117 618q0 68 22 170l54 273h313l-49 -244q-18 -98 -19 -127q0 -117 137 -117q100 0 168 56l82 432h310l-203 -1061h-311l81 403h-4q-106 -57 -252 -57q-164 0 -246.5 73.5t-82.5 198.5z" />
<glyph unicode="&#x448;" horiz-adv-x="1792" d="M88 262q0 74 18 182l115 617h305l-106 -580q-16 -72 -17 -127q0 -127 103 -127q78 0 146.5 97.5t99.5 257.5l88 479h303l-111 -584q-14 -82 -14 -119q0 -131 98 -131q78 0 150.5 101.5t101.5 255.5l86 477h305l-133 -711q-23 -121 -33 -350h-280q2 72 12 176h-6 q-137 -201 -363 -201q-115 0 -178 61.5t-69 141.5q-141 -203 -367 -203q-119 0 -186.5 77t-67.5 210z" />
<glyph unicode="&#x449;" horiz-adv-x="1830" d="M88 262q0 74 18 182l115 617h305l-106 -580q-16 -72 -17 -127q0 -127 103 -127q78 0 145.5 97.5t98.5 257.5l90 479h303l-111 -584q-14 -82 -14 -119q0 -131 98 -131q78 0 151.5 101.5t102.5 255.5l86 477h303l-108 -594q-25 -152 -25 -174q0 -123 150 -125l-162 -506 h-225l90 338q-51 10 -90 66.5t-43 115.5h-7q-145 -207 -383 -207q-115 0 -178 61.5t-69 141.5q-141 -203 -363 -203q-123 0 -190.5 77t-67.5 210z" />
<glyph unicode="&#x44a;" horiz-adv-x="1255" d="M74 821l45 240h702q-172 -252 -237 -410h2q109 98 282 99q133 0 217 -79t84 -214q0 -186 -155.5 -331.5t-415.5 -145.5q-387 0 -387 307q0 117 60.5 263t150.5 271h-348zM520 315q0 -49 31 -80.5t88 -31.5q90 0 157.5 56t67.5 142q0 59 -34.5 92t-94.5 33 q-63 0 -117.5 -40t-76.5 -89q-21 -39 -21 -82z" />
<glyph unicode="&#x44b;" horiz-adv-x="1611" d="M76 238q0 74 30 213l136 610h307l-105 -410h5q111 98 278 99q131 0 211 -78t80 -213q0 -190 -153.5 -334.5t-428.5 -144.5q-360 0 -360 258zM387 297q0 -94 115 -94q80 0 145.5 56t65.5 142q0 59 -33 92t-90 33q-63 0 -119.5 -47t-71.5 -102q-12 -39 -12 -80zM1051 0 l204 1061h328l-205 -1061h-327z" />
<glyph unicode="&#x44c;" horiz-adv-x="1122" d="M76 248q0 74 33 203l135 610h305l-105 -408l2 -2q111 98 283 99q133 0 220 -79t87 -214q0 -197 -156.5 -337t-437.5 -140q-366 0 -366 268zM387 301q0 -98 115 -98q86 0 156.5 55t70.5 141q0 59 -33.5 93t-91.5 34q-72 0 -127 -45t-76 -96q-14 -39 -14 -84z" />
<glyph unicode="&#x44d;" horiz-adv-x="1021" d="M-31 51l74 217q109 -51 252 -51q117 0 201 55.5t112 157.5h-415l34 199h410v20q0 86 -63.5 142.5t-178.5 56.5q-125 0 -221 -41l-51 217q154 61 315 61q244 0 375 -135t131 -366q0 -272 -172 -439.5t-481 -167.5q-199 8 -322 74z" />
<glyph unicode="&#x44e;" horiz-adv-x="1654" d="M29 0l198 1061h316l-76 -399h141q63 193 211 309t342.5 116t312 -128t117.5 -322q0 -283 -170 -472.5t-432 -189.5q-190 0 -303 115t-113 295q0 8 1 25.5t1 27.5h-151l-84 -438h-311zM874 422q0 -94 40 -150.5t114 -56.5q104 0 175 140.5t71 289.5q0 84 -36 143.5 t-111.5 59.5t-135 -75t-88.5 -170t-29 -181z" />
<glyph unicode="&#x44f;" horiz-adv-x="1150" d="M-61 0q29 41 55 86t54 103.5t46 89.5q100 184 256 215v6q-82 14 -148.5 77.5t-66.5 155.5q0 350 602 350q199 0 385 -24l-202 -1059h-306l76 401h-63q-143 0 -234 -178q-84 -166 -119 -223h-335zM455 729q0 -63 56 -95t134 -32h84l51 262q-66 8 -114 8q-211 0 -211 -143z " />
<glyph unicode="&#x451;" horiz-adv-x="1087" d="M61 426q0 164 73 313.5t217.5 247.5t328.5 98q162 0 265.5 -87t103.5 -232q0 -357 -634 -357q-28 0 -57 1q4 -68 35 -109q63 -82 205 -82q158 0 297 68l20 -226q-166 -86 -397 -86q-223 0 -340 119t-117 332zM340 1346q0 72 48 117.5t118 45.5q63 0 102 -42t39 -101 q0 -74 -47 -119t-117 -45q-57 0 -100 39t-43 105zM389 639h25q170 0 253 27q89 29 89 102q0 39 -32 64.5t-83 25.5q-100 0 -167 -67.5t-85 -151.5zM788 1346q0 72 47.5 117.5t116.5 45.5q63 0 102.5 -42t39.5 -101q0 -74 -46.5 -119t-115.5 -45q-61 0 -102.5 39t-41.5 105z " />
<glyph unicode="&#x452;" horiz-adv-x="1220" d="M31 0l225 1194h-121l43 207h117l27 141h309l-25 -141h488l-39 -207h-488l-49 -254h4q125 131 289 131q168 0 251 -125t83 -317q0 -215 -66.5 -406.5t-195.5 -324.5q-74 -86 -187.5 -143.5t-220.5 -69.5l-47 256q113 20 209 120q78 76 130 216.5t52 295.5q0 238 -145 238 q-80 0 -142.5 -76t-87.5 -205l-102 -530h-311z" />
<glyph unicode="&#x453;" horiz-adv-x="913" d="M12 268q0 80 30 140.5t94.5 105.5t112.5 70.5t140 62.5q68 29 102.5 45.5t64.5 42t30 51.5q0 70 -115 70q-111 0 -246 -55l-30 209q143 76 342 75q172 -2 263 -78.5t91 -213.5q0 -127 -93 -207t-268 -154q-100 -43 -148 -76.5t-48 -74.5q0 -74 108 -74q129 0 293 80 l33 -219q-166 -90 -373 -91q-180 2 -281.5 77t-101.5 214zM455 1190l202 330h310l-283 -330h-229z" />
<glyph unicode="&#x454;" horiz-adv-x="960" d="M66 451q0 272 172 450q190 186 487 186q166 0 264 -53l-74 -223q-74 41 -186 41q-115 0 -199 -59.5t-116 -161.5h413l-34 -199h-408v-24q10 -86 75.5 -137.5t168.5 -51.5q115 0 211 41l16 -225q-121 -59 -313 -60q-213 0 -345 128.5t-132 347.5z" />
<glyph unicode="&#x455;" horiz-adv-x="901" d="M-8 61l76 220q147 -74 274 -74q66 0 100.5 26.5t34.5 67.5q0 39 -28.5 70.5t-102.5 66.5q-225 113 -225 283q0 164 131 265t336 101q174 0 274 -53l-76 -223q-102 47 -211 47q-63 0 -101 -25.5t-38 -68.5q0 -61 129 -119q238 -119 238 -293q0 -178 -135.5 -278.5 t-352.5 -96.5q-214 6 -323 84z" />
<glyph unicode="&#x456;" horiz-adv-x="579" d="M29 0l200 1061h314l-203 -1061h-311zM264 1364q0 82 56.5 135t136.5 53q74 0 120 -45t46 -118q0 -86 -56.5 -137.5t-138.5 -51.5h-4q-70 0 -115 46t-45 118z" />
<glyph unicode="&#x457;" horiz-adv-x="573" d="M29 0l198 1061h316l-205 -1061h-309zM63 1346q0 72 47.5 117.5t116.5 45.5q63 0 102.5 -42t39.5 -101q0 -74 -46.5 -119t-115.5 -45q-59 0 -101.5 39t-42.5 105zM510 1346q0 72 48 117.5t118 45.5q61 0 101 -42t40 -101q0 -74 -47 -119t-117 -45q-61 0 -102 39t-41 105z " />
<glyph unicode="&#x458;" horiz-adv-x="595" d="M-207 -436l35 233q43 -4 70 -4q61 0 102 48t66 182l196 1038h311l-190 -1026q-51 -262 -150.5 -376t-289.5 -114q-87 1 -150 19zM287 1364q0 80 56 134t134 54q74 0 121 -45t47 -118q0 -86 -57.5 -137.5t-143.5 -51.5q-70 0 -113.5 46t-43.5 118z" />
<glyph unicode="&#x459;" horiz-adv-x="1703" d="M-63 231q78 8 131 64q92 86 143 330l82 438h819l-86 -408h6q111 94 279 95q133 0 220 -78t87 -213q0 -193 -156.5 -336t-443.5 -143q-360 0 -361 266q0 70 29 205l78 372h-229l-39 -205q-41 -207 -94.5 -325.5t-139.5 -190.5q-121 -117 -305 -116zM969 305 q0 -102 116 -102q84 0 155 55t71 141q0 59 -34 93t-91 34q-72 0 -127 -45t-76 -100q-14 -39 -14 -76z" />
<glyph unicode="&#x45a;" horiz-adv-x="1720" d="M29 0l198 1061h314l-72 -379h285l75 379h304l-84 -408h2q109 96 276 97q131 0 219 -79t88 -214q0 -193 -157.5 -335t-440.5 -142q-358 0 -358 249q0 49 12 131l19 84h-285l-84 -444h-311zM987 299q0 -43 33 -69.5t82 -26.5q92 0 159.5 54t67.5 142q0 59 -33.5 93 t-93.5 34q-72 0 -127 -46t-71 -99q-17 -47 -17 -82z" />
<glyph unicode="&#x45b;" horiz-adv-x="1222" d="M31 0l225 1196h-147l41 201h145l29 145h313l-29 -145h453l-41 -201h-451l-53 -270h4q145 160 340 159q123 0 194.5 -74.5t71.5 -211.5q0 -84 -18 -191l-117 -608h-311l111 582q12 61 12 131q0 121 -107 121q-84 0 -157.5 -95.5t-102.5 -253.5l-94 -485h-311z" />
<glyph unicode="&#x45c;" horiz-adv-x="1099" d="M29 0l200 1061h306l-84 -436h30l357 436h366l-465 -473q131 -53 179 -314q43 -207 69 -274h-307q-8 25 -18.5 63.5t-23.5 99.5l-20 89q-27 102 -64.5 146t-109.5 44h-26l-86 -442h-303zM530 1190l201 330h309l-282 -330h-228z" />
<glyph unicode="&#x45e;" horiz-adv-x="1077" d="M-53 -221q104 33 178 82q113 76 174 186q12 20 4 51l-209 963h330l63 -463q10 -57 21.5 -140t17.5 -116h4l93 250l188 469h332q-4 -6 -156.5 -326.5t-220.5 -451.5q-209 -399 -410 -592q-82 -78 -179 -124t-163 -59zM393 1503h197q-2 -18 -2 -34q0 -42 15 -70 q22 -39 65 -39q88 0 120 143h199q-27 -141 -116 -213.5t-222 -72.5q-139 0 -203 76q-55 66 -54 174q0 18 1 36z" />
<glyph unicode="&#x45f;" horiz-adv-x="1214" d="M88 274q0 88 23 195l112 592h314l-109 -567q-16 -88 -16 -142q0 -123 106 -123q84 0 155.5 92.5t100.5 247.5l94 492h312l-136 -715q-41 -229 -57 -346h-274l18 172l-4 2q-78 -100 -174 -149.5t-191 -49.5q-131 0 -202.5 74.5t-71.5 224.5zM289 -455l78 353l276 20 l-102 -338z" />
<glyph unicode="&#x490;" horiz-adv-x="968" d="M41 0l276 1462h545l99 287h237l-139 -559h-479l-226 -1190h-313z" />
<glyph unicode="&#x491;" horiz-adv-x="876" d="M29 0l200 1061h445l88 248h229l-114 -492h-381l-156 -817h-311z" />
<glyph unicode="&#x4d9;" horiz-adv-x="1077" d="M27 297q0 357 625 357q31 0 63 -1q0 63 -31 107q-63 84 -205 84q-152 0 -291 -70l-34 223q176 90 399 90t342 -120.5t119 -331.5q0 -166 -72 -313.5t-215 -246t-328 -98.5q-168 0 -270 86.5t-102 233.5zM319 297q0 -41 32 -65.5t85 -24.5q100 0 165 66.5t83 152.5h-24 q-170 0 -252 -28q-89 -29 -89 -101z" />
<glyph unicode="&#x1e80;" horiz-adv-x="1873" d="M201 1462h315v-651q0 -211 -8 -473h4l174 469l260 655h344l-4 -653q0 -178 -14 -463h4l162 465l254 651h327l-645 -1462h-338l-12 602v53q0 213 14 430h-4q-133 -383 -178 -493l-252 -592h-348zM752 1817h340l168 -271h-259z" />
<glyph unicode="&#x1e81;" horiz-adv-x="1589" d="M111 1061h317l2 -449q0 -143 -10 -338h4q25 80 129 328l209 459h256l26 -445q5 -135 5 -227q0 -69 -2 -115h6q37 125 114 347l183 440h315l-516 -1061h-293l-31 369q-8 113 -8 342h-6q-102 -279 -125 -326l-180 -385h-295zM594 1520h303l162 -330h-223z" />
<glyph unicode="&#x1e82;" horiz-adv-x="1873" d="M201 1462h315v-651q0 -211 -8 -473h4l174 469l260 655h344l-4 -653q0 -178 -14 -463h4l162 465l254 651h327l-645 -1462h-338l-12 602v53q0 213 14 430h-4q-133 -383 -178 -493l-252 -592h-348zM969 1542l202 273h349l-287 -273h-264z" />
<glyph unicode="&#x1e83;" horiz-adv-x="1589" d="M111 1061h317l2 -449q0 -143 -10 -338h4q25 80 129 328l209 459h256l26 -445q5 -135 5 -227q0 -69 -2 -115h6q37 125 114 347l183 440h315l-516 -1061h-293l-31 369q-8 113 -8 342h-6q-102 -279 -125 -326l-180 -385h-295zM754 1190l202 330h310l-283 -330h-229z" />
<glyph unicode="&#x1e84;" horiz-adv-x="1873" d="M201 1462h315v-651q0 -211 -8 -473h4l174 469l260 655h344l-4 -653q0 -178 -14 -463h4l162 465l254 651h327l-645 -1462h-338l-12 602v53q0 213 14 430h-4q-133 -383 -178 -493l-252 -592h-348zM782 1683q0 68 45 113t113 45q61 0 100 -40t39 -99q0 -70 -46 -114 t-107 -44h-6q-55 0 -96.5 39t-41.5 100zM1233 1683q0 68 46 113t112 45q61 0 100 -40t39 -99q0 -70 -46 -114t-112 -44q-57 0 -98 39t-41 100z" />
<glyph unicode="&#x1e85;" horiz-adv-x="1589" d="M111 1063h317l2 -451q0 -190 -10 -338h6q25 84 127 328l209 461h256l26 -447q5 -135 5 -227q0 -69 -2 -115h6q37 125 114 347l183 442h315l-516 -1063h-293l-31 369q-8 150 -8 342h-6q-102 -279 -125 -326l-180 -385h-295zM565 1346q0 72 47 117.5t117 45.5q63 0 102 -42 t39 -101q0 -74 -47 -119t-114 -45q-59 0 -101.5 39t-42.5 105zM1010 1346q0 72 48 117.5t115 45.5q63 0 102.5 -42t39.5 -101q0 -74 -46 -119t-116 -45q-61 0 -102 39t-41 105z" />
<glyph unicode="&#x1ea0;" horiz-adv-x="1341" d="M-61 0l712 1462h402l172 -1462h-330l-29 381h-422l-170 -381h-335zM375 -324q0 63 45 106.5t108 43.5q59 0 102.5 -43t43.5 -107q0 -61 -43 -104t-105.5 -43t-106.5 44t-44 103zM537 618h317l-31 316q-4 74 -20 287h-4q-6 -18 -50 -128t-67 -159z" />
<glyph unicode="&#x1ea1;" horiz-adv-x="1202" d="M53 346q0 137 47 267t137.5 235.5t240 171t336.5 65.5t351 -51l-110 -557q-44 -235 -44 -429q0 -24 1 -48h-287l6 112q4 75 6 99h-4q-129 -236 -358 -236q-143 0 -232.5 102.5t-89.5 268.5zM315 -328q0 68 44 111t110 43q63 0 105 -43t42 -111q0 -63 -42 -107t-103 -44 h-4q-66 0 -109 44t-43 107zM381 403q0 -80 31.5 -128t95.5 -48q78 0 150.5 92.5t107.5 274.5l49 246q-49 8 -86 8q-143 0 -245.5 -142.5t-102.5 -302.5z" />
<glyph unicode="&#x1ea2;" horiz-adv-x="1341" d="M-61 0l712 1462h402l172 -1462h-330l-29 381h-422l-170 -381h-335zM537 618h317l-31 316q-4 74 -20 287h-4q-6 -18 -50 -128t-67 -159zM662 1821q111 158 266 157q88 0 143 -49t55 -123q0 -59 -32.5 -102t-87 -91t-78.5 -87l-142 53q16 33 71.5 87t55.5 93q0 25 -16 41.5 t-43 16.5q-43 0 -100 -64z" />
<glyph unicode="&#x1ea3;" horiz-adv-x="1202" d="M53 346q0 137 47 267t137.5 235.5t240 171t336.5 65.5t351 -51l-110 -557q-44 -235 -44 -429q0 -24 1 -48h-287l6 112q4 75 6 99h-4q-129 -236 -358 -236q-143 0 -232.5 102.5t-89.5 268.5zM381 403q0 -80 31.5 -128t95.5 -48q78 0 150.5 92.5t107.5 274.5l49 246 q-49 8 -86 8q-143 0 -245.5 -142.5t-102.5 -302.5zM522 1458q109 170 277 170q90 0 144 -51t54 -127q0 -68 -35.5 -119t-89 -99t-73.5 -85l-156 43q16 43 80.5 106.5t64.5 108.5q0 29 -16 46t-41 17q-53 0 -108 -79z" />
<glyph unicode="&#x1ea4;" horiz-adv-x="1341" d="M-61 0l712 1462h402l172 -1462h-330l-29 381h-422l-170 -381h-335zM537 1542l274 266h225l142 -266h-211l-62 135h-4l-129 -135h-235zM537 618h317l-31 316q-4 74 -20 287h-4q-6 -18 -50 -128t-67 -159zM1120 1739l193 243h256l-293 -243h-156z" />
<glyph unicode="&#x1ea5;" horiz-adv-x="1202" d="M53 346q0 137 47 267t137.5 235.5t240 171t336.5 65.5t351 -51l-110 -557q-44 -235 -44 -429q0 -24 1 -48h-287l6 112q4 75 6 99h-4q-129 -236 -358 -236q-143 0 -232.5 102.5t-89.5 268.5zM381 403q0 -80 31.5 -128t95.5 -48q78 0 150.5 92.5t107.5 274.5l49 246 q-49 8 -86 8q-143 0 -245.5 -142.5t-102.5 -302.5zM446 1194l250 330h230l135 -330h-201l-65 188h-4l-127 -188h-218zM1020 1407l199 319h249l-284 -319h-164z" />
<glyph unicode="&#x1ea6;" horiz-adv-x="1341" d="M-61 0l712 1462h402l172 -1462h-330l-29 381h-422l-170 -381h-335zM537 1542l272 266h225l144 -266h-213l-60 135h-4l-131 -135h-233zM537 618h317l-31 316q-4 74 -20 287h-4q-6 -18 -50 -128t-67 -159zM1004 1956h258l120 -246h-157z" />
<glyph unicode="&#x1ea7;" horiz-adv-x="1202" d="M53 346q0 137 47 267t137.5 235.5t240 171t336.5 65.5t351 -51l-110 -557q-44 -235 -44 -429q0 -24 1 -48h-287l6 112q4 75 6 99h-6q-129 -236 -356 -236q-143 0 -232.5 102.5t-89.5 268.5zM381 403q0 -80 31.5 -128t95.5 -48q78 0 150.5 92.5t107.5 274.5l49 246 q-49 8 -86 8q-143 0 -245.5 -142.5t-102.5 -302.5zM426 1194l250 330h229l135 -330h-202l-66 188h-4l-125 -188h-217zM874 1731h232l154 -322h-148z" />
<glyph unicode="&#x1ea8;" horiz-adv-x="1341" d="M-61 0l712 1462h402l172 -1462h-330l-29 381h-422l-170 -381h-335zM537 618h317l-31 316q-4 74 -20 287h-4q-6 -18 -50 -128t-67 -159zM539 1542l272 266h225l142 -266h-211l-62 135h-4l-129 -135h-233zM1049 1929q104 127 245 127q82 0 134.5 -46t52.5 -116 q0 -43 -20.5 -79.5t-48.5 -58t-62.5 -54.5t-53.5 -64l-131 52q20 37 73.5 82t53.5 79q0 25 -17.5 41.5t-45.5 16.5q-47 0 -101 -58z" />
<glyph unicode="&#x1ea9;" horiz-adv-x="1202" d="M100 613q47 130 137.5 235.5t240 171t336.5 65.5t351 -51l-110 -557q-44 -235 -44 -429q0 -24 1 -48h-287l6 112q4 75 6 99h-6q-129 -236 -356 -236q-143 0 -234 103q-88 100 -88 261q0 144 47 274zM381 403q0 -80 31.5 -128t95.5 -48q78 0 150.5 92.5t107.5 274.5 l49 246q-49 8 -86 8q-143 0 -245.5 -142.5t-102.5 -302.5zM426 1194l250 330h229l135 -330h-202l-66 188h-4l-125 -188h-217zM909 1663q100 125 244 125q84 0 136 -45t52 -117q0 -57 -31.5 -97t-81.5 -81t-73 -76l-131 49q20 37 74.5 82t54.5 82q0 23 -18.5 39t-44.5 16 q-47 0 -101 -55z" />
<glyph unicode="&#x1eaa;" horiz-adv-x="1341" d="M-61 0l712 1462h402l172 -1462h-330l-29 381h-422l-170 -381h-335zM537 618h317l-31 316q-4 74 -20 287h-4q-6 -18 -50 -128t-67 -159zM539 1542l272 266h225l142 -266h-211l-62 135h-4l-129 -135h-233zM627 1843q10 113 65.5 177.5t138.5 64.5q61 0 134 -45 q63 -37 88 -37q29 0 43 18.5t24 69.5h150q-20 -244 -207 -244q-49 0 -141 47q-55 31 -80 31q-49 0 -62 -82h-153z" />
<glyph unicode="&#x1eab;" horiz-adv-x="1202" d="M53 346q0 137 47 267t137.5 235.5t240 171t336.5 65.5t351 -51l-110 -557q-44 -235 -44 -429q0 -24 1 -48h-287l6 112q4 75 6 99h-6q-129 -236 -356 -236q-143 0 -232.5 102.5t-89.5 268.5zM381 403q0 -80 31.5 -128t95.5 -48q78 0 150.5 92.5t107.5 274.5l49 246 q-49 8 -86 8q-143 0 -245.5 -142.5t-102.5 -302.5zM446 1194l234 285h213l151 -285h-198l-70 147h-4l-106 -147h-220zM492 1534q10 115 65 177.5t137 62.5q57 0 135 -41q61 -37 88 -37t42.5 18.5t23.5 67.5h150q-16 -242 -203 -242q-51 0 -142 45q-55 33 -83 33 q-45 0 -62 -84h-151z" />
<glyph unicode="&#x1eac;" horiz-adv-x="1341" d="M-61 0l712 1462h402l172 -1462h-330l-29 381h-422l-170 -381h-335zM381 -324q0 63 44 106.5t107 43.5q59 0 102.5 -43t43.5 -107q0 -61 -43 -104t-105.5 -43t-105.5 44t-43 103zM518 1542l270 273h236l174 -273h-219l-88 131h-6l-125 -131h-242zM537 618h317l-31 316 q-4 74 -20 287h-4q-6 -18 -50 -128t-67 -159z" />
<glyph unicode="&#x1ead;" horiz-adv-x="1202" d="M53 346q0 137 47 267t137.5 235.5t240 171t336.5 65.5t351 -51l-110 -557q-44 -235 -44 -429q0 -24 1 -48h-287l6 112q4 75 6 99h-4q-129 -236 -358 -236q-143 0 -232.5 102.5t-89.5 268.5zM336 -328q0 68 45 111t111 43q61 0 104 -43t43 -111q0 -63 -43 -107t-107.5 -44 t-108.5 44t-44 107zM381 403q0 -80 31.5 -128t95.5 -48q78 0 150.5 92.5t107.5 274.5l49 246q-49 8 -86 8q-143 0 -245.5 -142.5t-102.5 -302.5zM426 1190l264 330h213l162 -330h-201l-88 172h-4l-125 -172h-221z" />
<glyph unicode="&#x1eae;" horiz-adv-x="1341" d="M-61 0l712 1462h402l172 -1462h-330l-29 381h-422l-170 -381h-335zM537 618h317l-31 316q-4 74 -20 287h-4q-6 -18 -50 -128t-67 -159zM592 1780h164q0 -43 31.5 -74t91.5 -31q129 0 153 105h164q-23 -119 -103.5 -190.5t-230 -71.5t-216.5 72q-56 61 -56 154q0 18 2 36z M793 1759l159 246h277l-291 -246h-145z" />
<glyph unicode="&#x1eaf;" horiz-adv-x="1202" d="M53 346q0 137 47 267t137.5 235.5t240 171t336.5 65.5t351 -51l-110 -557q-44 -235 -44 -429q0 -24 1 -48h-287q4 98 12 211h-6q-129 -236 -356 -236q-143 0 -232.5 102.5t-89.5 268.5zM381 403q0 -80 31.5 -128t93.5 -48q78 0 151.5 92.5t108.5 274.5l49 246 q-49 8 -88 8q-143 0 -244.5 -142.5t-101.5 -302.5zM477 1438h154q4 -57 35.5 -91t93.5 -34q68 0 108.5 36.5t51.5 88.5h163q-20 -129 -110 -207t-228 -78q-145 0 -213 80q-57 68 -57 167q0 19 2 38zM674 1438l186 321h256l-272 -321h-170z" />
<glyph unicode="&#x1eb0;" horiz-adv-x="1341" d="M-61 0l712 1462h402l172 -1462h-330l-29 381h-422l-170 -381h-335zM537 618h317l-31 316q-4 74 -20 287h-4q-6 -18 -50 -128t-67 -159zM598 2005h272l121 -244h-143zM600 1780h162q-2 -43 30.5 -74t92.5 -31q129 0 153 105h162q-18 -117 -100 -189.5t-231.5 -72.5 t-216.5 72q-55 60 -54 150q-1 19 2 40z" />
<glyph unicode="&#x1eb1;" horiz-adv-x="1202" d="M53 346q0 137 47 267t137.5 235.5t240 171t336.5 65.5t351 -51l-110 -557q-44 -235 -44 -429q0 -24 1 -48h-287q4 98 12 211h-6q-129 -236 -356 -236q-143 0 -232.5 102.5t-89.5 268.5zM381 403q0 -80 31.5 -128t93.5 -48q78 0 151.5 92.5t108.5 274.5l49 246 q-49 8 -86 8q-143 0 -245.5 -142.5t-102.5 -302.5zM463 1759h250l157 -323h-165zM477 1436h154q4 -55 35.5 -89t93.5 -34q66 0 106.5 35.5t53.5 87.5h163q-23 -129 -111.5 -206t-226.5 -77q-145 0 -213 80q-57 68 -57 166q0 18 2 37z" />
<glyph unicode="&#x1eb2;" horiz-adv-x="1341" d="M-63 0l714 1462h402l172 -1462h-330l-29 381h-424l-172 -381h-333zM537 618h317l-31 316q-4 74 -20 287h-4q-6 -18 -50 -128t-67 -159zM600 1778l160 2q0 -43 31.5 -74t91.5 -31q129 0 153 105h164q-18 -117 -101 -188.5t-232.5 -71.5t-215.5 71q-54 59 -54 147 q0 19 3 40zM682 2017q104 125 246 125q84 0 135 -45t51 -117q0 -57 -30.5 -97t-82 -81t-71.5 -76l-131 50q18 37 72.5 83t54.5 80q0 23 -17.5 39.5t-46.5 16.5q-47 0 -100 -56z" />
<glyph unicode="&#x1eb3;" horiz-adv-x="1202" d="M53 346q0 137 47 267t137.5 235.5t240 171t336.5 65.5t351 -51l-110 -557q-44 -235 -44 -429q0 -24 1 -48h-287l6 112q4 75 6 99h-6q-127 -236 -356 -236q-143 0 -232.5 102.5t-89.5 268.5zM381 403q0 -80 31.5 -128t95.5 -48q78 0 150.5 92.5t107.5 274.5l49 246 q-49 8 -86 8q-143 0 -245.5 -142.5t-102.5 -302.5zM477 1444h154q4 -57 35.5 -91t93.5 -34q66 0 106.5 36t53.5 89h163q-23 -131 -111.5 -207t-226.5 -76q-145 0 -213 81q-57 68 -57 166q0 17 2 36zM559 1700q102 123 246 123q86 0 136 -44t50 -116q0 -57 -29.5 -97t-81 -81 t-73.5 -76l-129 49q18 37 71.5 82t53.5 80q0 25 -17.5 41t-46.5 16q-49 0 -96 -57z" />
<glyph unicode="&#x1eb4;" horiz-adv-x="1341" d="M-61 0l712 1462h402l172 -1462h-330l-29 381h-422l-170 -381h-335zM537 618h317l-31 316q-4 74 -20 287h-4q-6 -18 -50 -128t-67 -159zM598 1780h170q0 -45 28.5 -75t86.5 -30q119 0 141 105h174q-18 -117 -100 -189.5t-231.5 -72.5t-216.5 72q-55 60 -55 150q0 19 3 40z M600 1843q20 119 75.5 185.5t133.5 66.5q66 0 135 -43q63 -45 90 -45t42.5 21.5t33.5 74.5h150q-43 -266 -220 -266q-68 0 -137 39q-62 39 -84 39h-2q-45 0 -63 -72h-154z" />
<glyph unicode="&#x1eb5;" horiz-adv-x="1202" d="M53 346q0 137 47 267t137.5 235.5t240 171t336.5 65.5t351 -51l-110 -557q-44 -235 -44 -429q0 -24 1 -48h-287q4 98 12 211h-4q-129 -236 -358 -236q-143 0 -232.5 102.5t-89.5 268.5zM381 403q0 -80 31.5 -128t95.5 -48q78 0 150.5 92.5t107.5 274.5l49 246 q-49 8 -86 8q-143 0 -245.5 -142.5t-102.5 -302.5zM494 1520q18 119 73.5 185.5t132.5 66.5q63 0 138 -43q59 -43 90 -43q47 0 73 94h150q-39 -266 -217 -267q-70 0 -139 39q-62 39 -84 39h-2q-41 0 -64 -71h-151zM500 1442h157q4 -123 103 -123q111 0 141 123h162 q-20 -131 -102 -207t-216 -76q-143 0 -202 77q-47 60 -47 152q0 26 4 54z" />
<glyph unicode="&#x1eb6;" horiz-adv-x="1341" d="M-61 0l712 1462h402l172 -1462h-330l-29 381h-422l-170 -381h-335zM371 -324q0 63 45 106.5t106.5 43.5t103.5 -43t42 -107q0 -61 -42 -104t-104.5 -43t-106.5 44t-44 103zM537 618h317l-31 316q-4 74 -20 287h-4q-6 -18 -50 -128t-67 -159zM604 1835h172q0 -47 29 -76.5 t88 -29.5q119 0 143 106h178q-23 -121 -105.5 -193.5t-234 -72.5t-218.5 73q-55 61 -54 152q-1 20 2 41z" />
<glyph unicode="&#x1eb7;" horiz-adv-x="1202" d="M53 346q0 137 47 267t137.5 235.5t240 171t336.5 65.5t351 -51l-110 -557q-44 -235 -44 -429q0 -24 1 -48h-287l6 112q4 75 6 99h-4q-129 -236 -358 -236q-143 0 -232.5 102.5t-89.5 268.5zM319 -328q0 68 44.5 111t109.5 43q63 0 105.5 -43t42.5 -111q0 -63 -42 -107 t-104 -44h-4q-66 0 -109 44t-43 107zM381 403q0 -80 31.5 -128t95.5 -48q78 0 151.5 92.5t106.5 274.5l49 246q-49 8 -86 8q-143 0 -245.5 -142.5t-102.5 -302.5zM516 1497h160q8 -121 100 -121q113 0 142 121h163q-23 -131 -102.5 -205.5t-214.5 -74.5q-143 0 -203 76 q-48 62 -48 157q0 22 3 47z" />
<glyph unicode="&#x1eb8;" horiz-adv-x="1122" d="M41 0l278 1462h867l-53 -266h-551l-62 -313h524l-53 -262h-518l-67 -355h583l-49 -266h-899zM305 -324q0 63 45 106.5t109 43.5q59 0 102 -43t43 -107q0 -61 -43 -104t-105.5 -43t-106.5 44t-44 103z" />
<glyph unicode="&#x1eb9;" horiz-adv-x="1087" d="M61 426q0 164 73 313.5t217.5 247.5t328.5 98q162 0 265.5 -87t103.5 -232q0 -357 -634 -357q-28 0 -57 1q4 -68 35 -109q63 -82 205 -82q158 0 297 68l20 -226q-166 -86 -397 -86q-223 0 -340 119t-117 332zM297 -328q0 68 45 111t108.5 43t106.5 -43t43 -111 q0 -63 -43 -107t-107.5 -44t-108.5 44t-44 107zM389 639h25q170 0 253 27q89 29 89 102q0 39 -32 64.5t-83 25.5q-100 0 -167 -67.5t-85 -151.5z" />
<glyph unicode="&#x1eba;" horiz-adv-x="1122" d="M41 0l278 1462h867l-53 -266h-551l-62 -313h524l-53 -262h-518l-67 -355h583l-49 -266h-899zM555 1821q111 158 266 157q88 0 143.5 -49t55.5 -123q0 -59 -33 -102t-87 -91t-79 -87l-143 53q16 29 71.5 83t55.5 97q0 57 -57 58q-47 0 -101 -64z" />
<glyph unicode="&#x1ebb;" horiz-adv-x="1087" d="M61 426q0 164 73 313.5t217.5 247.5t328.5 98q162 0 265.5 -87t103.5 -232q0 -357 -634 -357q-28 0 -57 1q4 -68 35 -109q63 -82 205 -82q158 0 297 68l20 -226q-166 -86 -397 -86q-223 0 -340 119t-117 332zM389 639h25q170 0 253 27q89 29 89 102q0 39 -32 64.5 t-83 25.5q-100 0 -167 -67.5t-85 -151.5zM465 1458q109 170 274 170q90 0 144.5 -51t54.5 -127q0 -68 -35 -119t-88 -99t-76 -85l-155 43q18 43 82.5 106.5t64.5 108.5q0 29 -16.5 46t-40.5 17q-55 0 -109 -79z" />
<glyph unicode="&#x1ebc;" horiz-adv-x="1122" d="M41 0l278 1462h867l-53 -266h-551l-62 -313h524l-53 -262h-518l-67 -355h583l-49 -266h-899zM467 1552q18 135 76.5 204t138.5 69q70 0 137 -43q61 -41 88 -41q47 0 74 94h149q-43 -268 -217 -268q-74 0 -139 41q-61 41 -86 41q-45 0 -67 -97h-154z" />
<glyph unicode="&#x1ebd;" horiz-adv-x="1087" d="M61 426q0 164 73 313.5t217.5 247.5t328.5 98q162 0 265.5 -87t103.5 -232q0 -357 -634 -357q-28 0 -57 1q4 -68 35 -109q63 -82 205 -82q158 0 297 68l20 -226q-166 -86 -397 -86q-223 0 -340 119t-117 332zM389 639h25q170 0 253 27q89 29 89 102q0 39 -32 64.5 t-83 25.5q-100 0 -167 -67.5t-85 -151.5zM389 1210q16 131 70.5 203t138.5 72q59 0 133 -43q63 -41 86 -41q25 0 39 19.5t29 74.5h151q-39 -266 -213 -266q-76 0 -139 41q-45 39 -82 39q-43 0 -61 -99h-152z" />
<glyph unicode="&#x1ebe;" horiz-adv-x="1122" d="M41 0l278 1462h867l-53 -266h-551l-62 -313h522l-51 -262h-518l-67 -355h583l-49 -266h-899zM444 1542l275 266h223l143 -266h-213l-57 135h-6l-129 -135h-236zM1028 1739l193 243h258l-293 -243h-158z" />
<glyph unicode="&#x1ebf;" horiz-adv-x="1087" d="M61 426q0 164 73 313.5t217.5 247.5t328.5 98q162 0 265.5 -87t103.5 -232q0 -357 -634 -357q-28 0 -57 1q4 -68 35 -109q63 -82 205 -82q158 0 297 68l20 -226q-166 -86 -397 -86q-223 0 -340 119t-117 332zM356 1194l248 330h230l137 -330h-203l-68 188h-4l-123 -188 h-217zM389 639h25q170 0 253 27q89 29 89 102q0 39 -32 64.5t-83 25.5q-100 0 -167 -67.5t-85 -151.5zM930 1407l196 319h250l-284 -319h-162z" />
<glyph unicode="&#x1ec0;" horiz-adv-x="1122" d="M41 0l278 1462h867l-53 -266h-551l-62 -313h524l-53 -262h-518l-67 -355h583l-49 -266h-899zM438 1542l275 266h223l143 -266h-213l-59 135h-4l-129 -135h-236zM905 1956h256l125 -246h-160z" />
<glyph unicode="&#x1ec1;" horiz-adv-x="1087" d="M61 426q0 164 73 313.5t217.5 247.5t328.5 98q162 0 265.5 -87t103.5 -232q0 -357 -634 -357q-28 0 -57 1q4 -68 35 -109q63 -82 205 -82q158 0 297 68l20 -226q-166 -86 -397 -86q-223 0 -340 119t-117 332zM354 1194l250 330h230l137 -330h-203l-68 188h-4l-125 -188 h-217zM389 639h25q170 0 253 27q89 29 89 102q0 39 -32 64.5t-83 25.5q-100 0 -167 -67.5t-85 -151.5zM805 1731h229l154 -322h-148z" />
<glyph unicode="&#x1ec2;" horiz-adv-x="1122" d="M41 0l278 1462h865l-54 -266h-548l-62 -313h522l-51 -262h-518l-70 -355h584l-49 -266h-897zM449 1542l276 266h223l142 -266h-211l-60 135h-4l-129 -135h-237zM963 1929q98 127 243 127q84 0 136.5 -46t52.5 -116q0 -55 -32 -95t-82 -83t-73 -78l-129 52q16 39 70.5 83 t54.5 78q0 25 -18.5 42.5t-42.5 17.5q-47 0 -101 -60z" />
<glyph unicode="&#x1ec3;" horiz-adv-x="1087" d="M61 426q0 164 73 313.5t217.5 247.5t328.5 98q162 0 265.5 -87t103.5 -232q0 -357 -634 -357q-28 0 -57 1q4 -68 35 -109q63 -82 205 -82q158 0 297 68l20 -226q-166 -86 -397 -86q-223 0 -340 119t-117 332zM354 1194l250 330h230l137 -330h-203l-68 188h-4l-125 -188 h-217zM389 639h25q170 0 253 27q89 29 89 102q0 39 -32 64.5t-83 25.5q-100 0 -167 -67.5t-85 -151.5zM838 1663q104 125 245 125q84 0 135.5 -45t51.5 -117q0 -57 -32 -97t-81 -81t-72 -76l-131 49q18 37 72.5 83t54.5 81q0 23 -18.5 39t-44.5 16q-47 0 -100 -55z" />
<glyph unicode="&#x1ec4;" horiz-adv-x="1122" d="M43 0l276 1462h867l-53 -266h-551l-60 -313h522l-53 -262h-518l-67 -355h583l-51 -266h-895zM440 1542l275 266h223l141 -266h-211l-61 135h-4l-127 -135h-236zM530 1843q8 113 63.5 177.5t139.5 64.5q61 0 133 -45q66 -37 91.5 -37t41 18.5t23.5 69.5h149 q-20 -244 -204 -244q-51 0 -142 47q-57 31 -80 31q-51 0 -63 -82h-152z" />
<glyph unicode="&#x1ec5;" horiz-adv-x="1087" d="M61 426q0 164 73 313.5t217.5 247.5t328.5 98q162 0 265.5 -87t103.5 -232q0 -357 -634 -357q-28 0 -57 1q4 -68 35 -109q63 -82 205 -82q158 0 297 68l20 -226q-166 -86 -397 -86q-223 0 -340 119t-117 332zM375 1194l233 285h213l152 -285h-197l-71 147h-5l-102 -147 h-223zM389 639h25q170 0 253 27q89 29 89 102q0 39 -32 64.5t-83 25.5q-100 0 -167 -67.5t-85 -151.5zM420 1534q10 115 65.5 177.5t139.5 62.5q59 0 133 -41q66 -37 91 -37t39.5 17.5t24.5 68.5h150q-20 -242 -205 -242q-47 0 -141 45q-57 33 -80 33q-49 0 -64 -84h-153z " />
<glyph unicode="&#x1ec6;" horiz-adv-x="1122" d="M41 0l278 1462h867l-53 -266h-551l-62 -313h524l-53 -262h-518l-67 -355h583l-49 -266h-899zM305 -324q0 63 45 106.5t109 43.5q59 0 102 -43t43 -107q0 -61 -43 -104t-105.5 -43t-106.5 44t-44 103zM418 1542l268 273h236l174 -273h-219l-89 131h-4l-127 -131h-239z" />
<glyph unicode="&#x1ec7;" horiz-adv-x="1087" d="M61 426q0 164 73 313.5t217.5 247.5t328.5 98q162 0 265.5 -87t103.5 -232q0 -357 -634 -357q-28 0 -57 1q4 -68 35 -109q63 -82 205 -82q158 0 297 68l20 -226q-166 -86 -397 -86q-223 0 -340 119t-117 332zM297 -328q0 68 45 111t108.5 43t106.5 -43t43 -111 q0 -63 -43 -107t-107.5 -44t-108.5 44t-44 107zM354 1190l262 330h215l162 -330h-200l-88 172h-5l-125 -172h-221zM389 639h25q170 0 253 27q89 29 89 102q0 39 -32 64.5t-83 25.5q-100 0 -167 -67.5t-85 -151.5z" />
<glyph unicode="&#x1ec8;" horiz-adv-x="593" d="M35 0l278 1462h312l-277 -1462h-313zM281 1821q111 158 264 157q90 0 146.5 -49t56.5 -123q0 -59 -33 -102t-88.5 -91t-81.5 -87l-142 53q18 33 73.5 87t55.5 93q0 25 -16 41.5t-43 16.5q-43 0 -102 -64z" />
<glyph unicode="&#x1ec9;" horiz-adv-x="573" d="M29 0l200 1061h314l-203 -1061h-311zM205 1458q109 170 274 170q90 0 144.5 -51t54.5 -127q0 -68 -36 -119t-89 -99t-74 -85l-155 43q16 43 80.5 106.5t64.5 108.5q0 29 -16.5 46t-40.5 17q-53 0 -109 -79z" />
<glyph unicode="&#x1eca;" horiz-adv-x="593" d="M-8 -324q0 63 44 106.5t107 43.5q61 0 103.5 -43t42.5 -107q0 -61 -42 -104t-105.5 -43t-106.5 44t-43 103zM35 0l278 1462h312l-277 -1462h-313z" />
<glyph unicode="&#x1ecb;" horiz-adv-x="573" d="M10 -328q0 68 45 111t111 43q61 0 104 -43t43 -111q0 -63 -43 -107t-107.5 -44t-108.5 44t-44 107zM29 0l200 1061h314l-203 -1061h-311zM274 1346q0 78 53.5 128t127.5 50q68 0 112.5 -42t44.5 -112q0 -80 -53 -128t-131 -48h-4q-66 0 -108 42t-42 110z" />
<glyph unicode="&#x1ecc;" horiz-adv-x="1529" d="M104 586q0 201 71 386t198 306q219 209 534 209q283 0 436.5 -169t153.5 -441q0 -201 -67.5 -384.5t-192.5 -306.5q-217 -211 -541 -211q-274 0 -433 173.5t-159 437.5zM434 -324q0 63 44 106.5t108 43.5q61 0 103 -43t42 -107q0 -61 -42 -104t-105.5 -43t-106.5 44 t-43 103zM436 598q0 -164 77 -262t230 -98q137 0 244 104q84 84 131 236.5t47 289.5q0 156 -68.5 257.5t-226.5 101.5q-145 0 -252 -111q-84 -82 -133 -231.5t-49 -286.5z" />
<glyph unicode="&#x1ecd;" horiz-adv-x="1212" d="M66 418q0 279 178 474t454 195q207 0 329 -124.5t122 -313.5q0 -291 -179 -482.5t-456 -191.5q-201 0 -324.5 122t-123.5 321zM319 -328q0 68 44.5 111t109.5 43q63 0 105.5 -43t42.5 -111q0 -63 -42 -107t-107.5 -44t-109 44t-43.5 107zM389 422q0 -96 44 -151.5 t126 -55.5q119 0 192.5 140.5t73.5 291.5q0 82 -41 141.5t-126 59.5t-149.5 -74t-92 -169t-27.5 -183z" />
<glyph unicode="&#x1ece;" horiz-adv-x="1529" d="M104 586q0 201 71 386t198 306q219 209 534 209q283 0 436.5 -169t153.5 -441q0 -201 -67.5 -384.5t-192.5 -306.5q-217 -211 -541 -211q-274 0 -433 173.5t-159 437.5zM436 598q0 -164 77 -262t230 -98q137 0 244 104q84 84 131 236.5t47 289.5q0 156 -68.5 257.5 t-226.5 101.5q-145 0 -252 -111q-84 -82 -133 -231.5t-49 -286.5zM737 1821q111 158 267 157q88 0 143 -49t55 -123q0 -59 -32.5 -102t-87 -91t-78.5 -87l-142 51q16 35 71.5 89t55.5 93q0 25 -17.5 41.5t-41.5 16.5q-45 0 -101 -66z" />
<glyph unicode="&#x1ecf;" horiz-adv-x="1212" d="M66 418q0 279 178 474t454 195q207 0 329 -124.5t122 -313.5q0 -291 -179 -482.5t-456 -191.5q-201 0 -324.5 122t-123.5 321zM389 422q0 -96 44 -151.5t126 -55.5q119 0 192.5 140.5t73.5 291.5q0 82 -41 141.5t-126 59.5t-149.5 -74t-92 -169t-27.5 -183zM528 1460 q106 170 273 170q90 0 144 -51t54 -127q0 -68 -35.5 -119t-89 -99t-73.5 -85l-156 43q16 43 81 106.5t65 108.5q0 29 -16.5 46t-41.5 17q-55 0 -106 -79z" />
<glyph unicode="&#x1ed0;" horiz-adv-x="1529" d="M104 586q0 201 71 386t198 306q219 209 534 209q283 0 436.5 -169t153.5 -441q0 -203 -67.5 -385.5t-194.5 -305.5q-215 -211 -539 -211q-274 0 -433 173.5t-159 437.5zM436 598q0 -164 77 -262t230 -98q137 0 244 104q84 84 131 236.5t47 289.5q0 156 -68.5 257.5 t-228.5 101.5q-143 0 -250 -111q-84 -82 -133 -231.5t-49 -286.5zM602 1542l272 264h224l143 -264h-213l-57 135h-4l-131 -135h-234zM1184 1737l192 245h256l-293 -245h-155z" />
<glyph unicode="&#x1ed1;" horiz-adv-x="1212" d="M66 418q0 279 178 474t454 195q207 0 329 -124.5t122 -313.5q0 -291 -179 -482.5t-456 -191.5q-201 0 -324.5 122t-123.5 321zM389 422q0 -96 44 -151.5t126 -55.5q119 0 192.5 140.5t73.5 291.5q0 82 -41 141.5t-126 59.5t-149.5 -74t-92 -169t-27.5 -183zM410 1194 l249 330h230l135 -330h-201l-65 188h-6l-125 -188h-217zM983 1407l199 319h250l-285 -319h-164z" />
<glyph unicode="&#x1ed2;" horiz-adv-x="1529" d="M104 586q0 203 72 387t199 305q215 209 532 209q283 0 438 -169q153 -167 152 -434q0 -208 -67.5 -391.5t-192.5 -306.5q-217 -211 -541 -211q-274 0 -433 173.5t-159 437.5zM436 598q0 -164 77 -262t230 -98q137 0 244 104q84 84 131 236.5t47 289.5q0 156 -68.5 257.5 t-226.5 101.5q-141 0 -252 -111q-84 -82 -133 -231.5t-49 -286.5zM600 1542l272 264h224l143 -264h-213l-57 135h-4l-131 -135h-234zM1065 1956h258l123 -246h-158z" />
<glyph unicode="&#x1ed3;" horiz-adv-x="1212" d="M66 418q0 279 178 474t454 195q207 0 329 -124.5t122 -313.5q0 -291 -179 -482.5t-456 -191.5q-201 0 -324.5 122t-123.5 321zM389 422q0 -96 44 -151.5t126 -55.5q119 0 192.5 140.5t73.5 291.5q0 82 -41 141.5t-126 59.5t-149.5 -74t-92 -169t-27.5 -183zM410 1194 l249 330h230l135 -330h-201l-65 188h-6l-125 -188h-217zM860 1731h227l154 -322h-145z" />
<glyph unicode="&#x1ed4;" horiz-adv-x="1529" d="M104 586q0 201 71 386t198 306q219 209 534 209q283 0 436.5 -169t153.5 -441q0 -201 -67.5 -384.5t-192.5 -306.5q-217 -211 -541 -211q-274 0 -433 173.5t-159 437.5zM436 598q0 -164 77 -262t230 -98q137 0 244 104q84 84 131 236.5t47 289.5q0 156 -68.5 257.5 t-226.5 101.5q-145 0 -252 -111q-84 -82 -133 -231.5t-49 -286.5zM600 1542l272 266h224l143 -266h-213l-57 135h-4l-131 -135h-234zM1112 1931q96 125 242 125q86 0 137 -45t51 -117q0 -43 -21.5 -79.5t-48 -58t-61.5 -54.5t-55 -64l-129 54q18 37 71.5 81t53.5 78 q0 27 -17.5 43.5t-42.5 16.5q-47 0 -100 -60z" />
<glyph unicode="&#x1ed5;" horiz-adv-x="1212" d="M66 418q0 279 178 474t454 195q207 0 329 -124.5t122 -313.5q0 -291 -179 -482.5t-456 -191.5q-201 0 -324.5 122t-123.5 321zM389 422q0 -96 44 -151.5t126 -55.5q119 0 192.5 140.5t73.5 291.5q0 82 -41 141.5t-126 59.5t-149.5 -74t-92 -169t-27.5 -183zM408 1194 l247 330h230l135 -330h-201l-65 188h-4l-127 -188h-215zM891 1663q102 125 242 125q86 0 138 -45t52 -117q0 -57 -31.5 -97t-83 -81t-73.5 -76l-127 49q16 37 70.5 83t54.5 81q0 23 -18.5 39t-43.5 16q-49 0 -100 -55z" />
<glyph unicode="&#x1ed6;" horiz-adv-x="1529" d="M104 586q0 201 71 386t198 306q219 209 534 209q283 0 436.5 -169t153.5 -441q0 -201 -67.5 -384.5t-192.5 -306.5q-217 -211 -541 -211q-274 0 -433 173.5t-159 437.5zM436 598q0 -164 77 -262t230 -98q137 0 244 104q84 84 131 236.5t47 289.5q0 156 -68.5 257.5 t-226.5 101.5q-145 0 -252 -111q-84 -82 -133 -231.5t-49 -286.5zM600 1542l272 266h224l143 -266h-213l-57 135h-4l-131 -135h-234zM688 1845q10 113 65.5 176.5t139.5 63.5q55 0 133 -43q61 -37 90 -37q27 0 41 17.5t25 68.5h149q-23 -244 -205 -244q-53 0 -141 47 q-55 31 -82 31q-45 0 -63 -80h-152z" />
<glyph unicode="&#x1ed7;" horiz-adv-x="1212" d="M66 418q0 279 178 474t454 195q207 0 329 -124.5t122 -313.5q0 -291 -179 -482.5t-456 -191.5q-201 0 -324.5 122t-123.5 321zM389 422q0 -96 44 -151.5t126 -55.5q119 0 192.5 140.5t73.5 291.5q0 82 -41 141.5t-126 59.5t-149.5 -74t-92 -169t-27.5 -183zM434 1194 l230 285h210l154 -285h-197l-71 147h-4l-105 -147h-217zM475 1534q10 115 66.5 177.5t138.5 62.5q55 0 135 -41q59 -37 88 -37q27 0 42.5 18.5t23.5 67.5h149q-23 -242 -205 -242q-49 0 -141 45q-55 33 -82 33q-45 0 -63 -84h-152z" />
<glyph unicode="&#x1ed8;" horiz-adv-x="1529" d="M104 586q0 201 71 386t198 306q219 209 534 209q283 0 436.5 -169t153.5 -441q0 -201 -67.5 -384.5t-192.5 -306.5q-217 -211 -541 -211q-274 0 -433 173.5t-159 437.5zM430 -324q0 63 44 106.5t108 43.5q61 0 103 -43t42 -107q0 -61 -42 -104t-105.5 -43t-106.5 44 t-43 103zM436 598q0 -164 77 -262t230 -98q137 0 244 104q84 84 131 236.5t47 289.5q0 156 -68.5 257.5t-226.5 101.5q-145 0 -252 -111q-84 -82 -133 -231.5t-49 -286.5zM588 1542l270 273h236l174 -273h-219l-88 131h-7l-125 -131h-241z" />
<glyph unicode="&#x1ed9;" horiz-adv-x="1212" d="M66 418q0 279 178 474t454 195q207 0 329 -124.5t122 -313.5q0 -291 -179 -482.5t-456 -191.5q-201 0 -324.5 122t-123.5 321zM317 -328q0 68 44.5 111t109.5 43q63 0 105 -43t42 -111q0 -63 -41.5 -107t-107.5 -44t-109 44t-43 107zM389 422q0 -96 44 -151.5t126 -55.5 q119 0 192.5 140.5t73.5 291.5q0 82 -41 141.5t-126 59.5t-149.5 -74t-92 -169t-27.5 -183zM412 1190l264 330h215l162 -330h-201l-88 172h-4l-125 -172h-223z" />
<glyph unicode="&#x1eda;" horiz-adv-x="1529" d="M104 586q0 201 71 386t198 306q219 209 534 209q152 0 271 -51q10 -4 52 -27t70.5 -32t53.5 -9q94 0 94 113q0 68 -31 133l238 39q35 -70 35 -176q0 -125 -71 -202t-192 -81q70 -125 70 -317q0 -203 -66.5 -387.5t-193.5 -305.5q-219 -209 -541 -209q-274 0 -433 173.5 t-159 437.5zM436 598q0 -164 77 -262t230 -98q137 0 244 104q84 84 131 236.5t47 289.5q0 156 -68.5 257.5t-226.5 101.5q-141 0 -252 -111q-84 -82 -133 -231.5t-49 -286.5zM729 1554l205 275h346l-287 -275h-264z" />
<glyph unicode="&#x1edb;" horiz-adv-x="1212" d="M66 418q0 279 178 474t454 195q100 0 193 -34q14 -6 47 -22.5t55.5 -24t44.5 -7.5q90 0 90 103q0 55 -26 127l231 39q23 -68 23 -154q0 -125 -64.5 -197.5t-179.5 -82.5q39 -82 39 -185q0 -291 -180 -482.5t-457 -191.5q-201 0 -324.5 122t-123.5 321zM389 424 q0 -96 44 -152.5t124 -56.5q121 0 195.5 140.5t74.5 291.5q0 82 -41 141.5t-127 59.5q-123 0 -196.5 -139.5t-73.5 -284.5zM520 1190l207 330h307l-282 -330h-232z" />
<glyph unicode="&#x1edc;" horiz-adv-x="1529" d="M104 586q0 201 71 385t198 307q219 209 534 209q154 0 271 -53q12 -8 42 -22l48 -21q18 -8 42.5 -15.5t43.5 -7.5q94 0 94 111q0 68 -31 135l238 39q35 -74 35 -178q0 -125 -71 -202t-192 -81q70 -123 70 -318q0 -201 -66.5 -385t-193.5 -305q-219 -209 -541 -209 q-274 0 -433 173.5t-159 437.5zM436 598q0 -164 77 -262t230 -98q137 0 244 104q84 84 131 235.5t47 288.5q0 156 -68.5 257.5t-226.5 101.5q-139 0 -252 -109q-84 -84 -133 -232.5t-49 -285.5zM590 1829h344l166 -273h-260z" />
<glyph unicode="&#x1edd;" horiz-adv-x="1212" d="M66 418q0 279 178 474t454 195q100 0 193 -34q14 -6 47 -22.5t55.5 -24t44.5 -7.5q90 0 90 103q0 55 -26 127l231 39q23 -68 23 -154q0 -125 -64.5 -197.5t-179.5 -82.5q39 -82 39 -185q0 -291 -180 -482.5t-457 -191.5q-201 0 -324.5 122t-123.5 321zM389 424 q0 -96 44 -152.5t124 -56.5q121 0 195.5 140.5t74.5 291.5q0 82 -41 141.5t-127 59.5q-123 0 -196.5 -139.5t-73.5 -284.5zM418 1520h301l162 -330h-224z" />
<glyph unicode="&#x1ede;" horiz-adv-x="1529" d="M104 586q0 201 71 386t198 306q219 209 534 209q154 0 271 -53q14 -8 53 -28t68.5 -29t54.5 -9q94 0 94 111q0 70 -31 135l238 39q35 -70 35 -178q0 -125 -71 -202t-192 -81q70 -124 70 -318q0 -201 -66.5 -385t-193.5 -305q-219 -209 -541 -209q-274 0 -433 173.5 t-159 437.5zM436 598q0 -164 77 -262t230 -98q137 0 244 104q84 84 131 235.5t47 288.5q0 158 -68.5 259.5t-226.5 101.5q-137 0 -252 -111q-84 -84 -133 -232.5t-49 -285.5zM737 1835q111 156 267 156q88 0 143 -49.5t55 -122.5q0 -45 -21.5 -84t-50.5 -65l-67 -62 q-39 -37 -59 -68l-144 49q18 33 73.5 88.5t55.5 94.5q0 27 -17.5 43t-41.5 16q-49 0 -101 -66z" />
<glyph unicode="&#x1edf;" horiz-adv-x="1212" d="M66 418q0 279 178 474t454 195q100 0 193 -34q14 -6 47 -22.5t55.5 -24t44.5 -7.5q90 0 90 103q0 55 -26 127l231 39q23 -68 23 -154q0 -125 -64.5 -197.5t-179.5 -82.5q39 -82 39 -185q0 -291 -180 -482.5t-457 -191.5q-201 0 -324.5 122t-123.5 321zM389 424 q0 -96 44 -152.5t124 -56.5q121 0 195.5 140.5t74.5 291.5q0 82 -41 141.5t-127 59.5q-123 0 -196.5 -139.5t-73.5 -284.5zM479 1460q109 170 277 170q90 0 143 -51t53 -127q0 -68 -34.5 -119t-88 -99t-73.5 -85l-156 43q16 43 82 105.5t66 109.5q0 29 -16.5 46t-43.5 17 q-53 0 -108 -79z" />
<glyph unicode="&#x1ee0;" horiz-adv-x="1529" d="M104 586q0 201 71 386t198 306q219 209 534 209q152 0 271 -51q12 -8 42 -22l48 -21q18 -8 42.5 -15.5t43.5 -7.5q94 0 94 111q0 66 -31 135l238 39q35 -74 35 -178q0 -125 -71 -202t-192 -81q70 -125 70 -317q0 -203 -66.5 -387.5t-193.5 -305.5q-219 -209 -541 -209 q-274 0 -433 173.5t-159 437.5zM436 598q0 -164 77 -262t230 -98q137 0 244 104q84 84 131 236.5t47 289.5q0 156 -68.5 257.5t-226.5 101.5q-141 0 -252 -111q-84 -82 -133 -231.5t-49 -286.5zM643 1567q18 133 77.5 202.5t137.5 69.5q70 0 135 -43q61 -43 90 -43 q47 0 74 94h150q-43 -266 -217 -266q-74 0 -140 41q-61 39 -86 39q-45 0 -67 -94h-154z" />
<glyph unicode="&#x1ee1;" horiz-adv-x="1212" d="M66 418q0 279 178 474t454 195q104 0 193 -34q14 -6 47 -22.5t55.5 -24t44.5 -7.5q90 0 90 103q0 55 -26 127l229 39q25 -72 25 -156q0 -125 -64.5 -196.5t-179.5 -81.5q37 -76 37 -185q0 -293 -179 -483.5t-456 -190.5q-201 0 -324.5 122t-123.5 321zM389 424 q0 -96 44 -152.5t124 -56.5q121 0 195.5 140.5t74.5 291.5q0 82 -41 141.5t-127 59.5q-123 0 -196.5 -139.5t-73.5 -284.5zM401 1214q18 129 73 201q53 70 134 70h4q59 0 133 -43q61 -41 84 -41q27 0 40.5 19.5t29.5 74.5h150q-39 -266 -211 -266q-80 0 -140 43 q-51 37 -82 37q-43 0 -63 -99z" />
<glyph unicode="&#x1ee2;" horiz-adv-x="1529" d="M104 586q0 201 71 386t198 306q219 209 534 209q154 0 271 -53q14 -8 53 -28t68.5 -29t54.5 -9q94 0 94 111q0 70 -31 135l238 39q35 -70 35 -178q0 -125 -71 -202t-192 -81q70 -124 70 -318q0 -201 -66.5 -385t-193.5 -305q-219 -209 -541 -209q-274 0 -433 173.5 t-159 437.5zM432 -324q0 63 44 106.5t108 43.5q61 0 103 -43t42 -107q0 -59 -42 -103t-101 -44h-4q-63 0 -106.5 44t-43.5 103zM436 598q0 -164 77 -262t230 -98q137 0 244 104q84 84 131 235.5t47 288.5q0 158 -68.5 259.5t-226.5 101.5q-137 0 -252 -111 q-84 -84 -133 -232.5t-49 -285.5z" />
<glyph unicode="&#x1ee3;" horiz-adv-x="1212" d="M66 418q0 279 178 474t454 195q100 0 193 -34q14 -6 47 -22.5t55.5 -24t44.5 -7.5q90 0 90 103q0 55 -26 127l231 39q23 -68 23 -154q0 -125 -64.5 -197.5t-179.5 -82.5q39 -82 39 -185q0 -291 -180 -482.5t-457 -191.5q-201 0 -324.5 122t-123.5 321zM317 -328 q0 68 44.5 111t109.5 43q63 0 105 -43t42 -111q0 -63 -41.5 -107t-107.5 -44t-109 44t-43 107zM389 424q0 -96 44 -152.5t124 -56.5q121 0 195.5 140.5t74.5 291.5q0 82 -41 141.5t-127 59.5q-123 0 -196.5 -139.5t-73.5 -284.5z" />
<glyph unicode="&#x1ee4;" horiz-adv-x="1421" d="M137 442q0 90 21 205l155 815h312l-158 -841q-18 -80 -18 -172.5t55 -150.5t158 -58q127 0 205.5 90t117.5 288l162 844h311l-158 -831q-66 -338 -224 -497t-453 -159h-8q-224 0 -350 118q-128 120 -128 349zM391 -324q0 63 44 106.5t108 43.5q61 0 103 -43t42 -107 q0 -61 -42 -104t-105.5 -43t-106.5 44t-43 103z" />
<glyph unicode="&#x1ee5;" horiz-adv-x="1214" d="M88 274q0 88 23 195l112 592h314l-109 -567q-16 -88 -16 -142q0 -123 106 -123q84 0 155.5 92.5t100.5 247.5l94 492h312l-136 -715q-33 -166 -57 -346h-274l18 172l-4 2q-155 -199 -365 -199q-131 0 -202.5 74.5t-71.5 224.5zM317 -328q0 68 44.5 111t109.5 43 q63 0 105 -43t42 -111q0 -63 -41.5 -107t-107.5 -44t-109 44t-43 107z" />
<glyph unicode="&#x1ee6;" horiz-adv-x="1421" d="M137 442q0 90 21 205l155 815h312l-158 -841q-18 -80 -18 -172.5t55 -150.5t158 -58q127 0 205.5 90t117.5 288l162 844h311l-158 -831q-66 -338 -224 -497t-453 -159h-8q-224 0 -350 118q-128 120 -128 349zM666 1821q111 158 266 157q88 0 144.5 -49t56.5 -123 q0 -59 -32 -102t-88.5 -91t-80.5 -87l-141 53q16 33 71.5 87t55.5 93q0 25 -16.5 41.5t-41.5 16.5q-43 0 -102 -64z" />
<glyph unicode="&#x1ee7;" horiz-adv-x="1214" d="M88 274q0 88 23 195l112 592h314l-109 -567q-16 -88 -16 -142q0 -123 106 -123q84 0 155.5 92.5t100.5 247.5l94 492h312l-136 -715q-33 -166 -57 -346h-274l18 172l-4 2q-155 -199 -365 -199q-131 0 -202.5 74.5t-71.5 224.5zM522 1458q109 170 275 170q92 0 144 -51 t52 -127q0 -68 -33.5 -119t-87 -99t-73.5 -85l-156 43q16 43 80.5 106.5t64.5 108.5q0 29 -16 46t-41 17q-53 0 -108 -79z" />
<glyph unicode="&#x1ee8;" horiz-adv-x="1458" d="M137 442q0 88 21 207l155 813h312l-158 -839q-18 -82 -18 -174q2 -92 58 -151q57 -58 155 -58q127 0 205.5 90t117.5 288l162 844h227q139 0 139 123q0 55 -22 113l229 39q18 -68 19 -125q0 -141 -81 -224t-233 -90l-125 -667q-66 -338 -225.5 -497t-451.5 -159h-8 q-224 0 -350 118q-128 120 -128 349zM719 1542l203 273h348l-287 -273h-264z" />
<glyph unicode="&#x1ee9;" horiz-adv-x="1263" d="M88 274q0 88 23 195l112 592h314l-109 -567q-16 -88 -16 -142q0 -123 104 -123q84 0 158 92.5t100 247.5l94 492h228q137 0 137 125q0 55 -25 112l230 39q18 -61 18 -131q0 -133 -79 -218t-228 -89l-105 -553q-41 -229 -57 -346h-274l18 174h-4q-154 -199 -367 -199 q-131 0 -201.5 74.5t-70.5 224.5zM578 1190l204 330h308l-283 -330h-229z" />
<glyph unicode="&#x1eea;" horiz-adv-x="1458" d="M137 442q0 88 21 207l155 813h312l-158 -839q-18 -82 -18 -174q2 -92 58 -151q57 -58 155 -58q127 0 205.5 90t117.5 288l162 844h227q139 0 139 125q0 55 -22 113l229 39q18 -70 19 -127q0 -141 -81 -224t-233 -90l-125 -667q-66 -338 -225.5 -497t-451.5 -159h-8 q-224 0 -350 118q-128 120 -128 349zM586 1817h344l166 -271h-260z" />
<glyph unicode="&#x1eeb;" horiz-adv-x="1263" d="M88 274q0 88 23 195l112 592h314l-109 -567q-16 -88 -16 -142q0 -123 104 -123q84 0 158 92.5t100 247.5l94 492h228q137 0 137 125q0 55 -25 112l230 39q18 -61 18 -131q0 -133 -79 -218t-228 -89l-105 -553q-41 -229 -57 -346h-274l18 174h-4q-154 -199 -367 -199 q-131 0 -201.5 74.5t-70.5 224.5zM457 1520h301l162 -330h-224z" />
<glyph unicode="&#x1eec;" horiz-adv-x="1458" d="M137 442q0 88 21 207l155 813h312l-158 -839q-18 -82 -18 -174q2 -92 58 -151q57 -58 155 -58q127 0 205.5 90t117.5 288l162 844h227q139 0 139 123q0 55 -22 113l229 39q18 -68 19 -125q0 -141 -81 -224t-233 -90l-125 -667q-66 -338 -225.5 -497t-451.5 -159h-8 q-224 0 -350 118q-128 120 -128 349zM688 1821q106 158 262 157q90 0 146.5 -49t56.5 -123q0 -59 -33 -102t-88 -91t-82 -87l-141 53q18 29 73.5 83t55.5 97q0 25 -16.5 41.5t-42.5 16.5q-45 0 -99 -64z" />
<glyph unicode="&#x1eed;" horiz-adv-x="1263" d="M88 274q0 88 23 195l112 592h314l-109 -567q-16 -88 -16 -142q0 -123 104 -123q84 0 158 92.5t100 247.5l94 492h228q137 0 137 123q0 55 -25 112l230 39q18 -63 18 -131q0 -131 -79 -216t-228 -89l-105 -553q-41 -229 -57 -346h-274l18 174h-4q-154 -199 -367 -199 q-131 0 -201.5 74.5t-70.5 224.5zM518 1458q109 170 279 170q88 0 142 -51t54 -127q0 -68 -35.5 -119t-88 -99t-72.5 -85l-156 43q16 43 80.5 106.5t64.5 108.5q0 29 -16 46t-41 17q-53 0 -108 -79z" />
<glyph unicode="&#x1eee;" horiz-adv-x="1458" d="M137 442q0 88 21 207l155 813h312l-158 -839q-18 -82 -18 -174q2 -92 58 -151q57 -58 155 -58q127 0 205.5 90t117.5 288l162 844h227q139 0 139 125q0 55 -22 113l229 39q18 -70 19 -127q0 -141 -81 -224t-233 -90l-125 -667q-66 -338 -225.5 -497t-451.5 -159h-8 q-224 0 -350 118q-128 120 -128 349zM602 1552q18 135 75.5 204t139.5 69q68 0 135 -43q63 -41 90 -41q47 0 74 94h150q-43 -268 -217 -268q-74 0 -140 41q-63 41 -86 41q-47 0 -67 -97h-154z" />
<glyph unicode="&#x1eef;" horiz-adv-x="1263" d="M88 274q0 88 23 195l112 592h314l-109 -567q-16 -88 -16 -142q0 -123 104 -123q84 0 158 92.5t100 247.5l94 492h228q137 0 137 125q0 55 -25 112l230 39q18 -61 18 -131q0 -133 -79 -218t-228 -89l-105 -553q-41 -229 -57 -346h-274l18 174h-4q-154 -199 -367 -199 q-131 0 -201.5 74.5t-70.5 224.5zM420 1214q16 129 70 201q53 70 132 70h5q61 0 135 -43q63 -41 84 -41q27 0 41 19.5t28 74.5h150q-39 -266 -209 -266q-80 0 -139 41q-51 39 -86 39q-41 0 -60 -99z" />
<glyph unicode="&#x1ef0;" horiz-adv-x="1458" d="M137 442q0 88 21 207l155 813h312l-158 -839q-18 -82 -18 -174q2 -92 58 -151q57 -58 155 -58q127 0 205.5 90t117.5 288l162 844h227q139 0 139 123q0 55 -22 113l229 39q18 -68 19 -125q0 -141 -81 -224t-233 -90l-125 -667q-66 -338 -225.5 -497t-451.5 -159h-8 q-224 0 -350 118q-128 120 -128 349zM401 -324q0 63 45.5 106.5t106.5 43.5t103 -43t42 -107q0 -61 -42 -104t-105.5 -43t-106.5 44t-43 103z" />
<glyph unicode="&#x1ef1;" horiz-adv-x="1263" d="M88 274q0 88 23 195l112 592h314l-109 -567q-16 -88 -16 -142q0 -123 104 -123q84 0 158 92.5t100 247.5l94 492h228q137 0 137 123q0 55 -25 112l230 39q18 -63 18 -131q0 -131 -79 -216t-228 -89l-105 -553q-41 -229 -57 -346h-274l18 174h-4q-154 -199 -367 -199 q-131 0 -201.5 74.5t-70.5 224.5zM326 -328q0 68 44 111t109 43q63 0 105.5 -43t42.5 -111q0 -63 -42 -107t-107.5 -44t-108.5 44t-43 107z" />
<glyph unicode="&#x1ef2;" horiz-adv-x="1236" d="M154 1462h333l95 -370q41 -174 57 -265h4l150 267l219 368h372l-630 -858l-113 -604h-313l112 598zM428 1817h342l168 -271h-260z" />
<glyph unicode="&#x1ef3;" horiz-adv-x="1077" d="M-53 -221q104 33 178 82q115 78 174 184q12 23 4 53l-207 963h328l63 -461l35 -254h6l93 246l194 469h330l-381 -764q-211 -418 -408 -606q-82 -78 -179 -124t-163 -59zM317 1520h301l164 -330h-225z" />
<glyph unicode="&#x1ef4;" horiz-adv-x="1236" d="M154 1462h333l95 -370q41 -174 57 -265h4l150 267l219 368h372l-630 -858l-113 -604h-313l112 598zM293 -324q0 63 45 106.5t106.5 43.5t103.5 -43t42 -107q0 -61 -42 -104t-104.5 -43t-106.5 44t-44 103z" />
<glyph unicode="&#x1ef5;" horiz-adv-x="1077" d="M-53 -221q104 33 178 82q115 78 174 184q12 23 4 53l-207 963h328l63 -461l35 -254h6l93 246l194 469h330l-381 -764q-211 -418 -408 -606q-82 -78 -179 -124t-163 -59zM584 -328q0 68 45 111t108.5 43t105.5 -43t42 -111q0 -63 -42 -107t-106.5 -44t-108.5 44t-44 107z " />
<glyph unicode="&#x1ef6;" horiz-adv-x="1236" d="M154 1462h333l95 -370q41 -174 57 -265h4l150 267l219 368h372l-630 -858l-113 -604h-313l112 598zM575 1821q111 158 265 157q90 0 145 -49t55 -123q0 -59 -32.5 -102t-87 -91t-80.5 -87l-144 53q18 29 74.5 83t56.5 97q0 25 -16 41.5t-45 16.5q-45 0 -100 -64z" />
<glyph unicode="&#x1ef7;" horiz-adv-x="1077" d="M-53 -221q104 33 178 82q115 78 174 184q12 23 4 53l-207 963h328l63 -461l35 -254h6l93 246l194 469h330l-381 -764q-211 -418 -408 -606q-82 -78 -179 -124t-163 -59zM455 1458q109 170 274 170q90 0 144.5 -51t54.5 -127q0 -68 -36 -119t-89 -99t-74 -85l-156 43 q16 43 81 106.5t65 108.5q0 29 -16.5 46t-40.5 17q-53 0 -109 -79z" />
<glyph unicode="&#x1ef8;" horiz-adv-x="1236" d="M154 1462h333l95 -370q41 -174 57 -265h4l150 267l219 368h372l-630 -858l-113 -604h-313l112 598zM477 1552q20 135 77.5 204t137.5 69q70 0 137 -43q61 -41 89 -41q49 0 73 94h152q-45 -268 -217 -268q-74 0 -140 41q-63 41 -88 41q-45 0 -67 -97h-154z" />
<glyph unicode="&#x1ef9;" horiz-adv-x="1077" d="M-53 -221q104 33 178 82q115 78 174 184q12 23 4 53l-207 963h328l63 -461l35 -254h6l93 246l194 469h330l-381 -764q-211 -418 -408 -606q-82 -78 -179 -124t-163 -59zM363 1210q18 131 71 203t137 72q59 0 134 -43q63 -41 86 -41q27 0 40 19.5t29 74.5h150 q-39 -266 -213 -266q-76 0 -140 41q-49 39 -82 39q-41 0 -61 -99h-151z" />
<glyph unicode="&#x2000;" horiz-adv-x="1069" />
<glyph unicode="&#x2001;" horiz-adv-x="2140" />
<glyph unicode="&#x2002;" horiz-adv-x="1069" />
<glyph unicode="&#x2003;" horiz-adv-x="2140" />
<glyph unicode="&#x2004;" horiz-adv-x="712" />
<glyph unicode="&#x2005;" horiz-adv-x="534" />
<glyph unicode="&#x2006;" horiz-adv-x="356" />
<glyph unicode="&#x2007;" horiz-adv-x="356" />
<glyph unicode="&#x2008;" horiz-adv-x="266" />
<glyph unicode="&#x2009;" horiz-adv-x="428" />
<glyph unicode="&#x200a;" horiz-adv-x="118" />
<glyph unicode="&#x2010;" horiz-adv-x="698" d="M51 461l45 219h561l-43 -219h-563z" />
<glyph unicode="&#x2011;" horiz-adv-x="698" d="M51 461l45 219h561l-43 -219h-563z" />
<glyph unicode="&#x2012;" horiz-adv-x="698" d="M51 461l45 219h561l-43 -219h-563z" />
<glyph unicode="&#x2013;" horiz-adv-x="1085" d="M47 449l39 204h956l-38 -204h-957z" />
<glyph unicode="&#x2014;" horiz-adv-x="2170" d="M47 449l39 204h2042l-39 -204h-2042z" />
<glyph unicode="&#x2018;" horiz-adv-x="552" d="M137 897q154 334 340 588l207 18q-152 -303 -238 -588z" />
<glyph unicode="&#x2019;" horiz-adv-x="552" d="M129 897q141 285 236 586l311 20q-158 -344 -342 -590z" />
<glyph unicode="&#x201a;" horiz-adv-x="552" d="M-117 -250q168 344 246 608l326 23q-156 -342 -355 -610z" />
<glyph unicode="&#x201c;" horiz-adv-x="970" d="M135 897q154 334 340 588l207 18q-152 -303 -238 -588zM559 897q152 334 342 588l207 18q-154 -303 -238 -588z" />
<glyph unicode="&#x201d;" horiz-adv-x="970" d="M125 897q154 301 237 586l312 20q-164 -354 -342 -590zM551 897q152 301 237 586l310 20q-156 -344 -340 -590z" />
<glyph unicode="&#x201e;" horiz-adv-x="970" d="M-135 -250q166 326 246 608l325 23q-158 -352 -354 -610zM326 -250q170 344 245 608l326 23q-154 -342 -354 -610z" />
<glyph unicode="&#x2020;" horiz-adv-x="1126" d="M125 801l49 252l363 -27l55 436h293l-113 -436l375 27l-49 -252l-363 26l-151 -936h-293l209 936z" />
<glyph unicode="&#x2021;" horiz-adv-x="1126" d="M31 285l47 252l358 -27l68 352l-369 -26l47 251l361 -26l55 401h285l-101 -401l369 26l-49 -251l-359 26l-65 -352l369 27l-48 -252l-360 26l-57 -420h-287l104 420z" />
<glyph unicode="&#x2022;" horiz-adv-x="729" d="M86 577q0 115 82 196q84 83 200.5 83t199.5 -83t83 -202.5t-83 -200.5t-201 -81q-117 0 -199 81t-82 207z" />
<glyph unicode="&#x2026;" horiz-adv-x="2170" d="M96 158q0 92 59.5 157.5t149.5 65.5q82 0 131 -52.5t49 -135.5q0 -94 -60 -155t-157 -61q-78 0 -125 51.5t-47 129.5zM821 158q0 92 59.5 157.5t151.5 65.5q80 0 129 -52.5t49 -135.5q0 -94 -60 -155t-157 -61q-78 0 -125 51.5t-47 129.5zM1546 158q0 92 59.5 157.5 t151.5 65.5q80 0 130 -52.5t50 -135.5q0 -94 -61 -155t-156 -61q-80 0 -127 51.5t-47 129.5z" />
<glyph unicode="&#x202f;" horiz-adv-x="428" />
<glyph unicode="&#x2030;" horiz-adv-x="2734" d="M137 899q0 219 130 378t333 159q143 0 226 -90.5t83 -233.5q0 -233 -130 -390t-322 -157q-141 0 -230.5 90t-89.5 244zM354 -25l1047 1459h184l-1046 -1459h-185zM375 893q0 -147 104 -148q88 0 140.5 126t52.5 245q0 139 -105 139q-86 0 -139 -122.5t-53 -239.5z M1036 315q0 219 130 378t333 159q143 0 227 -90t84 -234q0 -233 -130 -390.5t-324 -157.5q-141 0 -230.5 89.5t-89.5 245.5zM1274 309q0 -66 27.5 -107.5t78.5 -41.5q88 0 139.5 126t51.5 246q0 139 -105 140q-86 0 -139 -123t-53 -240zM1886 315q0 219 130 378t333 159 q143 0 226 -90t83 -234q0 -233 -130 -390.5t-322 -157.5q-141 0 -230.5 89.5t-89.5 245.5zM2126 309q0 -66 25.5 -107.5t78.5 -41.5q86 0 138.5 126t52.5 246q0 139 -105 140q-84 0 -137 -123t-53 -240z" />
<glyph unicode="&#x2039;" horiz-adv-x="581" d="M47 547l293 416h240l-314 -420l209 -408h-217z" />
<glyph unicode="&#x203a;" horiz-adv-x="579" d="M10 135l314 420l-209 408h217l211 -416l-293 -412h-240z" />
<glyph unicode="&#x2044;" horiz-adv-x="309" d="M-436 -25l1063 1461h188l-1065 -1461h-186z" />
<glyph unicode="&#x205f;" horiz-adv-x="534" />
<glyph unicode="&#x2070;" horiz-adv-x="792" d="M180 1190q0 223 124 386t323 163q139 0 215 -85t76 -214q0 -240 -122 -405t-321 -165q-139 0 -217 87.5t-78 232.5zM424 1190q0 -139 78 -139t126 127t48 241q0 139 -76 140q-80 0 -128 -132.5t-48 -236.5z" />
<glyph unicode="&#x2074;" horiz-adv-x="790" d="M129 1079l27 140l444 516h291l-94 -494h110l-33 -162h-108l-37 -198h-231l37 198h-406zM391 1241h174l29 154q18 86 43 164h-8q-82 -119 -107 -150l-131 -164v-4z" />
<glyph unicode="&#x2075;" horiz-adv-x="731" d="M121 915l55 175q84 -37 191 -37q82 0 134 33.5t52 93.5q0 102 -211 102q-66 0 -119 -6l127 453h510l-37 -189h-327l-29 -100q20 2 53 2q88 0 158 -35q139 -55 139 -199q0 -158 -129 -248t-323 -90q-160 0 -244 45z" />
<glyph unicode="&#x2076;" horiz-adv-x="776" d="M178 1180q0 139 68.5 259t175.5 189q150 96 338 105q36 4 69 3q22 0 43 -1l-32 -179q-27 5 -54 5l-41 -2q-209 -16 -274 -162l2 -2q72 59 168 59q115 0 178.5 -68.5t63.5 -175.5q0 -141 -108.5 -240.5t-266.5 -99.5q-147 0 -238.5 88.5t-91.5 221.5zM414 1149 q0 -49 28.5 -80t75.5 -31q53 0 89 45t36 115q0 45 -27.5 72.5t-72.5 27.5q-61 0 -101 -55l-18 -29q-10 -28 -10 -65z" />
<glyph unicode="&#x2077;" horiz-adv-x="684" d="M123 881l469 655v4h-375l37 189h631l-27 -146l-473 -702h-262z" />
<glyph unicode="&#x2078;" horiz-adv-x="786" d="M170 1087q0 80 57.5 141.5t143.5 94.5v2q-109 57 -109 154q0 119 105.5 189.5t253.5 70.5q117 0 200.5 -53.5t83.5 -155.5q0 -61 -49 -112.5t-121 -80.5l-2 -2q141 -68 141 -186q0 -94 -60 -158.5t-146 -92.5t-183 -28q-143 0 -229 60.5t-86 156.5zM414 1122 q0 -39 28.5 -64.5t74.5 -25.5t77 27.5t31 73.5q0 78 -103 112q-108 -27 -108 -123zM498 1497q0 -61 96 -98q88 23 88 100q0 37 -23.5 60.5t-72.5 23.5q-39 0 -63.5 -25.5t-24.5 -60.5z" />
<glyph unicode="&#x2079;" horiz-adv-x="774" d="M190 870l27 183q54 -5 91 -5q13 0 24 1q76 2 151 38q100 47 138 132l-3 2q-59 -53 -163 -54q-109 0 -181.5 64.5t-72.5 177.5q0 141 113.5 237.5t269.5 96.5q147 0 232 -87t85 -224.5t-63.5 -254t-159.5 -192.5q-143 -111 -369 -119q-49 0 -119 4zM440 1421 q0 -45 29 -71.5t72 -26.5q63 0 100 43q10 10 21 43q4 27 4 51q0 49 -27 80t-77 31t-86 -44.5t-36 -105.5z" />
<glyph unicode="&#x207d;" horiz-adv-x="442" d="M221 1102q0 426 258 706h162q-109 -143 -175.5 -324t-66.5 -368q0 -205 50 -354h-156q-72 166 -72 340z" />
<glyph unicode="&#x207e;" horiz-adv-x="442" d="M94 762q240 326 240 692q0 203 -49 354h155q72 -164 72 -340q0 -424 -258 -706h-160z" />
<glyph unicode="&#x2080;" horiz-adv-x="792" d="M-49 -4q0 223 123 386t323 163q139 0 215 -85t76 -214q0 -240 -123 -405t-319 -165q-139 0 -217 88.5t-78 231.5zM193 -4q0 -139 78.5 -139t125.5 127t47 241q0 139 -75 140q-78 0 -127 -132.5t-49 -236.5z" />
<glyph unicode="&#x2081;" horiz-adv-x="593" d="M-6 430l264 105h219l-160 -848h-254l123 641h-4l-170 -70z" />
<glyph unicode="&#x2082;" horiz-adv-x="739" d="M-133 -313l24 125l162 125q160 115 233.5 189.5t73.5 137.5q0 88 -108 88q-100 0 -193 -63l-36 157q133 98 313 99q127 0 209 -59.5t82 -172.5q0 -82 -53.5 -159.5t-102.5 -117.5t-154 -116l-59 -41v-4h305l-35 -188h-661z" />
<glyph unicode="&#x2083;" horiz-adv-x="727" d="M-123 -252l76 166q86 -66 205 -66q70 0 114.5 30t44.5 79t-50 76.5t-132 27.5h-39l29 148h35q78 0 136 24.5t58 71.5q0 68 -102 68q-109 0 -201 -60l-20 154q119 78 299 78q119 0 203.5 -54.5t84.5 -140.5q0 -80 -58 -131t-154 -76v-4q72 -16 123 -63t51 -121 q0 -131 -117 -205t-287 -74q-197 0 -299 72z" />
<glyph unicode="&#x2084;" horiz-adv-x="790" d="M-102 -115l28 140l443 516h290l-92 -494h111l-33 -162h-108l-37 -198h-234l37 198h-405zM160 47h174l31 154q18 86 41 164h-7q-82 -119 -106 -150l-133 -164v-4z" />
<glyph unicode="&#x2085;" horiz-adv-x="731" d="M-109 -279l56 175q84 -37 190 -37q82 0 134.5 33.5t52.5 93.5q0 102 -211 102q-68 0 -119 -6l125 453h510l-37 -189h-328l-26 -100q20 2 53 2q86 0 155 -35q139 -55 140 -199q0 -158 -128 -248t-323 -90q-162 0 -244 45z" />
<glyph unicode="&#x2086;" horiz-adv-x="776" d="M-51 -14q0 139 67.5 259t173.5 189q150 96 340 105q34 4 69 3q22 0 44 -1l-33 -179q-27 5 -54 5q-21 0 -42 -2q-209 -16 -272 -162l2 -2q72 59 166 59q117 0 180 -68.5t63 -175.5q0 -141 -108.5 -240.5t-265.5 -99.5q-147 0 -238.5 88.5t-91.5 221.5zM184 -45 q0 -49 29 -80t76 -31q51 0 87 45t36 115q0 45 -27 72.5t-72 27.5q-61 0 -100 -55l-20 -29q-9 -28 -9 -65z" />
<glyph unicode="&#x2087;" horiz-adv-x="684" d="M-106 -313l468 655v4h-374l37 189h630l-28 -146l-473 -702h-260z" />
<glyph unicode="&#x2088;" horiz-adv-x="786" d="M-61 -106q0 80 57 141t145 94v2q-109 57 -108 154q0 119 105.5 189.5t252.5 70.5q117 0 201 -53.5t84 -155.5q0 -61 -49 -112.5t-121 -80.5l-2 -2q141 -68 141 -186q0 -94 -61.5 -158.5t-146.5 -92.5t-181 -28q-143 0 -230 61t-87 157zM184 -72q0 -39 29 -65.5t74 -26.5 t76.5 29t31.5 74q0 78 -102 112q-109 -27 -109 -123zM266 303q0 -61 99 -98q86 23 86 100q0 37 -24 60.5t-71 23.5q-39 0 -64.5 -25.5t-25.5 -60.5z" />
<glyph unicode="&#x2089;" horiz-adv-x="774" d="M-39 -324l27 183q35 -6 114 -6q86 6 152 41q98 43 137 131l-2 2q-59 -53 -166 -54q-109 0 -181.5 64.5t-72.5 177.5q0 141 114 237.5t271 96.5q147 0 232.5 -87t85.5 -224.5t-63.5 -254t-162.5 -194.5q-137 -109 -368 -117q-6 -1 -17 0q-31 -1 -100 4zM211 227 q0 -45 27.5 -71.5t72.5 -26.5q61 0 99 43q12 10 22 43q4 27 4 51q0 49 -26.5 80t-76.5 31t-86 -44.5t-36 -105.5z" />
<glyph unicode="&#x208d;" horiz-adv-x="442" d="M-8 -92q0 426 258 706h160q-109 -143 -174.5 -324t-65.5 -368q0 -205 49 -354h-156q-71 164 -71 340z" />
<glyph unicode="&#x208e;" horiz-adv-x="442" d="M-137 -432q242 326 241 692q0 203 -51 354h158q72 -164 72 -340q0 -424 -258 -706h-162z" />
<glyph unicode="&#x20ab;" horiz-adv-x="1173" d="M117 35l33 190h811l-33 -190h-811zM172 610q0 211 141.5 361.5t360.5 150.5q70 0 117 -20l16 84h-250l33 155h248l22 125h279l-23 -125h150l-33 -155h-148l-104 -547q-31 -154 -37 -305h-260l12 137h-4q-47 -74 -120.5 -114t-147.5 -40q-106 0 -179 78t-73 215zM455 655 q0 -66 26.5 -100.5t71.5 -34.5q51 0 98 53.5t68 151.5l39 188q-35 27 -84 27q-94 0 -156.5 -88t-62.5 -197z" />
</font>
</defs>
</svg>
